<svg height="512pt" viewBox="0 0 512 512" width="512pt" xmlns="http://www.w3.org/2000/svg" xmlns:xlink="http://www.w3.org/1999/xlink"><linearGradient id="a" gradientUnits="userSpaceOnUse" x1="0" x2="512" y1="256" y2="256"><stop offset="0" stop-color="#00f38d"/><stop offset="1" stop-color="#009eff"/></linearGradient><path d="m512 256c0 141.386719-114.613281 256-256 256s-256-114.613281-256-256 114.613281-256 256-256 256 114.613281 256 256zm0 0" fill="url(#a)"/><g fill="#fff"><path d="m389.570312 93.800781h-267.140624c-23.300782 0-42.257813 18.957031-42.257813 42.257813v239.882812c0 23.300782 18.957031 42.257813 42.257813 42.257813h267.140624c23.300782 0 42.257813-18.957031 42.257813-42.257813v-239.882812c0-23.300782-18.957031-42.257813-42.257813-42.257813zm-267.140624 30h267.140624c6.757813 0 12.257813 5.5 12.257813 12.257813v39.519531h-291.65625v-39.519531c0-6.757813 5.5-12.257813 12.257813-12.257813zm267.140624 264.398438h-267.140624c-6.757813 0-12.257813-5.5-12.257813-12.257813v-170.363281h291.65625v170.363281c0 6.757813-5.5 12.257813-12.257813 12.257813zm0 0"/><path d="m156.503906 149.6875c0 7.527344-6.101562 13.632812-13.628906 13.632812s-13.632812-6.105468-13.632812-13.632812 6.105468-13.628906 13.632812-13.628906 13.628906 6.101562 13.628906 13.628906zm0 0"/><path d="m204.207031 149.6875c0 7.527344-6.101562 13.632812-13.628906 13.632812s-13.628906-6.105468-13.628906-13.632812 6.101562-13.628906 13.628906-13.628906 13.628906 6.101562 13.628906 13.628906zm0 0"/><path d="m137.421875 228.050781h122.667969v30h-122.667969zm0 0"/><path d="m191.894531 281.890625h122.667969v30h-122.667969zm0 0"/><path d="m137.375 336.40625h122.667969v30h-122.667969zm0 0"/></g></svg>