<?xml version="1.0" encoding="utf-8"?>
<!-- Generator: Adobe Illustrator 23.0.1, SVG Export Plug-In . SVG Version: 6.00 Build 0)  -->
<svg version="1.1" id="Capa_1" xmlns="http://www.w3.org/2000/svg" xmlns:xlink="http://www.w3.org/1999/xlink" x="0px" y="0px"
	 viewBox="0 0 512 325" style="enable-background:new 0 0 512 325;" xml:space="preserve">
<style type="text/css">
	.st0{fill:#0E9B91;}
</style>
<g>
	<g>
		
			<rect x="124.7" y="143.9" transform="matrix(0.2751 -0.9614 0.9614 0.2751 29.1984 362.337)" class="st0" width="260.3" height="35.8"/>
	</g>
</g>
<g>
	<g>
		<path class="st0" d="M159.1,85.8l-22.9-27.5L28.9,147.8c-7.6,6.3-8.6,17.6-2.3,25.2c0.7,0.8,1.5,1.6,2.3,2.3l107.3,89.4l22.9-27.5
			l-90.8-75.7L159.1,85.8z"/>
	</g>
</g>
<g>
	<g>
		<path class="st0" d="M483.3,150c-0.7-0.8-1.5-1.6-2.3-2.3L373.8,58.3l-22.9,27.5l90.8,75.7l-90.8,75.7l22.9,27.5l107.3-89.4
			C488.7,168.9,489.7,157.6,483.3,150z"/>
	</g>
</g>
</svg>
