<svg xmlns="http://www.w3.org/2000/svg" width="22.881" height="17.161" viewBox="0 0 22.881 17.161">
  <g id="Agrupar_248" data-name="Agrupar 248" transform="translate(52 -49.8)">
    <path id="Caminho_580" data-name="Caminho 580" d="M20.021.8H2.86A2.861,2.861,0,0,0,0,3.66V15.1a2.861,2.861,0,0,0,2.86,2.86H20.021a2.86,2.86,0,0,0,2.86-2.86V3.66A2.86,2.86,0,0,0,20.021.8ZM15.313,8.432l6.054-5.188a1.379,1.379,0,0,1,.084.416V15.1a1.388,1.388,0,0,1-.057.28Zm4.708-6.2a1.343,1.343,0,0,1,.268.054L11.441,9.869,2.592,2.284A1.343,1.343,0,0,1,2.86,2.23ZM1.487,15.38A1.346,1.346,0,0,1,1.43,15.1V3.66a1.379,1.379,0,0,1,.084-.416L7.567,8.431ZM2.86,16.531a1.365,1.365,0,0,1-.408-.083l6.2-7.086,2.323,1.99a.71.71,0,0,0,.93,0l2.322-1.99,6.2,7.086a1.358,1.358,0,0,1-.408.083Zm0,0" transform="translate(-52 49)" fill="#00a7b4"/>
  </g>
</svg>
