<svg xmlns="http://www.w3.org/2000/svg" viewBox="0 0 1440 483.252">
  <defs>
    <style>
      .cls-1 {
        fill: rgba(255,255,255,0.3);
      }
    </style>
  </defs>
  <g id="Group_246" data-name="Group 246" transform="translate(7001 -111.748) rotate(180)">
    <g id="Group_235" data-name="Group 235" transform="translate(5561.02 -595)">
      <path id="Path_556" data-name="Path 556" class="cls-1" d="M1379.254,326.248c-92.262-81.985-132.616-102.792-222.934-14.4-36.358,35.584-74.173,53.6-112.421,53.6-.648,0-1.314,0-1.962-.018-37.24-.594-75.145-19.079-106.733-52.035-3.78-3.942-7.326-7.7-10.763-11.339-41.037-43.485-59.774-63.338-124.876-23.687-31.318,19.079-61.466,15.047-92.172-12.329-27.376-24.424-51.963-63.914-75.721-102.09C597.365,108.839,564.985,56.786,527.241,53.835c-17.711-1.386-35.08,8.045-53.061,28.834-30.4,35.152-48.291,51.747-61.772,57.272-13.337,5.472-22.985.414-37.6-7.218-1.6-.846-3.276-1.71-5.022-2.61-13.679-7.038-24.676-21.077-35.332-34.648C319.048,75.829,303.137,55.508,279,56.93c-15.011.882-28.006,8.927-40.569,16.721C216.85,87.025,198.2,98.58,174.175,72.913c-3.978-4.23-8.1-8.981-12.473-14.021C139.023,32.794,110.783.324,71.186,0H70.61C56.012,0,40.7,4.482,25.054,13.355A174.182,174.182,0,0,0,0,30.958V33.55c24.982-21.131,48.273-31.5,70.592-31.5h.594c38.662.324,66.578,32.4,89,58.172,4.392,5.04,8.531,9.809,12.527,14.075,25.18,26.89,45.411,14.345,66.848,1.08,12.347-7.65,25.126-15.569,39.616-16.415C302.237,57.6,317.14,76.6,332.907,96.708c10.781,13.751,21.923,27.97,36,35.206,1.728.9,3.4,1.764,5,2.61,10.6,5.544,18.719,9.791,27.52,9.791,16.055,0,34.414-14.147,74.353-60.314,17.531-20.267,34.324-29.464,51.351-28.132,36.7,2.88,68.828,54.5,102.846,109.163,23.849,38.32,48.507,77.935,76.1,102.54,18.485,16.487,36.79,24.694,55.274,24.694,12.977,0,26.044-4.05,39.328-12.149,30.94-18.845,51.783-24.586,69.692-19.2,17.441,5.256,32.2,20.9,52.629,42.531,3.438,3.654,7,7.416,10.781,11.357,14.8,15.425,30.94,27.79,47.985,36.718,19.6,10.259,39.868,15.641,60.188,15.965.666.018,1.332.018,2,.018,38.806,0,77.107-18.233,113.861-54.195,44.673-43.7,77.431-60.476,109.523-56.031,31.282,4.32,61.79,27.124,110.621,70.5,19.727,17.531,40.209,28.078,62.006,31.912v-2.178C1420.327,354,1400.006,344.678,1379.254,326.248Z" transform="translate(0.016)"/>
      <path id="Path_557" data-name="Path 557" class="cls-1" d="M1374.556,312.958c-43.5-37.132-76.855-63.842-110.117-69.17-16.469-2.646-32.866.072-50.145,8.261-17.3,8.207-36.556,22.445-58.874,43.521-99.768,94.224-184.974,35.3-216.958,5.58-3.312-3.078-6.48-6.066-9.539-8.927-21.581-20.267-37.168-34.918-55.778-40.3-19.439-5.616-41.055-.666-72.3,16.559-30.148,17.513-59.306,13.355-89.148-12.707-26.62-23.255-50.631-60.62-73.849-96.762-33.82-52.647-65.75-102.36-102.756-105.023-17.531-1.26-34.684,8.046-52.413,28.438-30.2,34.648-48.237,50.919-62.258,56.156-13.661,5.112-23.561-.234-38.536-8.333-1.494-.81-3.042-1.638-4.644-2.5-13.013-6.93-23.633-19.439-33.91-31.516-16.721-19.655-32.506-38.23-57.65-34.7C271.261,63.547,258.59,71.7,246.351,79.584c-11.2,7.2-21.761,14-32.83,15.659-12.329,1.836-23.561-3.06-35.332-15.425-3.132-3.294-6.354-6.822-9.773-10.547-23.957-26.17-53.763-58.784-94.98-58.3-15.425.18-31.534,5.112-47.9,14.687A181.69,181.69,0,0,0,0,44.108v2.61C25.792,24.364,50.037,13.276,73.471,13.006c40.281-.432,69.746,31.75,93.432,57.632,3.42,3.744,6.642,7.272,9.791,10.583,11.465,12.041,21.9,16.469,31.858,16.469,13.427,0,25.954-8.063,38.9-16.4,12.059-7.758,24.532-15.785,38.518-17.747,24.047-3.366,39.472,14.777,55.814,34,10.4,12.221,21.149,24.874,34.5,32,1.6.846,3.132,1.692,4.626,2.484,11.051,5.976,19.583,10.6,28.978,10.6,16.307,0,35.17-13.949,74.353-58.874,17.279-19.889,33.856-28.96,50.7-27.736,35.962,2.592,67.64,51.891,101.172,104.087,23.291,36.268,47.391,73.759,74.227,97.212,18.233,15.929,36.232,23.867,54.357,23.867,12.275,0,24.622-3.636,37.132-10.907,63.446-34.99,82.939-16.685,125.668,23.435q4.59,4.32,9.557,8.945c20.411,18.953,53.511,42.333,95.2,46.005,3.762.324,7.542.5,11.285.5,38.572,0,76.621-17.495,113.285-52.107,89.49-84.5,128.656-57.47,216.4,17.441,21.2,18.107,43.179,28.222,66.686,30.706V343.34C1419.049,341.09,1397.271,332.342,1374.556,312.958Z" transform="translate(0.016 8.772)"/>
      <path id="Path_558" data-name="Path 558" class="cls-1" d="M1369.84,299.749c-45.123-36.916-77.053-61.556-108.551-67.334-16.217-2.97-32.308-.846-49.155,6.534-17.027,7.434-35.89,20.681-57.65,40.461-92.388,83.947-173.005,42.045-212.819,9.611q-4.455-3.645-8.639-7.074c-21.581-17.729-38.608-31.732-57.848-36.988-20.087-5.49-42.621-1.242-73.111,13.769-28.978,15.947-57.128,11.663-86.089-13.085-25.846-22.085-49.263-57.344-71.924-91.452-33.352-50.181-64.832-97.572-101.1-99.948-17.369-1.134-34.306,8.045-51.765,28.06-60.512,68.882-71.888,62.528-102.27,45.555-1.368-.756-2.772-1.548-4.212-2.34-12.257-6.768-22.427-17.783-32.236-28.42-17.387-18.827-33.8-36.61-60.1-30.814-13.805,3.042-26.1,11.267-38,19.223-11.771,7.866-22.877,15.317-34.576,17.261-13.049,2.178-25-2.88-37.582-15.911q-3.078-3.186-6.282-6.57c-25.306-26.566-56.8-59.63-99.894-58.424-16.127.45-32.884,5.85-49.821,16.055A185.16,185.16,0,0,0,0,57.286v2.646C26.494,36.443,51.585,24.582,76.063,23.9c42.189-1.17,73.327,31.516,98.364,57.794,2.142,2.25,4.248,4.446,6.282,6.57,28.726,29.734,51.1,14.777,74.767-1.062,11.735-7.848,23.867-15.965,37.294-18.935,25.162-5.544,41.181,11.825,58.154,30.2,9.935,10.763,20.213,21.887,32.758,28.816,1.44.792,2.844,1.584,4.194,2.34,15.245,8.513,26.278,14.669,41.145,9.647,14.939-5.058,33.388-21.185,63.662-55.635C509.71,64.126,526.089,55.18,542.774,56.26c35.26,2.3,66.47,49.3,99.534,99.048,22.733,34.216,46.257,69.6,72.3,91.866,29.68,25.378,58.6,29.734,88.374,13.337C866,229.481,887.956,247.534,931.712,283.5c2.79,2.286,5.67,4.662,8.639,7.074,29.68,24.172,62.132,38.032,93.846,40.083,41.433,2.664,82.363-14.075,121.654-49.767,42.207-38.338,73.615-52.251,105.059-46.491,31.012,5.688,62.744,30.184,107.633,66.9,22.679,18.557,46.149,28.114,71.366,29.05V328.4C1417.717,327.611,1394.373,319.818,1369.84,299.749Z" transform="translate(0.016 17.463)"/>
      <path id="Path_559" data-name="Path 559" class="cls-1" d="M1365.143,286.644c-43.755-34.216-75.379-58.946-106.985-65.5-31.8-6.606-63.086,6.012-104.573,42.171-84.127,73.291-159.92,47.877-208.7,13.625q-4.266-3-8.279-5.832c-22.229-15.731-39.778-28.15-59.594-33.136-20.987-5.292-43.683-1.89-73.633,11.015l-.072.036c-27.79,14.4-54.951,9.989-83.011-13.445-25.054-20.915-47.895-54.087-69.98-86.143-32.884-47.733-63.95-92.82-99.516-94.89-17.189-1.008-33.946,8.063-51.153,27.7-60.44,68.234-73.129,60.926-103.8,43.251-1.206-.7-2.448-1.4-3.726-2.142-11.411-6.516-21-16.091-30.292-25.342C343.707,79.945,326.59,62.864,299,71.107c-13.175,3.942-25.054,12.221-36.538,20.213-12.347,8.6-24.029,16.739-36.376,19.007-13.805,2.538-26.476-2.664-39.9-16.361l-1.854-1.89c-13.085-13.373-27.916-28.546-45.3-40.3C118.775,38.061,99.12,31.8,78.961,32.644c-16.9.7-34.378,6.552-51.945,17.423A194.812,194.812,0,0,0,0,70.513v2.646c27.3-24.766,53.385-37.438,79.051-38.5,44.457-1.818,77.377,31.8,103.818,58.82l1.854,1.89c12.581,12.851,23.956,17.657,34.72,17.657,15.407,0,29.572-9.863,44.187-20.051,11.357-7.9,23.093-16.091,35.962-19.943,26.4-7.9,43.107,8.765,60.782,26.4,9.377,9.359,19.079,19.025,30.724,25.684,1.26.72,2.5,1.44,3.708,2.124,15.605,8.981,26.872,15.479,42.081,10.871,15.317-4.644,34.54-20.951,64.274-54.537,16.775-19.133,32.956-27.97,49.5-27.016,34.558,2.016,65.354,46.707,97.932,94.008,22.175,32.182,45.087,65.462,70.358,86.557,17.765,14.831,35.17,22.211,52.629,22.211,10.817,0,21.653-2.844,32.6-8.5,62.276-26.836,86.755-9.521,131.212,21.923q4.023,2.862,8.279,5.85c30.544,21.437,61.664,32.938,92.514,34.162,40.425,1.6,80.383-14.525,118.721-47.931,40.965-35.692,71.708-48.165,102.81-41.7,31.138,6.462,62.6,31.066,106.139,65.1,23.129,18.089,46.959,26.962,72.571,26.962,1.152,0,2.3-.054,3.456-.072V313.12C1416.4,313.876,1391.529,307.288,1365.143,286.644Z" transform="translate(0.016 26.051)"/>
      <path id="Path_560" data-name="Path 560" class="cls-1" d="M1360.427,273.642l-6.048-4.518c-41.613-31.03-71.69-53.457-101.5-59.612-30.76-6.354-60.728,4.968-100.218,37.834-65.48,54.5-132.4,60.278-204.593,17.657-3.024-1.782-5.976-3.546-8.855-5.256-45.231-26.926-72.517-43.179-134.6-20.339l-.09.036c-59.54,28.762-104.465-33.982-147.915-94.656-32.434-45.3-63.086-88.086-97.95-89.85-17.045-.864-33.6,8.1-50.577,27.358-29.338,32.866-48.453,48.651-63.914,52.809-14.705,3.96-25.936-2.7-41.451-11.933-1.044-.612-2.088-1.242-3.168-1.872-10.421-6.156-19.349-14.363-27.97-22.3-18.953-17.441-36.862-33.91-65.894-22.985-12.527,4.716-23.939,13-34.99,21.023-12.959,9.4-25.18,18.269-38.212,20.915-14.543,2.952-27.988-2.376-42.3-16.793C177,87.875,161.432,72.738,143.649,61.381c-20.7-13.229-40.731-19.133-61.3-18.089-17.747.9-36.016,7.218-54.285,18.773A203.558,203.558,0,0,0,0,83.79v2.826c28.258-26.062,55.869-39.9,82.435-41.253,47.049-2.412,84.127,34.954,106.283,57.272,32.578,32.812,57.146,14.975,83.155-3.906,10.943-7.937,22.247-16.145,34.5-20.753,27.844-10.475,44.511,4.842,63.788,22.571,8.711,8.009,17.711,16.289,28.312,22.553,1.08.63,2.124,1.26,3.168,1.872,15.965,9.485,27.5,16.325,43.035,12.149,15.875-4.266,35.3-20.249,64.922-53.439,16.541-18.773,32.56-27.5,48.939-26.674,33.874,1.71,64.238,44.1,96.384,88.986,21.581,30.148,43.917,61.322,68.378,81.247,17.549,14.291,34.7,21.419,51.837,21.4a69.064,69.064,0,0,0,30.22-7.326c61.124-22.481,88.086-6.408,132.778,20.195,2.88,1.71,5.832,3.474,8.855,5.256,31.5,18.593,61.3,27.826,91.146,28.222.666,0,1.314.018,1.98.018,38.77,0,77.053-15.5,113.807-46.1,38.95-32.416,68.414-43.611,98.49-37.4,29.374,6.066,59.288,28.384,100.686,59.252l6.048,4.518c24.568,18.3,47.7,24.856,69.53,24.856,3.762,0,7.487-.2,11.177-.558v-2.106C1415.161,299.92,1388.739,294.736,1360.427,273.642Z" transform="translate(0.016 34.535)"/>
      <path id="Path_561" data-name="Path 561" class="cls-1" d="M1355.711,260.718q-7.208-5.1-13.949-9.9c-38.68-27.538-66.614-47.427-94.872-53.061-29.446-5.868-57.9,4.212-95.142,33.694-83.119,65.786-154.232,43.881-200.49,21.689-3.762-1.8-7.416-3.582-10.979-5.31-44.745-21.761-74.3-36.124-134.38-17.927l-.126.036c-56.84,25.324-100.506-33.154-142.731-89.706-32.02-42.891-62.258-83.389-96.456-84.811-16.9-.7-33.28,8.135-50.019,27.034-29.248,32.47-48.543,47.931-64.544,51.693-15.065,3.546-26.566-3.492-42.477-13.229l-2.574-1.566c-9.287-5.67-17.4-12.563-25.234-19.241-10.187-8.675-19.817-16.865-30.76-21.2-12.329-4.878-24.6-4.212-38.626,2.142-11.843,5.364-22.769,13.625-33.334,21.617-13.553,10.259-26.368,19.943-40.065,23-15.317,3.4-29.536-2.052-44.763-17.207-28.69-28.51-63.968-57.29-108.281-54.609-18.647,1.134-37.744,7.92-56.75,20.177A212.685,212.685,0,0,0,0,97.073v2.844C29.248,72.36,58.064,57.583,86.035,55.891c43.5-2.628,78.349,25.846,106.7,54.033,13.715,13.643,26.026,18.827,37.6,18.827,17.621,0,33.5-12.023,49.929-24.442,10.475-7.92,21.311-16.127,32.938-21.383,29.5-13.355,46.977,1.53,67.226,18.755,7.9,6.714,16.073,13.679,25.5,19.421l2.556,1.566c13.175,8.063,23.651,14.471,35.71,14.471,17.243,0,37.708-13.139,73.921-53.331,16.307-18.413,32.146-27.034,48.4-26.35,33.226,1.386,63.176,41.505,94.908,84,20.987,28.114,42.711,57.2,66.344,75.955,26.89,21.329,52.665,26.062,78.817,14.435,59.27-17.945,88.555-3.708,132.832,17.837,3.564,1.728,7.218,3.51,10.979,5.31,32.542,15.605,61.088,22.7,89.8,22.3,38.464-.522,76.423-15.407,112.853-44.241,75.883-60.062,110.873-35.152,187.566,19.439q6.75,4.806,13.949,9.9c23.578,16.667,45.681,22.679,66.542,22.679a118.857,118.857,0,0,0,18.845-1.584v-2.106C1413.956,285.611,1386.021,282.137,1355.711,260.718Z" transform="translate(0.016 42.941)"/>
      <path id="Path_562" data-name="Path 562" class="cls-1" d="M1351,251.51c-7.6-5.076-14.723-9.935-21.617-14.633-70.466-47.985-105.833-72.067-178.531-17.621-77.521,58.046-142.785,45.591-196.386,25.738-5.382-2-10.565-3.96-15.587-5.886-41.7-15.893-74.623-28.438-131.68-15.011l-.144.054c-54.141,21.941-96.492-32.308-137.475-84.775C637.952,98.9,608.092,60.65,574.542,59.57c-16.793-.54-32.974,8.207-49.5,26.746C464.677,152.787,448.514,142.6,416.3,122.3l-1.89-1.188A245.606,245.606,0,0,1,392.429,105c-21.9-17.369-40.821-32.362-73.4-15.191-11.141,5.868-21.527,14.075-31.57,21.995-14.183,11.2-27.574,21.779-41.973,25.27-16.109,3.906-31.138-1.674-47.319-17.567C174.049,95.784,136.575,64.664,89.634,67.922,70.052,69.29,50.091,76.579,30.31,89.593A219.568,219.568,0,0,0,0,114.035V116.9c30.256-29.14,60.332-44.889,89.778-46.923,46.1-3.2,83.119,27.574,106.949,50.991,14.291,14.039,27.07,19.421,39.04,19.421,18.809,0,35.584-13.247,52.953-26.962,9.971-7.866,20.285-16.019,31.246-21.8,31.39-16.559,49.821-1.944,71.168,14.975a251.632,251.632,0,0,0,22.157,16.253l1.89,1.188c16.073,10.133,28.762,18.125,45.033,14.849,17.009-3.438,36.844-18.737,66.326-51.207,16.091-18.071,31.75-26.584,47.9-26.062,32.6,1.062,62.168,38.932,93.486,79.033,20.375,26.1,41.451,53.079,64.256,70.682,17.189,13.265,33.856,19.853,50.379,19.853A66.4,66.4,0,0,0,807.7,226.1c56.39-13.265,87.439-1.44,130.4,14.939,5.022,1.908,10.205,3.888,15.605,5.886,21.113,7.811,49.011,16.541,81.013,16.541q3.672,0,7.4-.162c38.014-1.62,73.975-15.479,109.919-42.387,34.522-25.846,60.98-34.594,88.465-29.23,26.3,5.13,52.053,22.661,87.672,46.905,6.912,4.7,14.039,9.557,21.635,14.633,22.535,15.065,43.629,20.555,63.482,20.555a122.421,122.421,0,0,0,26.566-3.078v-2.124C1412.8,274.639,1383.375,273.145,1351,251.51Z" transform="translate(0.016 47.631)"/>
      <path id="Path_563" data-name="Path 563" class="cls-1" d="M1346.28,243.084c-10.4-6.552-19.889-12.743-29.068-18.737-31.858-20.807-57.02-37.24-82.219-42.117-26.44-5.112-52.683,2.79-85.081,25.612C1077,259.175,1014.4,252.5,957.594,237.612c-8.387-2.2-16.361-4.446-24.083-6.642-39-11.051-72.7-20.591-125.074-11.9l-.18.054c-51.387,18.575-92.406-31.444-132.076-79.843-31.246-38.122-60.764-74.119-93.7-74.839-16.649-.378-32.7,8.3-48.993,26.476-28.708,31.336-49.047,46.581-65.93,49.425-15.839,2.664-28.528-5.562-44.6-15.983l-1.152-.738c-6.462-4.194-12.383-8.6-18.089-12.869-11.663-8.711-22.661-16.937-34.864-20.195-13.517-3.618-27.25-.828-43.179,8.747-10.4,6.264-20.213,14.327-29.7,22.157-14.813,12.2-28.8,23.741-43.917,27.736-16.9,4.464-32.758-1.224-49.929-17.909C165.5,95.655,129.97,79.708,93.522,82.552,62.51,84.982,31.192,101.487,0,131.725v2.844c31.3-30.778,62.69-47.553,93.684-49.983,35.818-2.808,70.844,12.941,107.057,48.165,14.849,14.435,28.114,20,40.5,20,20.051,0,37.762-14.6,56.1-29.716,9.413-7.758,19.169-15.8,29.446-21.977,33.586-20.177,52.2-6.282,75.757,11.321,5.742,4.284,11.681,8.729,18.2,12.959l1.152.738c14.273,9.269,25.954,16.829,39.67,16.829a39.092,39.092,0,0,0,6.39-.54C485.3,139.447,506,124,535.052,92.29c15.875-17.711,31.408-26.152,47.427-25.81,32,.7,61.214,36.358,92.154,74.083,19.745,24.082,40.156,48.975,62.1,65.408,17.063,12.779,33.5,19.115,49.767,19.115a65.871,65.871,0,0,0,22.409-4.032c51.873-8.6,85.333.882,124.084,11.861,7.721,2.2,15.713,4.446,24.119,6.66,26.08,6.822,54.7,12.833,87.042,10.475,37.06-2.7,72.05-15.965,106.967-40.551,31.912-22.463,57.668-30.256,83.515-25.27,24.8,4.788,49.821,21.131,81.481,41.811,9.179,5.994,18.665,12.2,29.086,18.755,21.455,13.5,41.487,18.467,60.35,18.467a127.317,127.317,0,0,0,34.378-5.076v-2.142C1411.724,264,1380.82,264.809,1346.28,243.084Z" transform="translate(0.016 51.539)"/>
      <path id="Path_564" data-name="Path 564" class="cls-1" d="M1341.564,234.651c-13.229-7.794-24.911-15.137-36.2-22.247-29.338-18.467-52.521-33.046-76.225-37.672-25.109-4.9-49.821,1.8-80.113,21.707-77.5,50.937-141.507,41.037-188.25,33.838-13.445-2.07-26.1-4.608-38.338-7.038-34.612-6.894-67.3-13.409-112.691-9.143l-.216.036C760.921,229.4,721.305,183.57,683,139.239c-30.9-35.764-60.1-69.566-92.478-69.908-16.577-.18-32.47,8.405-48.561,26.26-28.672,31.012-49.245,45.9-66.686,48.273-16.253,2.2-29.248-6.48-45.7-17.477l-.324-.216c-4.716-3.15-9.143-6.318-13.445-9.4-25.792-18.467-46.149-33.046-83.425-7.937-9.665,6.5-18.845,14.4-27.718,22.049-15.461,13.3-30.058,25.864-45.9,30.418-17.711,5.076-34.432-.72-52.629-18.215-35.1-33.8-71.654-49.3-108.605-46.1C64.94,99.839,32.272,117.388,0,149.336v2.88c32.38-32.488,65.1-50.325,97.716-53.169,36.34-3.15,72.337,12.167,107.021,45.519,15.425,14.831,29.158,20.591,41.937,20.591,21.347,0,40.011-16.073,59.342-32.722,8.837-7.6,17.963-15.461,27.52-21.9,36.106-24.316,54.969-10.8,81.085,7.9,4.3,3.078,8.747,6.264,13.5,9.431l.324.216c33.262,22.211,53.331,35.62,115.049-31.12,15.677-17.387,31.048-25.756,47.013-25.576,31.444.342,60.35,33.784,90.948,69.188,33.478,38.752,67.928,78.619,108.893,78.619a65.746,65.746,0,0,0,19.709-3.078c45.015-4.23,77.557,2.268,111.989,9.125,12.257,2.448,24.928,4.968,38.428,7.056,27.52,4.248,54.771,7.794,85.657,4.554,36.124-3.78,70.142-16.451,104.016-38.7,62.96-41.361,95.34-20.987,154.106,15.983,10.781,6.786,23,14.471,36.25,22.265,23.38,13.751,46.887,18.827,71.87,15.515a150.291,150.291,0,0,0,27.52-6.57v-2.124C1410.32,253.226,1378.7,256.5,1341.564,234.651Z" transform="translate(0.016 55.455)"/>
      <path id="Path_565" data-name="Path 565" class="cls-1" d="M1336.83,226.244c-16.037-8.783-30.364-17.513-43.017-25.216-53.547-32.65-85.873-52.341-145.7-15.965-71.383,43.4-129.178,40.569-180.169,38.086l-4.014-.2c-21.149-1.008-40.174-3.69-60.3-6.516-28.042-3.942-57.038-8.027-92.6-7.326l-.234.036C765.006,221.169,726.884,179.5,690,139.2,659.407,105.76,630.519,74.19,598.7,74.19h-.09c-16.5.036-32.272,8.567-48.165,26.062-28.528,30.58-49.263,45.087-67.208,47.067-16.793,1.854-30.58-7.632-46.545-18.593-2.7-1.854-5.328-3.708-7.884-5.49-28.762-20.195-49.551-34.774-89.724-4.86-8.891,6.624-17.4,14.273-25.63,21.689-16.109,14.489-31.318,28.168-47.913,33.316-18.539,5.742-36.142-.126-55.383-18.467-23.488-22.391-61.394-48.129-108.479-43.647C67.406,114.543,33.352,133.208,0,166.884V169.8c33.46-34.27,67.586-53.223,101.874-56.48,46.329-4.41,83.695,20.987,106.877,43.071,15.983,15.227,30.2,21.185,43.377,21.167,22.715,0,42.351-17.675,62.708-35.98,8.207-7.38,16.685-15.011,25.486-21.563,38.986-29.032,58.208-15.551,87.331,4.878,2.538,1.782,5.184,3.636,7.884,5.508,14.885,10.223,27.916,19.187,43.449,19.187a37.833,37.833,0,0,0,4.482-.252c18.467-2.034,39.6-16.739,68.5-47.715,15.5-17.063,30.76-25.378,46.671-25.4h.09c30.9,0,59.5,31.264,89.8,64.346C721.323,176.406,755.071,213.3,794.7,213.3a64.966,64.966,0,0,0,16.541-2.16c35.332-.684,64.22,3.366,92.154,7.308,20.177,2.844,39.237,5.526,60.476,6.534l4.014.2c51.279,2.5,109.415,5.328,181.339-38.392,58.766-35.728,90.7-16.271,143.577,15.965,12.653,7.721,27.016,16.469,43.089,25.27,17.783,9.737,35.566,14.543,53.961,14.543a110.5,110.5,0,0,0,15.677-1.134,162.286,162.286,0,0,0,34.414-9.359V229.9C1409.15,241.67,1376.338,247.861,1336.83,226.244Z" transform="translate(0.016 59.344)"/>
      <path id="Path_566" data-name="Path 566" class="cls-1" d="M1332.107,217.858c-18.827-9.5-35.1-19.187-49.443-27.718-24.73-14.705-44.259-26.332-65.048-30.688-22.48-4.716-44.187-.324-70.394,14.237-64.994,36.142-118.631,38.842-165.95,41.235-4.68.234-9.5.486-14.183.756-31.48,1.8-60.458-1.656-91.128-5.328-19.925-2.376-40.533-4.842-63.626-6.174h-.126l-.126.018c-42.909,8.837-79.465-28.69-114.815-64.976-30.4-31.21-59.09-60.674-90.48-60.188-16.469.252-32.128,8.747-47.859,25.918-28.312,30.058-49.155,44.205-67.586,45.843-17.441,1.566-31.912-8.657-47.211-19.475l-1.242-.882c-16.631-11.753-29.752-21.041-44.529-23.183-15.929-2.322-32.146,4.068-52.557,20.717-8.082,6.588-15.893,13.931-23.453,21.041-16.775,15.767-32.614,30.652-49.965,36.448-19.367,6.462-37.87.522-58.226-18.665-22.895-21.6-60.26-46.311-108.245-41.361C69.936,129.142,34.46,148.958.01,184.452v2.934c34.576-36.106,70.106-56.21,106.121-59.918,47.211-4.878,84.037,19.511,106.625,40.8,45.969,43.359,77.557,13.679,111-17.765,7.523-7.074,15.317-14.4,23.345-20.933,42.279-34.45,61.97-20.519,94.6,2.556l1.242.882c14.543,10.277,28.312,20.015,44.817,20.015,1.242,0,2.484-.054,3.762-.162,18.953-1.692,40.209-16.037,68.9-46.491,15.335-16.757,30.508-25.018,46.383-25.27,30.49-.5,58.91,28.69,88.986,59.576,35.71,36.646,72.607,74.551,116.561,65.588,22.984,1.314,43.5,3.78,63.356,6.156,30.76,3.69,59.828,7.164,91.488,5.346,4.68-.27,9.5-.5,14.165-.738,47.535-2.394,101.424-5.112,166.831-41.487,54.7-30.4,84.325-12.779,133.408,16.415,14.381,8.549,30.67,18.251,49.569,27.79,22.175,11.2,44.223,14.9,67.406,11.321,14.489-2.25,28.132-7.056,41.325-12.509v-2.214C1407.954,229.593,1374.08,239.043,1332.107,217.858Z" transform="translate(0.024 63.212)"/>
      <path id="Path_567" data-name="Path 567" class="cls-1" d="M1327.373,209.515c-21.563-9.971-39.58-20.5-55.455-29.806-44.493-26.062-73.885-43.269-125.6-17.333-58.028,29.086-104.663,35.728-149.751,42.153-9.071,1.3-17.639,2.5-26.314,3.906-44.025,7.128-84.469,1.242-131.3-5.562-8.189-1.188-16.649-2.412-25.324-3.6l-.144-.018-.144.018c-39.94,5.76-74.8-27.682-108.515-60.008-30.238-29-58.8-56.409-89.814-55.455-16.451.5-32.038,8.963-47.625,25.846-27.718,29.158-49.317,43.323-67.946,44.637-16.811,1.17-30.454-7.7-47.9-20.375-15.785-11.465-30.094-21.041-45.5-21.995-15.875-.99-32.4,6.912-53.547,25.63-7.272,6.426-14.327,13.373-21.167,20.087-17.441,17.135-33.928,33.334-52.035,39.832-20.231,7.236-39.652,1.26-61.142-18.827-14.8-13.823-31.012-24.3-48.237-31.1a123.621,123.621,0,0,0-59.7-8.171c-24.73,2.754-49.551,12.977-73.741,30.418A263.8,263.8,0,0,0,.01,202.009v2.862c35.674-37.978,72.661-59.288,110.441-63.482,37.4-4.158,75.145,9.593,106.3,38.734,17.117,16,32.272,22.337,46.257,22.337,25.63,0,47.3-21.293,69.764-43.377,6.822-6.7,13.859-13.625,21.095-20.015,43.575-38.536,64.058-27.07,96.492-3.51,17.783,12.923,31.732,21.977,49.245,20.753,19.169-1.332,41.2-15.713,69.314-45.267,15.191-16.469,30.31-24.712,46.185-25.2,30.13-.918,58.406,26.188,88.338,54.879,31.426,30.148,63.842,61.232,100.83,61.232a67.191,67.191,0,0,0,9.251-.648c8.622,1.188,17.027,2.412,25.162,3.582,47,6.84,87.582,12.725,131.914,5.562,8.657-1.4,17.207-2.61,26.278-3.906,45.249-6.444,92.064-13.1,150.381-42.351,50.721-25.432,79.735-8.441,123.652,17.279,15.929,9.323,33.982,19.907,55.635,29.9,16.919,7.811,32.416,10.871,46.941,10.871,24.136,0,45.609-8.441,66.434-17.585v-2.232C1406.712,217.038,1371.938,230.106,1327.373,209.515Z" transform="translate(0.024 67.02)"/>
      <path id="Path_568" data-name="Path 568" class="cls-1" d="M1436.994,189.8c-33.622,15.047-68.414,30.6-114.329,11.429-24.245-10.115-43.791-21.509-61.034-31.552-39.669-23.111-68.342-39.814-116.2-18.575-49.443,21.941-89.994,31.084-129.2,39.94-14.723,3.33-28.636,6.462-42.8,10.223-53.277,14.129-105.383,4.824-158.5-6.84l-.144-.036-.144.018c-36.844,2.79-69.854-26.584-101.766-54.987-22.679-20.177-44.1-39.238-66.542-47.157-12.149-4.284-23.435-4.878-34.522-1.818-12.329,3.42-24.1,11.267-35.926,23.993-27.52,28.654-49.227,42.441-68.324,43.413-17.4.882-31.7-8.675-48.561-21.257-17.027-12.707-30.634-20.483-45.807-19.979-15.623.5-32.272,9.953-53.979,30.6-6.426,6.12-12.707,12.581-18.791,18.827-18.125,18.629-35.242,36.214-54.159,43.467-21.077,8.1-41.451,2.088-64.112-18.935-30.9-28.654-69.1-41.9-107.561-37.348-25.828,3.06-51.693,13.985-76.873,32.434A275.354,275.354,0,0,0,0,219.549v3.1c36.862-39.724,75.865-62.762,114.833-67.388,37.852-4.5,75.469,8.585,105.923,36.808,17.675,16.379,33.3,22.913,47.7,22.913,27.178,0,49.893-23.327,73.435-47.535,6.066-6.228,12.347-12.689,18.737-18.773,21.311-20.285,37.528-29.554,52.629-30.04,14.579-.468,27.844,7.146,44.511,19.583,17.207,12.833,31.786,22.571,49.893,21.653,19.655-.99,41.793-14.993,69.71-44.043,47.985-51.549,89.832-14.309,134.146,25.108,30.8,27.394,62.582,55.689,98.238,55.689,1.62,0,3.276-.054,4.914-.18,53.313,11.717,105.635,21.023,159.308,6.786,14.147-3.744,28.024-6.876,42.729-10.205,39.31-8.873,79.969-18.053,129.574-40.066,46.887-20.807,75.181-4.338,114.329,18.467,17.3,10.079,36.9,21.491,61.268,31.678,46.743,19.529,81.931,3.78,115.949-11.447.7-.306,1.386-.612,2.088-.936v-2.25C1438.938,188.915,1437.966,189.365,1436.994,189.8Z" transform="translate(0.016 70.809)"/>
      <path id="Path_569" data-name="Path 569" class="cls-1" d="M1427.923,179.938c-32.182,14.561-65.48,29.608-109.991,13.031-26.8-9.989-47.7-22.229-66.11-33.028-18.125-10.619-33.766-19.8-50.541-24.28-18.359-4.914-36.376-3.582-56.714,4.194-36.484,13.967-67.514,23.075-97.518,31.876-24.136,7.074-46.923,13.769-70.43,22.391-45.7,16.793-95.16,15.407-160.37-4.518l-.144-.036h-.144c-33.6,0-64.526-25.36-94.422-49.875-22.823-18.719-44.385-36.412-66.92-43.431-12.185-3.8-23.489-4.086-34.522-.882-12.311,3.582-23.992,11.393-35.71,23.848-27.322,28.15-49.155,41.559-68.7,42.189-18.017.576-32.956-9.683-49.227-22.139-18.935-14.507-32.29-19.709-46.113-17.963-15.371,1.926-32.146,12.905-54.393,35.566-5.544,5.652-11.033,11.537-16.325,17.225-18.809,20.213-36.592,39.31-56.282,47.391-21.941,9.017-43.287,2.988-67.154-18.971-30.274-27.844-68.324-40.461-107.147-35.566C78.277,172.108,37.87,196.1,0,237.156v3.024c37.978-41.7,78.475-66.02,119.261-71.168,38.212-4.824,75.667,7.632,105.491,35.044,18.233,16.757,34.342,23.489,49.119,23.489,28.8,0,52.557-25.522,77.215-52.017,5.292-5.688,10.745-11.555,16.289-17.189,44.529-45.375,65.3-42.3,97.788-17.4C481.74,153.641,496.985,164.1,515.7,163.5c20.1-.648,42.387-14.255,70.106-42.819,47.553-50.595,89.724-16,134.38,20.627,30.13,24.712,61.286,50.271,95.574,50.343,31.372,9.575,57.434,14.633,82.039,15.911,28.474,1.476,54.483-2.268,79.5-11.465,23.435-8.621,46.2-15.281,70.3-22.355,30.04-8.819,61.124-17.927,97.68-31.93,43.215-16.559,69.35-1.242,105.491,19.943,18.5,10.835,39.453,23.129,66.434,33.172,45.321,16.883,79,1.638,111.557-13.085,3.744-1.692,7.452-3.366,11.141-4.968v-2.232C1435.932,176.338,1431.954,178.12,1427.923,179.938Z" transform="translate(0.016 74.53)"/>
      <path id="Path_570" data-name="Path 570" class="cls-1" d="M1418.869,170.189c-30.76,14.093-62.564,28.672-105.671,14.615-29.248-9.539-51.279-22.679-70.7-34.288-32.524-19.421-58.208-34.756-98.814-21.815-10.259,3.276-20.069,6.354-29.554,9.323-50.307,15.8-90.03,28.276-134.344,49.047-48.165,22.589-101.244,21.887-162.26-2.178l-.144-.054-.144-.018c-30.13-2.538-58.64-23.939-86.2-44.655-23.129-17.369-44.979-33.766-67.73-39.94-12.311-3.33-23.687-3.33-34.774.036-12.365,3.762-24.047,11.555-35.728,23.849-27.124,27.664-49.065,40.7-69.062,40.965-18.665.27-34.252-10.745-49.893-23.039-18.2-14.291-32.074-19.061-46.4-15.947-15.083,3.276-31.984,15.767-54.807,40.533-4.662,5.058-9.287,10.259-13.769,15.281-25.054,28.132-48.7,54.7-77.017,56.174-16.5.846-33.424-6.84-51.711-23.525-29.716-27.106-67.622-39.166-106.715-33.946C91.758,184.841,47.625,201.993,0,254.55v3.06c47.787-53.421,92.046-70.754,123.706-74.965,38.482-5.13,75.793,6.732,105.059,33.442,18.719,17.063,36.124,24.928,53.2,24.047,29.158-1.512,53.1-28.4,78.439-56.858,4.464-5.022,9.089-10.205,13.733-15.263,22.517-24.424,39.094-36.736,53.745-39.921,13.859-3.006,26.8,1.494,44.709,15.551,15.749,12.365,31.48,23.471,50.5,23.471h.7c20.573-.288,42.981-13.517,70.52-41.6,47.391-49.911,90.192-17.765,135.513,16.271,27.754,20.843,56.444,42.387,87.115,45.033,29,11.429,56.822,17.657,82.669,18.521A175.229,175.229,0,0,0,980.7,188.908c44.187-20.717,83.857-33.19,134.074-48.957,9.485-2.97,19.295-6.066,29.554-9.323,39.724-12.653,65.066,2.466,97.14,21.617,19.511,11.645,41.65,24.856,71.114,34.468a113,113,0,0,0,35.314,5.832c27.034,0,49.713-10.4,71.852-20.537,6.786-3.114,13.481-6.174,20.195-8.891V160.9C1432.908,163.764,1425.943,166.95,1418.869,170.189Z" transform="translate(0.016 78.177)"/>
      <path id="Path_571" data-name="Path 571" class="cls-1" d="M1409.806,160.491c-29.338,13.661-59.684,27.808-101.352,16.181-31.57-8.8-54.519-22.931-74.767-35.386-29.968-18.449-53.619-33.01-90.876-23.669C1077.619,133.943,1034.3,150.879,983,180.11c-49.587,28.24-106.355,28.294-164.168.144l-.126-.054-.144-.018c-26.278-4.7-51.855-22.211-76.6-39.13-22.607-15.479-45.987-31.462-69.224-36.862-26.134-6.066-49.5,2.088-71.437,24.928-26.872,27.124-48.885,39.76-69.3,39.76h-.144c-19.331-.054-35.584-11.843-50.577-23.921-33.982-27.358-56.84-20.285-101.928,31.57-3.762,4.32-7.506,8.711-11.123,12.959-26.026,30.562-50.595,59.414-80.239,61.34-17.1,1.116-34.72-6.768-53.853-24.083-29.23-26.458-66.956-38-106.265-32.47-29.158,4.1-58.262,17.225-86.521,39A306.322,306.322,0,0,0-.01,272.246V275.2c49.119-55.9,95.124-74.263,128.152-78.907,38.7-5.436,75.847,5.922,104.609,31.966,19.565,17.711,37.672,25.756,55.365,24.6,30.508-1.98,55.365-31.156,81.661-62.06,3.618-4.248,7.362-8.639,11.105-12.959,23.453-26.98,39.688-40.407,54.285-44.871,14.2-4.356,27.592-.306,44.8,13.553,16.847,13.571,32.884,24.37,52.035,24.37s41.415-10.781,70.718-40.371c47.661-49.623,91.56-19.583,138.033,12.2,24.875,17.027,50.595,34.612,77.251,39.436,27.97,13.589,56.013,20.7,83.317,21.131.864.018,1.71.018,2.574.018a159.938,159.938,0,0,0,80.077-21.419c51.135-29.122,94.3-46.005,159.308-62.294,36.412-9.125,59.756,5.238,89.31,23.435,20.375,12.545,43.449,26.746,75.289,35.62,42.387,11.825,73.075-2.484,102.756-16.307,9.809-4.572,19.421-9.035,29.23-12.491v-2.178C1429.8,151.2,1419.921,155.793,1409.806,160.491Z" transform="translate(0.008 81.792)"/>
      <path id="Path_572" data-name="Path 572" class="cls-1" d="M1400.762,151.563c-27.934,13.265-56.822,26.98-97.032,17.729-33.712-7.758-57.416-22.985-78.313-36.412-26.476-17.009-49.353-31.7-83.461-25.63-29.9,5.328-55.545,12.959-80.689,23.993-22.948,10.079-46.1,23.219-75.055,42.6-50.4,33.73-110.927,34.63-166.094,2.484l-.234-.108c-21.8-6.228-43.611-19.853-64.724-33.028-23.471-14.651-47.733-29.788-71.815-34.576-27.142-5.4-51.207,3.15-73.561,26.134-26.386,26.332-49.209,38.95-69.818,38.536-18-.36-33.5-10.169-51.243-24.8-17.495-14.435-31.534-17.981-46.977-11.9-14.669,5.8-31.318,20.879-55.671,50.433-2.826,3.42-5.616,6.858-8.405,10.277-27.016,33.154-52.521,64.472-83.533,66.884-17.711,1.368-36.034-6.7-55.995-24.64-28.78-25.882-66.38-36.934-105.833-31.1-30.256,4.464-60.476,18.377-89.8,41.361A318.428,318.428,0,0,0,0,290.46v3.258c41.361-47.571,87.025-76.531,132.6-83.245,38.86-5.724,75.847,5.148,104.177,30.6,18.917,17.009,36.466,25.324,53.493,25.324,1.35,0,2.7-.054,4.032-.162,31.876-2.466,57.668-34.126,84.955-67.622,2.772-3.4,5.562-6.84,8.387-10.259,24.118-29.284,40.515-44.187,54.843-49.839,14.651-5.778,28.078-2.322,44.925,11.555,16.829,13.9,33.424,25.306,53.493,25.306,19.187,0,41.559-10.457,70.34-39.166,22.139-22.769,44.925-30.886,71.708-25.576,23.723,4.716,47.823,19.763,71.132,34.306,21.185,13.229,43.089,26.908,65.12,33.226,55.832,32.506,117.119,31.552,168.163-2.61,49.893-33.388,91.236-54.933,154.97-66.29,33.316-5.94,55.869,8.549,81.985,25.342,21.059,13.517,44.907,28.852,78.961,36.7a116.731,116.731,0,0,0,26.386,3.1c27.844,0,50.217-10.619,72-20.969,12.761-6.066,25.162-11.933,38.266-15.569v-2.142C1426.465,139.377,1413.794,145.371,1400.762,151.563Z" transform="translate(0.016 84.673)"/>
      <path id="Path_573" data-name="Path 573" class="cls-1" d="M1391.719,148.462c-26.548,12.887-54.015,26.224-92.748,19.223-35.692-6.444-59.954-22.895-81.355-37.42-24.353-16.5-45.375-30.76-76.531-27.61-58.046,5.868-96.618,28.42-151.677,70.718-51.6,39.634-114.4,41.433-168.02,4.806l-.2-.108c-16.109-6.57-32.632-16.163-48.615-25.432-50.235-29.158-102.18-59.306-154.322-6.444-26.188,25.864-49.173,38.068-70.2,37.33-19.727-.7-36.61-12.761-51.909-25.7-12.4-10.475-23.273-14.831-34.216-13.715-20.591,2.124-41.721,24.244-69.134,59.234q-2.808,3.591-5.6,7.164c-28.024,35.944-54.483,69.89-86.881,72.805-18.3,1.656-37.33-6.588-58.172-25.2-28.4-25.36-65.84-35.962-105.437-29.86-47.319,7.29-94.332,37.258-136.7,86.215v3.114c42.441-49.641,89.6-80,137.007-87.313,38.968-6.012,75.829,4.428,103.764,29.374,21.275,19.007,40.821,27.412,59.72,25.7,33.28-3.006,60.008-37.294,88.32-73.6q2.781-3.564,5.6-7.164c27.088-34.576,47.859-56.426,67.73-58.46,10.349-1.062,20.735,3.15,32.686,13.247,16.757,14.165,33.946,26.242,54.969,26.242,19.223,0,41.667-10.115,69.908-37.978,22.877-23.2,47.769-32.02,76.081-27,25.342,4.5,50.973,19.367,75.757,33.766,16.019,9.287,32.578,18.9,48.777,25.522,26.08,17.783,55.328,26.926,84.613,26.386,30.112-.54,59.756-11.375,85.747-31.318,54.753-42.063,93.09-64.472,150.633-70.3,30.418-3.078,51.171,10.979,75.181,27.268,21.581,14.633,46.041,31.21,82.147,37.726,39.4,7.11,67.154-6.372,94.008-19.4,15.551-7.56,30.58-14.831,47.283-17.945V130.23C1422.821,133.361,1407.54,140.777,1391.719,148.462Z" transform="translate(0.024 81.761)"/>
      <path id="Path_574" data-name="Path 574" class="cls-1" d="M1382.727,145.608c-25.2,12.545-51.243,25.522-88.482,20.7-37.474-4.86-62.132-22.679-83.893-38.41-21.437-15.5-41.685-30.148-70.106-29.59-27.088.522-50.973,7-75.163,20.411-22.211,12.293-44.187,29.932-72.445,54.411-51.783,44.835-118.5,47.643-169.981,7.146l-.144-.09c-7.6-4.158-15.461-8.711-23.057-13.139-27.7-16.073-56.318-32.686-85.333-38.176-32.992-6.246-61.592,3.258-87.4,29.032-26.026,25.4-49.119,37.2-70.574,36.106-20.411-1.044-37.33-13.391-52.575-26.584-11.591-10.025-21.887-14.165-32.38-13.031-20.7,2.25-41.955,25.72-71.69,65.534l-2.736,3.654c-29.032,38.914-56.462,75.685-90.3,79.159-18.9,1.926-38.644-6.48-60.35-25.738-28.06-24.892-65.372-35.1-105.059-28.726-32.47,5.22-64.886,20.789-96.384,46.293A341.217,341.217,0,0,0,0,338.574v3.132c43.485-51.729,92.154-83.5,141.4-91.416,39.076-6.282,75.775,3.744,103.386,28.24,20.069,17.8,38.572,26.53,56.372,26.53a51.985,51.985,0,0,0,5.544-.288c34.72-3.564,62.42-40.677,91.722-79.969l2.736-3.654c29.392-39.346,50.307-62.546,70.268-64.724,9.9-1.08,19.691,2.916,30.814,12.527,15.533,13.427,32.794,26.008,53.817,27.088,22.067,1.134,45.663-10.871,72.121-36.7,25.306-25.27,53.295-34.576,85.585-28.474,28.654,5.418,57.146,21.959,84.685,37.942,7.6,4.41,15.443,8.963,23.039,13.121,25.468,20.015,54.933,30.04,85.243,29.032,30.886-1.044,61.07-13.589,87.277-36.286,51.009-44.169,88.752-73.2,146.313-74.317,27.754-.54,46.8,13.247,68.864,29.194,21.959,15.875,46.833,33.856,84.829,38.788,37.87,4.9,64.2-8.207,89.67-20.9,18.143-9.035,35.566-17.711,56.264-19.511v-2.07C1418.8,127.645,1401.122,136.446,1382.727,145.608Z" transform="translate(0.016 78.622)"/>
      <path id="Path_575" data-name="Path 575" class="cls-1" d="M1373.746,143.121c-23.849,12.239-48.507,24.892-84.253,22.139-39.094-3.024-62.906-21.545-85.945-39.454-19.673-15.3-38.266-29.752-64.148-31.516-54.842-3.744-88.59,26.008-143.541,78.907-52.611,50.649-121.708,54.465-171.943,9.485l-.09-.072c-22.7-16.091-56.93-38.23-92.154-44.583-17.063-3.078-33.424-2.34-48.615,2.232-16.9,5.076-33.01,15.047-47.877,29.626-25.846,24.928-49.047,36.34-70.951,34.882-21.149-1.4-38.788-14.669-53.241-27.484-10.889-9.629-20.645-13.589-30.742-12.437-20.735,2.358-42.009,27.088-74.029,71.923-29.968,41.955-58.262,81.589-93.558,85.639-19.493,2.232-39.939-6.354-62.528-26.26-27.772-24.5-64.976-34.324-104.735-27.682-33.082,5.544-67.55,22.445-99.7,48.885A352.892,352.892,0,0,0,0,363v3.42C44.655,312.8,95.484,278.9,145.737,270.5c39.148-6.534,75.739,3.114,103.044,27.2,20.645,18.2,39.634,27.124,57.83,27.124a56.609,56.609,0,0,0,6.3-.36c36.2-4.14,64.76-44.133,95-86.485,31.678-44.349,52.629-68.81,72.589-71.078,9.467-1.08,18.719,2.718,29.14,11.933,14.723,13.031,32.7,26.548,54.465,27.988,22.5,1.494,46.221-10.115,72.517-35.476C699,110.129,768.768,146.073,822.6,184.231c23.776,21.275,51.693,31.8,80.131,31.8,32.65,0,66-13.9,94.548-41.379,54.518-52.5,88-82.021,141.975-78.331,25.27,1.728,43.611,15.983,63.032,31.084,22.193,17.261,47.337,36.808,87.043,39.886,36.322,2.808,61.25-9.989,85.351-22.355,20.483-10.511,40.03-20.537,65.228-20.231v-2.052C1414.28,122.333,1394.481,132.484,1373.746,143.121Z" transform="translate(0.016 75.169)"/>
      <path id="Path_576" data-name="Path 576" class="cls-1" d="M1364.853,140.988c-22.553,11.969-45.843,24.352-80.095,23.525-40.516-.954-64.418-21.095-87.529-40.551-18.053-15.191-35.1-29.554-58.658-33.37-53.025-8.585-84.793,25.09-137.457,80.851l-2.016,2.142c-27.484,29.1-61.034,45.375-94.44,45.771-29.608.378-57.092-11.375-79.519-33.982C797.6,160.607,767.11,146.5,736.962,144.552a110.11,110.11,0,0,0-47.3,7.362c-16.163,6.282-31.642,16.469-46.005,30.31-25.666,24.46-49.011,35.476-71.33,33.676-21.977-1.782-40.353-16.091-53.907-28.366-10.133-9.179-19.709-13.085-29.266-11.951-20.825,2.448-41.163,27.25-76.207,78.421-28.222,41.217-57.4,83.821-94.116,88.446-20.069,2.538-41.235-6.228-64.706-26.8-27.538-24.137-64.634-33.622-104.447-26.71-34.144,5.922-69.764,23.723-103.008,51.513A366.359,366.359,0,0,0-.02,387.717v3.348c45.663-55.689,97.986-91.074,150.039-100.092,39.2-6.786,75.685,2.52,102.756,26.242,23.939,20.969,45.627,29.9,66.308,27.286,37.636-4.752,67.082-47.751,95.556-89.328,34.684-50.649,54.717-75.163,74.749-77.539,8.945-1.044,17.981,2.682,27.646,11.429,32.614,29.518,70.682,49.3,128.026-5.346,52.971-50.991,119.782-49.785,178.657,3.168,22.787,22.967,50.775,34.936,80.959,34.558,33.964-.414,68.018-16.9,95.9-46.419l2.016-2.142c52.2-55.275,83.695-88.644,135.639-80.239,23,3.726,39.832,17.909,57.65,32.92,23.38,19.691,47.571,40.065,88.807,41.037,34.756.828,58.316-11.681,81.1-23.776,22.517-11.951,43.9-23.309,74.119-20.141v-2.07C1409.238,117.445,1387.621,128.911,1364.853,140.988Z" transform="translate(0 71.399)"/>
      <path id="Path_577" data-name="Path 577" class="cls-1" d="M1355.981,139.1c-21.275,11.735-43.269,23.849-75.991,24.874-41.757,1.314-65.624-20.591-88.7-41.757-16.541-15.173-32.182-29.518-53.583-35.134-23.219-6.084-42.837-2.232-63.572,12.509-19.349,13.769-38.716,36.178-63.212,64.562-2.808,3.24-5.67,6.57-8.621,9.971-28.186,32.524-62.87,50.559-97.68,50.775-29.716.18-56.8-12.473-78.205-36.592-20.465-23.057-45.951-35.89-73.669-37.132-33.5-1.494-69.242,13.949-100.632,43.521-25.5,24.01-48.957,34.63-71.708,32.452-17.711-1.692-34.54-10.709-54.573-29.248-9.593-8.891-18.737-12.653-27.952-11.537-22.571,2.754-45.627,35.422-78.223,84.973-32.074,48.759-59.414,86.449-94.692,91.272-20.645,2.826-42.513-6.1-66.866-27.322a112.668,112.668,0,0,0-47.445-24.622c-17.729-4.392-36.826-4.788-56.786-1.206-35.206,6.318-71.96,25.054-106.3,54.213A381.31,381.31,0,0,0,0,412.535v3.276c46.671-57.776,100.452-94.638,154.268-104.3,39.256-7.038,75.649,1.962,102.5,25.36,24.82,21.617,47.211,30.724,68.486,27.808,36.124-4.95,63.752-42.981,96.114-92.172,32.272-49.065,55.059-81.427,76.747-84.073,8.567-1.044,17.171,2.556,26.314,11.015,31.336,29,71.168,51.3,129.07-3.222,30.994-29.176,66.2-44.439,99.138-42.963,27.16,1.224,52.125,13.823,72.229,36.448a112.874,112.874,0,0,0,37.24,28.1,99.9,99.9,0,0,0,42.531,9.179c35.4-.216,70.646-18.5,99.21-51.477,2.952-3.4,5.814-6.732,8.621-9.971,24.406-28.276,43.683-50.613,62.834-64.238,20.195-14.363,39.274-18.125,61.862-12.2,20.915,5.49,36.358,19.655,52.719,34.648,22.714,20.825,46.149,42.351,86.5,42.351,1.188,0,2.412-.018,3.636-.054,33.208-1.044,55.419-13.283,76.909-25.126,24.244-13.355,47.157-25.972,82.939-19.331V119.5C1403.624,112.854,1380.46,125.6,1355.981,139.1Z" transform="translate(0.016 67.441)"/>
    </g>
  </g>
</svg>
