<svg id="Logo_Brambilla" data-name="Logo Brambilla" xmlns="http://www.w3.org/2000/svg" viewBox="0 0 243.469 123.038">
  <defs>
    <style>
      .cls-1, .cls-4 {
        fill: rgba(0,0,0,0.4);
      }

      .cls-2 {
        fill: none;
      }

      .cls-3, .cls-4 {
        stroke: none;
      }
    </style>
  </defs>
  <path id="Union_11" data-name="Union 11" class="cls-1" d="M130.206,69.071a22.768,22.768,0,0,1,.62-4.9l5.437-27.254h7.964L141.045,52.3h.12a10.852,10.852,0,0,1,8.292-3.839c5.615,0,8.152,4.639,8.152,9.421,0,8.681-5.728,18.719-17.833,18.719C133.4,76.6,130.206,73.853,130.206,69.071Zm8.945-6.672-.5,2.213a12.6,12.6,0,0,0-.295,2.953,2.771,2.771,0,0,0,3.035,2.983c4.639,0,7.888-6.376,7.888-11.071,0-2.659-1.091-4.606-3.516-4.606C142.9,54.87,140.1,57.733,139.151,62.4Zm51.379,4.782c0-9.062,6.052-18.749,19.249-18.749l.976.03a30.775,30.775,0,0,1,7.939,1.3L217.32,56.67c7.773-7.977,9.241-17.447,10.089-22.822a122.678,122.678,0,0,1,2.983-13.554c-12.9-3.037-16.667,3.809-20.9,8.9a51.837,51.837,0,0,1,5.193,4.742s-2.263-1.6-5.873-3.948c-.4.454-.816.889-1.242,1.292-5.255,4.962-10.631,2.273-10.631,2.273,4.951.905,7.6-1.669,10.43-4.494-8.021-5.125-21.151-12.858-31.659-15.878-13.55-3.869-30.5-5.255-30.264-2.392s10.068,4.842,10.068,4.842-10.984.383-10.3,3.986c.71,3.6,13.848,2.923,13.848,2.923s-12.608,4.725-11.191,6.408c1.449,1.683,10.511-.886,10.511-.886s-5.7,3.1-4.22,5.432,7.559.59,7.559.59-6.675,7.295,3.04,9.8c9.714,2.539,20.875-8.355,20.875-8.355a33.849,33.849,0,0,1-3.334,3.537l-7.058,36.884h-7.918l5.914-30.827a17.618,17.618,0,0,1-8.42,1.416c-11.4-1.063-7.205-9.831-7.205-9.831-9.151,1.33-6.585-5.019-6.585-5.019s-5.726,1.74-7.5-.59c-2.362-3.159,7.175-7,7.175-7s-8.828-.767-9.8-3.779,6.375-5.255,6.375-5.255-8.445-2.716-7.055-5.729C141.575,6.327,163.956,4.38,184.655,14a119.015,119.015,0,0,1,23.582,14.182c3.01-3.129,5.565-9.043,11.318-10.49,4.223-1.061,10.519.135,13.727.892l-.027-.688c-1.419.03-2.953-.027-4.075-1.74a6.969,6.969,0,0,1-1.093-3.279,7.228,7.228,0,0,0-1.24-4.1c1.566.117,3.692,2.51,4.546,4.546.562,1.329.473,2.776,2.1,3.6l.057-5.579a5.587,5.587,0,0,1-1.24-1.626c-.768-1.533-.5-3.453.089-5.609a6.538,6.538,0,0,0,.177-4.106c2.42-.176,4.723,2.512,4.28,6.378-.057,1.86-1.24,3.042-2.627,4.519l-.09,2.213c1.064-.413,1.743-2.1,2.807-2.479.5-.09.976-.207,1.475-.3.886-.294,1.477-2.213,1.95-3.69a9.427,9.427,0,0,1,.06,4.872c-.8,1.476-1.33,2.273-2.689,2.746-1.034.56-2.982.5-3.573,1.18l-.087,2.836,1.15-.149a3.449,3.449,0,0,1,2.066-1.92,8.141,8.141,0,0,1,3.218-.44c1.034-.179,1.624-.856,2.953-1.626-.827,2.953-1.682,4.489-3.512,5.612-1.773.56-3.219-.179-4.7-.563l-.07,0a9.806,9.806,0,0,0-1.123.933l-.018,1.4c.146,2.243-.149,3.839,0,6.082,0,1.979.057,5.079-.5,6.408-1.034.354-1.95,1.86-3.276,2.569.943-3.042,2.569-5.2,3.039-9.714a19.484,19.484,0,0,0,.09-5.256l-.029-.742a16.551,16.551,0,0,0-3.246,7.357C229,33.4,228.44,42.026,222.774,53.217a26.375,26.375,0,0,1-6.4,8.189l-.487,2.442a65.261,65.261,0,0,0-1.09,12.1h-7.265c.06-1.6.21-3.426.324-5.345h-.114c-2.453,4.459-5.935,5.935-9.068,5.935C193.833,76.542,190.53,72.793,190.53,67.181Zm8.238-1.476c0,2.629,1.06,4.459,3.246,4.459,1.471,0,3.16-1.044,4.531-3.428l-.131.033.585-.892a20.71,20.71,0,0,0,1.572-5.011s1.183-6.174,1.183-6.2V54.6c-.416-.06-1.653-.177-2.126-.177C202.518,54.426,198.768,60.686,198.768,65.7ZM61.06,67.181c0-9.062,6.05-18.749,19.248-18.749l.976.03a30.812,30.812,0,0,1,7.944,1.3L86.422,63.847a64.731,64.731,0,0,0-1.091,12.1H78.064c.06-1.6.207-3.426.329-5.345h-.122c-2.45,4.459-5.935,5.935-9.065,5.935C64.363,76.542,61.06,72.793,61.06,67.181ZM69.293,65.7c0,2.629,1.066,4.459,3.251,4.459,2.363,0,5.286-2.689,6.553-9.3,0,0,1.185-6.174,1.185-6.2V54.6c-.413-.06-1.658-.177-2.129-.177C73.045,54.426,69.293,60.686,69.293,65.7ZM8.031,75.479l8.532-45.147a63.133,63.133,0,0,1,12.164-1.09c4.9,0,8.383.62,11.488,2.423A9.483,9.483,0,0,1,45.59,40.2c0,5.843-4.282,9.565-9.364,11.011v.207a10.007,10.007,0,0,1,7.292,10.1c0,5.022-2.684,8.594-6.316,11.014-3.929,2.689-9.775,3.779-17.48,3.779A65.108,65.108,0,0,1,8.031,75.479Zm11.011-7.088a29.82,29.82,0,0,0,3.78.149c5.375,0,10.245-2.126,10.245-7.295,0-4.6-3.869-5.99-8.472-5.99H21.525Zm6.052-31.178L23.032,48.021h3.3c5.433,0,9.157-2.333,9.157-6.321,0-3.306-2.692-4.752-6.465-4.752A23.871,23.871,0,0,0,25.094,37.213ZM87.189,76.039v-.087l3.366-18.159c.59-3.426,1.033-6.319,1.39-8.741h6.762L98.2,53.393h.12a11.126,11.126,0,0,1,9.244-4.992c4.282,0,6.167,2.746,6.375,5.109a11.21,11.21,0,0,1,9.3-5.109c4.132,0,6.552,2.686,6.552,7.265a34.286,34.286,0,0,1-.444,4.636l-2.92,15.68h-7.705l2.685-14.736A15.022,15.022,0,0,0,121.794,58c0-1.86-.829-3.189-2.657-3.189-2.631,0-5.287,3.513-6.317,8.978l-2.247,12.221h-7.645l2.8-14.793a24.485,24.485,0,0,0,.329-3.07c0-1.86-.594-3.306-2.543-3.306-2.686,0-5.552,3.749-6.5,9.092L94.834,76.039Zm91.027-.087,7.475-39.065H193.6l-7.471,39.065Zm-21.789,0,5.109-26.9h7.912l-5.139,26.9Zm-113.14,0,3.036-16c.77-4.076,1.093-8.592,1.392-10.9h6.879c-.182,1.8-.266,3.632-.506,5.492h.178c1.919-3.57,4.9-6.112,8.592-6.112a11.972,11.972,0,0,1,1.479.06L62.8,56.2a8.98,8.98,0,0,0-1.27-.057c-5.049,0-7.439,4.516-8.412,9.8L51.259,75.952ZM10.8,37.537a.77.77,0,0,1,.77-.8.627.627,0,0,1,.646.677.758.758,0,0,1-.8.8A.657.657,0,0,1,10.8,37.537Zm-2.506.62V38.13l.736-3.839c.174-.976.264-2.066.324-2.6h1.653c-.03.443-.057.856-.117,1.329h.027a2.431,2.431,0,0,1,2.066-1.446h.36l-.36,1.83h-.3c-1.209,0-1.77,1.093-2,2.363l-.444,2.39ZM0,37.98l1.682-8.621a16.387,16.387,0,0,1,2.453-.177,4.917,4.917,0,0,1,3.217.946A3.373,3.373,0,0,1,8.529,32.9,5.179,5.179,0,0,1,6.7,36.977a6.41,6.41,0,0,1-4.249,1.18A14.736,14.736,0,0,1,0,37.98Zm3.339-7.262L2.213,36.593a6.867,6.867,0,0,0,.826.03,3.213,3.213,0,0,0,2.507-1.036A3.89,3.89,0,0,0,6.466,32.9a2.052,2.052,0,0,0-2.33-2.246A5,5,0,0,0,3.339,30.718Zm140.889,6.2.008-.03v.03Zm78.485-14.791a1.447,1.447,0,1,1,1.447,1.416A1.443,1.443,0,0,1,222.713,22.126Z" transform="translate(0 0)"/>
  <g id="Group_1" data-name="Group 1" transform="translate(48.924 37.36)">
    <path id="Path_200" data-name="Path 200" class="cls-1" d="M17.948,12.71h1.831c2.008,0,1.978,1.3,1.565,3.13-.413,1.86-.945,3.13-2.953,3.13H16.56Zm-.177,5.521h.856c.856,0,1.3-.531,1.713-2.392.384-1.772.207-2.392-.679-2.392H18.8Z" transform="translate(-16.56 -12.562)"/>
    <path id="Path_201" data-name="Path 201" class="cls-1" d="M19.8,12.71h3.455l-.177.856H20.624l-.384,1.742h2.3l-.177.856h-2.3l-.443,2.008h2.51l-.177.856H18.41Z" transform="translate(-12.948 -12.562)"/>
    <path id="Path_202" data-name="Path 202" class="cls-1" d="M21.408,12.71h2.037c1.24,0,1.594.768,1.358,1.831A2.215,2.215,0,0,1,22.53,16.4h-.886L21.083,19H20.05Zm.384,2.923h.738a1.2,1.2,0,0,0,1.24-1.092c.148-.679-.059-1.092-.856-1.092h-.65Z" transform="translate(-9.745 -12.562)"/>
    <path id="Path_203" data-name="Path 203" class="cls-1" d="M23.868,12.71l-.974,4.517c-.177.8.059,1.152.679,1.152s1-.354,1.181-1.152l.974-4.517h1.033l-.945,4.429a2.206,2.206,0,0,1-2.392,1.978c-1.24,0-1.831-.531-1.535-1.978l.945-4.429Z" transform="translate(-6.3 -12.562)"/>
    <path id="Path_204" data-name="Path 204" class="cls-1" d="M25.3,13.556H23.76l.177-.856h4.045l-.177.856H26.3l-1.181,5.433H24.085Z" transform="translate(-2.501 -12.582)"/>
    <path id="Path_205" data-name="Path 205" class="cls-1" d="M27.889,12.71h1.3L29.513,19H28.45l-.059-1.535h-1.86L25.793,19H24.73Zm.5,3.927-.059-3.1H28.3l-1.417,3.1Z" transform="translate(-0.607 -12.562)"/>
    <path id="Path_206" data-name="Path 206" class="cls-1" d="M28.048,12.71h1.831c2.008,0,1.978,1.3,1.565,3.13-.413,1.86-.945,3.13-2.953,3.13H26.66Zm-.177,5.521h.856c.856,0,1.3-.531,1.712-2.392.384-1.772.207-2.392-.679-2.392H28.9Z" transform="translate(3.161 -12.562)"/>
    <path id="Path_207" data-name="Path 207" class="cls-1" d="M28.844,15.937c.472-2.244,1.358-3.277,2.834-3.277s1.89,1.033,1.417,3.277-1.358,3.277-2.834,3.277C28.756,19.215,28.342,18.181,28.844,15.937Zm3.189-.03c.443-2.126.059-2.48-.561-2.48s-1.152.384-1.624,2.48c-.472,2.155-.059,2.539.531,2.539C31,18.447,31.561,18.093,32.033,15.908Z" transform="translate(7.03 -12.66)"/>
    <path id="Path_208" data-name="Path 208" class="cls-1" d="M32.658,12.71h3.455l-.177.856H33.484L33.1,15.308h2.3l-.177.856h-2.3l-.443,2.008h2.51l-.177.856H31.27Z" transform="translate(12.163 -12.562)"/>
    <path id="Path_209" data-name="Path 209" class="cls-1" d="M34.054,17.128l-.03.148c-.148.768.089,1.152.8,1.152a1.134,1.134,0,0,0,1.152-.915.849.849,0,0,0-.679-1.122l-.65-.236a1.3,1.3,0,0,1-.945-1.713,2.231,2.231,0,0,1,2.362-1.772c1.653,0,1.594,1,1.447,1.653l-.03.148H36.445l.029-.118c.118-.561-.059-.915-.709-.915a1,1,0,0,0-1.033.915c-.118.531.089.8.738,1.063l.65.236a1.278,1.278,0,0,1,.945,1.653,2.318,2.318,0,0,1-2.539,1.89c-1.594,0-1.713-1.033-1.535-1.919l.03-.148Z" transform="translate(15.402 -12.64)"/>
    <path id="Path_210" data-name="Path 210" class="cls-1" d="M36.415,13.556H34.88l.177-.856H39.1l-.177.856H37.419l-1.181,5.433h-1Z" transform="translate(19.211 -12.582)"/>
    <path id="Path_211" data-name="Path 211" class="cls-1" d="M39.009,12.71h1.3L40.633,19H39.57l-.059-1.535h-1.86L36.913,19H35.85Zm.5,3.927-.059-3.1h-.03l-1.417,3.1Z" transform="translate(21.105 -12.562)"/>
    <path id="Path_212" data-name="Path 212" class="cls-1" d="M39.168,12.71H41c2.008,0,1.978,1.3,1.565,3.13-.413,1.86-.945,3.13-2.953,3.13H37.78Zm-.177,5.521h.856c.856,0,1.3-.531,1.713-2.392.384-1.772.207-2.392-.679-2.392h-.856Z" transform="translate(24.874 -12.562)"/>
    <path id="Path_213" data-name="Path 213" class="cls-1" d="M41.785,12.71l-.974,4.517c-.177.8.059,1.152.679,1.152s1-.354,1.181-1.152l.974-4.517h1.033l-.945,4.429a2.206,2.206,0,0,1-2.392,1.978c-1.24,0-1.86-.531-1.535-1.978l.945-4.429Z" transform="translate(28.664 -12.562)"/>
    <path id="Path_214" data-name="Path 214" class="cls-1" d="M44.4,12.71h1.3L46.023,19H44.96L44.9,17.464h-1.86L42.3,19H41.24Zm.5,3.927-.059-3.1h-.03l-1.417,3.1Z" transform="translate(31.63 -12.562)"/>
    <path id="Path_215" data-name="Path 215" class="cls-1" d="M44.479,12.71h1.033l-1.181,5.433h2.48L46.634,19H43.15Z" transform="translate(35.359 -12.562)"/>
  </g>
  <g id="Path_218" data-name="Path 218" class="cls-2" transform="translate(23.783 54.692)">
    <path class="cls-3" d="M29.551,66.345l1.86-8.533H13.43l1.624-7.47L36.726,28.02H47.208l-4.695,22.2h5.049L46,57.812H40.889l-1.8,8.533ZM22.967,50.253H33.153l2.864-13.08H35.9Z"/>
    <path class="cls-4" d="M 39.08799362182617 66.34458160400391 L 40.88906097412109 57.81159973144531 L 45.99705123901367 57.81159973144531 L 47.5619010925293 50.22348022460938 L 42.51299285888672 50.22348022460938 L 47.20762252807617 28.01999855041504 L 36.72592163085938 28.01999855041504 L 15.05392265319824 50.34156799316406 L 13.43000221252441 57.81159973144531 L 31.41126251220703 57.81159973144531 L 29.55113220214844 66.34458160400391 L 39.08799362182617 66.34458160400391 M 35.89919281005859 37.17301940917969 L 36.01730346679688 37.17301940917969 L 33.15329360961914 50.25297927856445 L 22.96685218811035 50.25297927856445 L 35.89919281005859 37.17301940917969 M 40.3044319152832 67.84458160400391 L 39.08799362182617 67.84458160400391 L 29.55113220214844 67.84458160400391 L 27.68891334533691 67.84458160400391 L 28.08555221557617 66.02508544921875 L 29.54904556274414 59.31159973144531 L 13.43000221252441 59.31159973144531 L 11.56888294219971 59.31159973144531 L 11.96424293518066 57.49295806884766 L 13.58816242218018 50.02293014526367 L 13.67919254302979 49.60416030883789 L 13.97772216796875 49.29668045043945 L 35.64972305297852 26.9751091003418 L 36.09159088134766 26.51999855041504 L 36.72592163085938 26.51999855041504 L 47.20762252807617 26.51999855041504 L 49.05794143676758 26.51999855041504 L 48.6751708984375 28.33028984069824 L 44.36330413818359 48.72348022460938 L 47.5619010925293 48.72348022460938 L 49.40280151367188 48.72348022460938 L 49.0309944152832 50.52643966674805 L 47.46614074707031 58.11455917358398 L 47.21928405761719 59.31159973144531 L 45.99705123901367 59.31159973144531 L 42.10549926757812 59.31159973144531 L 40.5556526184082 66.65435791015625 L 40.3044319152832 67.84458160400391 Z M 26.55930137634277 48.75297927856445 L 31.94619369506836 48.75297927856445 L 33.47853469848633 41.75476455688477 L 26.55930137634277 48.75297927856445 Z"/>
  </g>
  <g id="Path_220" data-name="Path 220" class="cls-2" transform="translate(49.727 54.36)">
    <path class="cls-3" d="M58.824,42.642c0,12.224-6.437,24.536-19.428,24.536-8.858,0-13.316-6.171-13.316-14.409,0-10.777,6.112-24.92,18.749-24.92C54.691,27.85,58.824,33.4,58.824,42.642ZM35.263,52.888c0,3.838,1.506,6.7,5.049,6.7,7.559,0,9.36-12.991,9.36-17.8,0-3.75-1.565-6.319-4.99-6.319C37.123,35.438,35.263,48.37,35.263,52.888Z"/>
    <path class="cls-4" d="M 44.82891845703125 27.84999847412109 C 32.19186019897461 27.84999847412109 26.07999801635742 41.99288558959961 26.07999801635742 52.76985549926758 C 26.07999801635742 61.00758361816406 30.53841781616211 67.17847442626953 39.39617919921875 67.17847442626953 C 52.38755035400391 67.17847442626953 58.82419967651367 54.86616516113281 58.82419967651367 42.6424560546875 C 58.82419967651367 33.40085601806641 54.69055938720703 27.8499755859375 44.82891845703125 27.84999847412109 M 40.31148910522461 59.59033584594727 C 36.76836776733398 59.59033584594727 35.26255798339844 56.72630310058594 35.26255798339844 52.88793563842773 C 35.26255798339844 48.37544631958008 37.11764526367188 35.46652984619141 44.65546035766602 35.46763610839844 C 44.66374969482422 35.46763610839844 44.67301559448242 35.4676513671875 44.68132019042969 35.46768569946289 C 48.10630798339844 35.46768569946289 49.67116928100586 38.03643417358398 49.67116928100586 41.78622436523438 C 49.67116928100586 46.59892654418945 47.87010955810547 59.59033584594727 40.31148910522461 59.59033584594727 M 44.82891845703125 26.34999847412109 C 50.04803848266602 26.34998321533203 54.02338790893555 27.84134674072266 56.64453125 30.78265380859375 C 59.086181640625 33.52255630493164 60.32419967651367 37.51276397705078 60.32419967651367 42.6424560546875 C 60.32419967651367 45.88760375976562 59.89875030517578 49.04886627197266 59.05967712402344 52.03842544555664 C 58.18059921264648 55.17051315307617 56.88527679443359 57.968994140625 55.20968627929688 60.35613632202148 C 53.39466857910156 62.94192504882812 51.1839599609375 64.96731567382812 48.63897705078125 66.37604522705078 C 45.87891006469727 67.90382385253906 42.76918792724609 68.67847442626953 39.39617919921875 68.67847442626953 C 34.74349975585938 68.67847442626953 30.90002059936523 67.07582092285156 28.28122711181641 64.04378509521484 C 25.85986709594727 61.24031448364258 24.57999801635742 57.34185409545898 24.57999801635742 52.76985549926758 C 24.57999801635742 49.89801406860352 24.99657821655273 46.84367370605469 25.78470993041992 43.93704605102539 C 26.63565063476562 40.79874420166016 27.86886978149414 37.94772338867188 29.45010757446289 35.46318435668945 C 31.2139778137207 32.69168472290039 33.33804702758789 30.50450134277344 35.76329040527344 28.96242523193359 C 38.48954772949219 27.22894287109375 41.53966903686523 26.34999847412109 44.82891845703125 26.34999847412109 Z M 40.31148910522461 58.09033584594727 C 41.65946960449219 58.09033584594727 42.82563018798828 57.55398559570312 43.87661743164062 56.45065689086914 C 44.86137771606445 55.41683578491211 45.71559906005859 53.91334533691406 46.41556930541992 51.98195648193359 C 47.80141067504883 48.15802383422852 48.17116928100586 43.77388381958008 48.17116928100586 41.78622436523438 C 48.17116928100586 40.19599533081055 47.85381698608398 38.92517471313477 47.2534294128418 38.11112594604492 C 46.68595886230469 37.34170532226562 45.84460830688477 36.96768569946289 44.68132019042969 36.96768569946289 L 44.67860794067383 36.96768569946289 L 44.67589950561523 36.96767425537109 L 44.65546035766602 36.96763610839844 C 44.65521240234375 36.96763610839844 44.65494918823242 36.96763610839844 44.65470123291016 36.96763610839844 C 43.30994415283203 36.96762847900391 42.14332580566406 37.50006484985352 41.08795928955078 38.5953254699707 C 40.10286712646484 39.61765670776367 39.24517822265625 41.10187530517578 38.53873062133789 43.00676345825195 C 37.13665008544922 46.787353515625 36.76255798339844 50.99672317504883 36.76255798339844 52.88793563842773 C 36.76255798339844 54.5762939453125 37.08524703979492 55.93967437744141 37.69575881958008 56.83067321777344 C 38.28458786010742 57.6900749206543 39.11575698852539 58.09033584594727 40.31148910522461 58.09033584594727 Z"/>
  </g>
  <g id="Path_222" data-name="Path 222" class="cls-2" transform="translate(73.923 54.36)">
    <path class="cls-3" d="M70.464,42.642c0,12.224-6.437,24.536-19.428,24.536-8.858,0-13.316-6.171-13.316-14.409,0-10.777,6.112-24.92,18.749-24.92C66.331,27.85,70.464,33.4,70.464,42.642ZM46.9,52.888c0,3.838,1.506,6.7,5.049,6.7,7.559,0,9.36-12.991,9.36-17.8,0-3.75-1.565-6.319-4.99-6.319C48.763,35.438,46.9,48.37,46.9,52.888Z"/>
    <path class="cls-4" d="M 56.46891021728516 27.84999847412109 C 43.83186340332031 27.84999847412109 37.72000122070312 41.99288558959961 37.72000122070312 52.76985549926758 C 37.72000122070312 61.00758361816406 42.17841339111328 67.17847442626953 51.03617095947266 67.17847442626953 C 64.02754211425781 67.17847442626953 70.46421813964844 54.86616516113281 70.46421813964844 42.6424560546875 C 70.46421813964844 33.40085601806641 66.33056640625 27.8499755859375 56.46891021728516 27.84999847412109 M 51.95143890380859 59.59033584594727 C 48.40835952758789 59.59033584594727 46.90254974365234 56.72630310058594 46.90254974365234 52.88793563842773 C 46.90254974365234 48.37544631958008 48.75762939453125 35.46652984619141 56.29544067382812 35.46763610839844 C 56.30373001098633 35.46763610839844 56.31299591064453 35.4676513671875 56.3213005065918 35.46768569946289 C 59.74629974365234 35.46768569946289 61.31118011474609 38.03643417358398 61.31118011474609 41.78622436523438 C 61.31118011474609 46.59892654418945 59.51007080078125 59.59033584594727 51.95143890380859 59.59033584594727 M 56.46891021728516 26.34999847412109 C 61.68803787231445 26.34998321533203 65.66339874267578 27.84134674072266 68.28453826904297 30.78265380859375 C 70.7261962890625 33.52255630493164 71.96421813964844 37.51276397705078 71.96421813964844 42.6424560546875 C 71.96421813964844 45.88759613037109 71.53877258300781 49.04886627197266 70.69969177246094 52.03842544555664 C 69.82061004638672 55.17051315307617 68.52529144287109 57.968994140625 66.84970092773438 60.35613632202148 C 65.03466796875 62.94192504882812 62.82395935058594 64.96731567382812 60.27896881103516 66.37604522705078 C 57.5189094543457 67.90382385253906 54.4091796875 68.67847442626953 51.03617095947266 68.67847442626953 C 46.38349151611328 68.67847442626953 42.54000854492188 67.07582092285156 39.92122650146484 64.04378509521484 C 37.49986267089844 61.24031448364258 36.22000122070312 57.34185409545898 36.22000122070312 52.76985549926758 C 36.22000122070312 49.89801406860352 36.63658142089844 46.84367370605469 37.42471313476562 43.93704605102539 C 38.27565002441406 40.79874420166016 39.50887298583984 37.94772338867188 41.09011077880859 35.46318435668945 C 42.85398101806641 32.69168472290039 44.9780387878418 30.50450134277344 47.40328979492188 28.96242523193359 C 50.12953948974609 27.22894287109375 53.17966079711914 26.34999847412109 56.46891021728516 26.34999847412109 Z M 51.95143890380859 58.09033584594727 C 53.29941940307617 58.09033584594727 54.46559143066406 57.55398559570312 55.51657867431641 56.45064544677734 C 56.50135040283203 55.41682434082031 57.3555793762207 53.91334533691406 58.05556106567383 51.9819450378418 C 59.44142150878906 48.15800476074219 59.81118011474609 43.77387619018555 59.81118011474609 41.78622436523438 C 59.81118011474609 40.19600677490234 59.49382781982422 38.92517471313477 58.89344024658203 38.11113357543945 C 58.32595062255859 37.34170532226562 57.48460006713867 36.96768569946289 56.3213005065918 36.96768569946289 L 56.31858825683594 36.96768569946289 L 56.31587982177734 36.96767425537109 L 56.29544067382812 36.96763610839844 C 56.29519271850586 36.96763610839844 56.29492950439453 36.96763610839844 56.29468154907227 36.96763610839844 C 54.94992446899414 36.96762847900391 53.78330612182617 37.50006484985352 52.72793960571289 38.5953254699707 C 51.74285125732422 39.61765670776367 50.88516998291016 41.10187530517578 50.1787109375 43.00676345825195 C 48.77663803100586 46.787353515625 48.40254974365234 50.9967155456543 48.40254974365234 52.88793563842773 C 48.40254974365234 54.5762939453125 48.72523880004883 55.93967437744141 49.33573913574219 56.83068466186523 C 49.92457962036133 57.6900749206543 50.75572967529297 58.09033584594727 51.95143890380859 58.09033584594727 Z"/>
  </g>
  <g id="Path_224" data-name="Path 224" class="cls-2" transform="translate(98.12 54.36)">
    <path class="cls-3" d="M82.1,42.642c0,12.224-6.437,24.536-19.428,24.536-8.858,0-13.316-6.171-13.316-14.409,0-10.777,6.112-24.92,18.749-24.92C77.971,27.85,82.1,33.4,82.1,42.642ZM58.543,52.888c0,3.838,1.506,6.7,5.049,6.7,7.559,0,9.36-12.991,9.36-17.8,0-3.75-1.565-6.319-4.99-6.319C60.373,35.438,58.543,48.37,58.543,52.888Z"/>
    <path class="cls-4" d="M 68.10893249511719 27.84999847412109 C 55.47187805175781 27.84999847412109 49.36000061035156 41.99288558959961 49.36000061035156 52.76985549926758 C 49.36000061035156 61.00758361816406 53.81841278076172 67.17847442626953 62.67618560791016 67.17847442626953 C 75.6676025390625 67.17847442626953 82.10421752929688 54.86616516113281 82.10421752929688 42.6424560546875 C 82.10421752929688 33.40085601806641 77.97058868408203 27.8499755859375 68.10893249511719 27.84999847412109 M 63.59146118164062 59.59033584594727 C 60.04838562011719 59.59033584594727 58.54257202148438 56.72630310058594 58.54257202148438 52.88793563842773 C 58.54257202148438 48.37544631958008 60.36817169189453 35.46652984619141 67.93534851074219 35.46763610839844 C 67.94367218017578 35.46763610839844 67.95297241210938 35.4676513671875 67.9613037109375 35.46768569946289 C 71.38627624511719 35.46768569946289 72.95117950439453 38.03643417358398 72.95117950439453 41.78622436523438 C 72.95117950439453 46.59892654418945 71.15010070800781 59.59033584594727 63.59146118164062 59.59033584594727 M 68.10893249511719 26.34999847412109 C 73.32806396484375 26.34998321533203 77.30340576171875 27.84134674072266 79.92454528808594 30.78265380859375 C 82.36619567871094 33.52255630493164 83.60421752929688 37.51276397705078 83.60421752929688 42.6424560546875 C 83.60421752929688 45.88760375976562 83.17877197265625 49.04886627197266 82.33969879150391 52.03842544555664 C 81.46063232421875 55.17051315307617 80.16531372070312 57.968994140625 78.48971557617188 60.35613632202148 C 76.67469787597656 62.94192504882812 74.4639892578125 64.96731567382812 71.91899871826172 66.37604522705078 C 69.158935546875 67.90382385253906 66.04920959472656 68.67847442626953 62.67618560791016 68.67847442626953 C 58.02349853515625 68.67847442626953 54.18000793457031 67.07582092285156 51.56122589111328 64.04378509521484 C 49.13986206054688 61.24031448364258 47.86000061035156 57.34185409545898 47.86000061035156 52.76985549926758 C 47.86000061035156 49.89801406860352 48.27658081054688 46.84367370605469 49.06471252441406 43.93704605102539 C 49.91565704345703 40.79874420166016 51.14888000488281 37.94772338867188 52.73011779785156 35.46318435668945 C 54.49398803710938 32.69168472290039 56.61805725097656 30.50450134277344 59.04331207275391 28.96242523193359 C 61.76956176757812 27.22894287109375 64.81967926025391 26.34999847412109 68.10893249511719 26.34999847412109 Z M 63.59146118164062 58.09033584594727 C 64.93944549560547 58.09033584594727 66.10562133789062 57.55398559570312 67.15660095214844 56.45064544677734 C 68.14137268066406 55.41683578491211 68.99559783935547 53.91334533691406 69.69557189941406 51.9819450378418 C 71.0814208984375 48.15801620483398 71.45117950439453 43.77387619018555 71.45117950439453 41.78622436523438 C 71.45117950439453 40.19600677490234 71.13382720947266 38.92518615722656 70.53343200683594 38.11113357543945 C 69.96595001220703 37.34170532226562 69.12460327148438 36.96768569946289 67.9613037109375 36.96768569946289 L 67.95861053466797 36.96768569946289 L 67.95590972900391 36.96767425537109 L 67.93534851074219 36.96763610839844 C 67.93510437011719 36.96763610839844 67.93482971191406 36.96763610839844 67.93458557128906 36.96763610839844 C 66.58267211914062 36.96762847900391 65.41182708740234 37.5002555847168 64.35489654541016 38.59592437744141 C 63.36937713623047 39.6175651550293 62.51251983642578 41.1011848449707 61.80810546875 43.00556564331055 C 60.41442108154297 46.77345657348633 60.04257202148438 50.99029541015625 60.04257202148438 52.88793563842773 C 60.04257202148438 54.5762939453125 60.36525726318359 55.93967437744141 60.97576904296875 56.83068466186523 C 61.56459808349609 57.6900749206543 62.39575958251953 58.09033584594727 63.59146118164062 58.09033584594727 Z"/>
  </g>
  <g id="Path_226" data-name="Path 226" class="cls-2" transform="translate(122.316 54.36)">
    <path class="cls-3" d="M93.744,42.642c0,12.224-6.437,24.536-19.428,24.536C65.458,67.178,61,61.008,61,52.77c0-10.777,6.112-24.92,18.749-24.92C89.611,27.85,93.744,33.4,93.744,42.642ZM70.183,52.888c0,3.838,1.506,6.7,5.049,6.7,7.559,0,9.36-12.991,9.36-17.8,0-3.75-1.565-6.319-4.99-6.319C72.013,35.438,70.183,48.37,70.183,52.888Z"/>
    <path class="cls-4" d="M 79.74896240234375 27.84999847412109 C 67.11189270019531 27.84999847412109 60.99998474121094 41.99288558959961 60.99998474121094 52.76985549926758 C 60.99998474121094 61.00758361816406 65.45843505859375 67.17847442626953 74.31616973876953 67.17847442626953 C 87.30760192871094 67.17847442626953 93.74420166015625 54.86616516113281 93.74420166015625 42.6424560546875 C 93.74420166015625 33.40085601806641 89.61062622070312 27.8499755859375 79.74896240234375 27.84999847412109 M 75.23152160644531 59.59033584594727 C 71.68840026855469 59.59033584594727 70.18255615234375 56.72630310058594 70.18255615234375 52.88793563842773 C 70.18255615234375 48.37544631958008 72.00820922851562 35.46652984619141 79.57537078857422 35.46763610839844 C 79.58369445800781 35.46763610839844 79.59299468994141 35.4676513671875 79.60133361816406 35.46768569946289 C 83.02635192871094 35.46768569946289 84.59120178222656 38.03643417358398 84.59120178222656 41.78622436523438 C 84.59120178222656 46.59892654418945 82.79011535644531 59.59033584594727 75.23152160644531 59.59033584594727 M 79.74896240234375 26.34999847412109 C 84.96809387207031 26.34998321533203 88.94343566894531 27.84134674072266 91.56455993652344 30.78266143798828 C 94.00619506835938 33.52254486083984 95.24420166015625 37.51275634765625 95.24420166015625 42.6424560546875 C 95.24420166015625 45.88760375976562 94.81876373291016 49.04886627197266 93.97969055175781 52.03842544555664 C 93.10061645507812 55.17051315307617 91.8052978515625 57.968994140625 90.12971496582031 60.35613632202148 C 88.31468963623047 62.94192504882812 86.10398101806641 64.96731567382812 83.55899047851562 66.37604522705078 C 80.79893493652344 67.90382385253906 77.68919372558594 68.67847442626953 74.31616973876953 68.67847442626953 C 69.66350555419922 68.67847442626953 65.82002258300781 67.07582092285156 63.20123291015625 64.04378509521484 C 60.77985382080078 61.24031448364258 59.49998474121094 57.34185409545898 59.49998474121094 52.76985549926758 C 59.49998474121094 49.89801406860352 59.91656494140625 46.84367370605469 60.70470428466797 43.93704605102539 C 61.55564117431641 40.79874420166016 62.78887176513672 37.94772338867188 64.37012481689453 35.46318435668945 C 66.13400268554688 32.69168472290039 68.25807189941406 30.50450134277344 70.68332672119141 28.96242523193359 C 73.40958404541016 27.22894287109375 76.459716796875 26.34999847412109 79.74896240234375 26.34999847412109 Z M 75.23152160644531 58.09033584594727 C 76.57949066162109 58.09033584594727 77.74565124511719 57.55399322509766 78.796630859375 56.45065689086914 C 79.78139495849609 55.41683578491211 80.6356201171875 53.91334533691406 81.33559417724609 51.9819450378418 C 82.72144317626953 48.15801620483398 83.09120178222656 43.77387619018555 83.09120178222656 41.78622436523438 C 83.09120178222656 40.19599533081055 82.77384948730469 38.92516326904297 82.17346954345703 38.11112594604492 C 81.60599517822266 37.34170532226562 80.76464080810547 36.96768569946289 79.60133361816406 36.96768569946289 L 79.5986328125 36.96768569946289 L 79.59593200683594 36.96767425537109 L 79.57537078857422 36.96763610839844 C 79.57512664794922 36.96763610839844 79.57485961914062 36.96763610839844 79.57461547851562 36.96763610839844 C 78.22270202636719 36.96762847900391 77.05184936523438 37.5002555847168 75.99492645263672 38.59592437744141 C 75.0093994140625 39.61757659912109 74.15253448486328 41.1011848449707 73.4481201171875 43.00556564331055 C 72.05440521240234 46.77347564697266 71.68255615234375 50.99030685424805 71.68255615234375 52.88793563842773 C 71.68255615234375 54.57628631591797 72.00525665283203 55.93966674804688 72.61576080322266 56.83067321777344 C 73.20461273193359 57.6900634765625 74.03578948974609 58.09033584594727 75.23152160644531 58.09033584594727 Z"/>
  </g>
  <path id="Union_7" data-name="Union 7" class="cls-1" d="M11.071,16.594l.767-4.163a8.274,8.274,0,0,0,2.806.533c1.476,0,2.186-.443,2.186-1.36,0-1.429-2.9-1.646-3.942-3.793a7.519,7.519,0,0,1-6.778,3.763c-.147,0-.413,0-.737-.03l-.943,4.992H0L3.1.3C4.605.237,6.228.177,8.178.177c2.493,0,4.461.849,5.2,2.686C14.433,1.155,16.468,0,19.573,0a19.373,19.373,0,0,1,3.043.237l-.8,3.9a7.768,7.768,0,0,0-2.3-.443c-1.595,0-2.126.56-2.126,1.327,0,1.641,3.822,1.79,4.267,5.1l1.875-9.8c1.653-.09,4.426-.15,6.169-.15,3.072,0,5.225.916,5.225,3.516a4.537,4.537,0,0,1-2.8,4.222,2.915,2.915,0,0,1,1.683,2.863c0,3.16-3.072,5.816-7.619,5.816-1.18,0-3.042-.057-5.759-.057l.6-3.138a7.312,7.312,0,0,1-6.623,3.491A18,18,0,0,1,11.071,16.594ZM26.1,9.951l-.53,2.953c.237.03.736.06.973.06,1.654,0,2.51-.946,2.51-1.89,0-.769-.561-1.153-1.507-1.153C27.045,9.921,26.395,9.921,26.1,9.951ZM6.879,3.869,6.109,7.825a1.351,1.351,0,0,0,.3.03A2.647,2.647,0,0,0,9.065,5.2c0-.739-.446-1.36-1.537-1.36A3.88,3.88,0,0,0,6.879,3.869Zm20.4,0-.534,2.746a5.842,5.842,0,0,0,.74.03c1.594,0,2.6-.77,2.6-1.86,0-.68-.529-.976-1.5-.976C28.047,3.809,27.694,3.839,27.281,3.869Z" transform="translate(4.282 80.762)"/>
</svg>
