<svg id="Logo_Roberta" data-name="Logo Roberta" xmlns="http://www.w3.org/2000/svg" viewBox="0 0 286.128 131.331">
  <defs>
    <style>
      .cls-1 {
        fill: rgba(0,0,0,0.4);
      }
    </style>
  </defs>
  <g id="Group_146" data-name="Group 146" transform="translate(0 80.433)">
    <path id="Path_420" data-name="Path 420" class="cls-1" d="M11.65,19.89a10.214,10.214,0,0,1,2.954.4,6.782,6.782,0,0,1,2.428,1.173,5.8,5.8,0,0,1,1.659,2.023,6.755,6.755,0,0,1,.607,2.954,7.217,7.217,0,0,1-1.214,4.167,5.543,5.543,0,0,1-3.641,2.266v.081a5.414,5.414,0,0,1,2.023.647A4.79,4.79,0,0,1,17.8,34.82a5.4,5.4,0,0,1,.728,1.7,11.017,11.017,0,0,1,.283,2.1c.04.4.04.931.081,1.537s.081,1.214.121,1.861a11.072,11.072,0,0,0,.324,1.74,3.863,3.863,0,0,0,.607,1.295h-2.63a4.138,4.138,0,0,1-.324-.85,8.187,8.187,0,0,1-.162-1.052,9.961,9.961,0,0,1-.081-1.052c-.04-.364-.04-.647-.081-.931q-.061-1.335-.243-2.67a6.921,6.921,0,0,0-.688-2.347A4.139,4.139,0,0,0,14.28,34.5a4.685,4.685,0,0,0-2.67-.566H2.547V45.056H.16V19.971H11.65Zm-.162,11.936a6.884,6.884,0,0,0,2.063-.324,5.656,5.656,0,0,0,1.74-.971,4.45,4.45,0,0,0,1.173-1.537,4.829,4.829,0,0,0,.445-2.063,4.92,4.92,0,0,0-1.335-3.641,5.584,5.584,0,0,0-4.086-1.335H2.547v9.872h8.942Z" transform="translate(0.487 -19.85)"/>
    <path id="Path_421" data-name="Path 421" class="cls-1" d="M18.059,22.262a8.015,8.015,0,0,1,2.67,2.063,8.481,8.481,0,0,1,1.659,3.034,12.361,12.361,0,0,1,.566,3.722,12.561,12.561,0,0,1-.566,3.722,8.339,8.339,0,0,1-4.329,5.1,8.8,8.8,0,0,1-3.682.769A8.331,8.331,0,0,1,10.7,39.9a7.1,7.1,0,0,1-2.67-2.063A8.838,8.838,0,0,1,6.366,34.8,12.362,12.362,0,0,1,5.8,31.082a12.562,12.562,0,0,1,.566-3.722,8.339,8.339,0,0,1,4.329-5.1,8.211,8.211,0,0,1,3.682-.769A7.807,7.807,0,0,1,18.059,22.262ZM11.586,24A5.877,5.877,0,0,0,9.6,25.741a8.265,8.265,0,0,0-1.214,2.468,10.115,10.115,0,0,0,0,5.664A8.264,8.264,0,0,0,9.6,36.341a5.877,5.877,0,0,0,1.983,1.74,5.707,5.707,0,0,0,2.792.688,5.3,5.3,0,0,0,2.792-.688,5.877,5.877,0,0,0,1.983-1.74,8.264,8.264,0,0,0,1.214-2.468,10.115,10.115,0,0,0,0-5.664,8.265,8.265,0,0,0-1.214-2.468A5.877,5.877,0,0,0,17.169,24a5.707,5.707,0,0,0-2.792-.688A5.707,5.707,0,0,0,11.586,24Z" transform="translate(17.666 -14.979)"/>
    <path id="Path_422" data-name="Path 422" class="cls-1" d="M13.225,19.89v10.4h.081a5.767,5.767,0,0,1,1.011-1.74,7.467,7.467,0,0,1,1.5-1.254,7.244,7.244,0,0,1,1.821-.769,8.062,8.062,0,0,1,1.983-.243,7.746,7.746,0,0,1,3.6.769,7.57,7.57,0,0,1,2.549,2.1,8.719,8.719,0,0,1,1.5,3.075,14.2,14.2,0,0,1,0,7.364,9.467,9.467,0,0,1-1.5,3.075,7.016,7.016,0,0,1-2.549,2.063,8.286,8.286,0,0,1-3.6.769,7.714,7.714,0,0,1-3.965-1.011,5.888,5.888,0,0,1-2.508-2.913h-.081v3.439H11.04V19.93h2.185ZM25.16,33.161a7.98,7.98,0,0,0-1.052-2.468,5.6,5.6,0,0,0-1.861-1.78,5.287,5.287,0,0,0-2.711-.688A5.725,5.725,0,0,0,14.6,30.693a8.043,8.043,0,0,0-1.092,2.468,10.962,10.962,0,0,0-.324,2.792,13.139,13.139,0,0,0,.324,2.792A6.5,6.5,0,0,0,14.6,41.212a5.621,5.621,0,0,0,1.983,1.78,6.014,6.014,0,0,0,2.954.688,5.288,5.288,0,0,0,2.711-.688,5.6,5.6,0,0,0,1.861-1.78,7.12,7.12,0,0,0,1.052-2.468,10.963,10.963,0,0,0,.324-2.792A9.111,9.111,0,0,0,25.16,33.161Z" transform="translate(33.627 -19.85)"/>
    <path id="Path_423" data-name="Path 423" class="cls-1" d="M18.509,34.123A6.734,6.734,0,0,0,19.6,36.43a5.787,5.787,0,0,0,1.861,1.7,5.287,5.287,0,0,0,2.711.688,5.4,5.4,0,0,0,3.8-1.254,6.734,6.734,0,0,0,1.9-3.358H32.1a8.961,8.961,0,0,1-2.589,4.774,7.7,7.7,0,0,1-5.341,1.7,8.27,8.27,0,0,1-3.722-.769A6.406,6.406,0,0,1,17.9,37.846a9.4,9.4,0,0,1-1.457-3.075,13.71,13.71,0,0,1-.486-3.682,12.964,12.964,0,0,1,.486-3.52A9.8,9.8,0,0,1,17.9,24.494a7.472,7.472,0,0,1,2.549-2.185,7.662,7.662,0,0,1,3.722-.809,7.146,7.146,0,0,1,3.722.89A7.618,7.618,0,0,1,30.4,24.7a9.21,9.21,0,0,1,1.376,3.277,14.5,14.5,0,0,1,.364,3.763H18.185A11.139,11.139,0,0,0,18.509,34.123Zm10.964-6.8a7.283,7.283,0,0,0-1.133-2.063,5.64,5.64,0,0,0-1.78-1.457,5.058,5.058,0,0,0-2.387-.526,5.115,5.115,0,0,0-2.428.526,5.64,5.64,0,0,0-1.78,1.457,7.387,7.387,0,0,0-1.173,2.063,9.77,9.77,0,0,0-.566,2.387H29.959A8.357,8.357,0,0,0,29.473,27.326Z" transform="translate(48.613 -14.946)"/>
    <path id="Path_424" data-name="Path 424" class="cls-1" d="M22.9,21.811v4.248h.081a6.6,6.6,0,0,1,2.63-3.4,6.7,6.7,0,0,1,4.248-1.092v2.225a6.677,6.677,0,0,0-2.751.4,6.853,6.853,0,0,0-2.144,1.335,6.122,6.122,0,0,0-1.376,2.1,7.128,7.128,0,0,0-.486,2.67v9.67H20.88V21.852H22.9Z" transform="translate(63.599 -14.771)"/>
    <path id="Path_425" data-name="Path 425" class="cls-1" d="M32.352,25.762v1.861H28.671V39.842a3.9,3.9,0,0,0,.283,1.7c.2.4.688.647,1.5.688a15,15,0,0,0,1.9-.121v1.861a7.8,7.8,0,0,0-.971.04,7.8,7.8,0,0,1-.971.04,4.367,4.367,0,0,1-3.075-.85c-.607-.566-.85-1.618-.85-3.2V27.583H23.33V25.722h3.156V20.26h2.225v5.462h3.641Z" transform="translate(71.062 -18.723)"/>
    <path id="Path_426" data-name="Path 426" class="cls-1" d="M27.8,24.838a5.078,5.078,0,0,1,1.537-1.9A6.934,6.934,0,0,1,31.6,21.844a10.526,10.526,0,0,1,2.873-.364,11.949,11.949,0,0,1,2.387.243,6.267,6.267,0,0,1,2.144.85,4.446,4.446,0,0,1,1.537,1.78,6.281,6.281,0,0,1,.607,2.954v9.629a1.168,1.168,0,0,0,1.295,1.335,1.89,1.89,0,0,0,.688-.121V40.01c-.243.04-.486.081-.688.121a4.174,4.174,0,0,1-.769.04,3.028,3.028,0,0,1-1.335-.243,2.13,2.13,0,0,1-.809-.647,2.025,2.025,0,0,1-.364-1.011,12.336,12.336,0,0,1-.081-1.295H39a17.844,17.844,0,0,1-1.214,1.578,5.276,5.276,0,0,1-1.376,1.133,5.587,5.587,0,0,1-1.74.688,9.6,9.6,0,0,1-2.306.243,9.191,9.191,0,0,1-2.387-.283A6.17,6.17,0,0,1,28.04,39.4a4.4,4.4,0,0,1-1.295-1.659,5.464,5.464,0,0,1-.486-2.387,4.585,4.585,0,0,1,.85-2.954,5.054,5.054,0,0,1,2.225-1.618,14.032,14.032,0,0,1,3.115-.809c1.173-.162,2.347-.283,3.52-.445.486-.04.89-.121,1.214-.162a2.563,2.563,0,0,0,.89-.364,1.426,1.426,0,0,0,.526-.728,3.289,3.289,0,0,0,.2-1.214,4.118,4.118,0,0,0-.364-1.861,3.056,3.056,0,0,0-1.011-1.133,3.72,3.72,0,0,0-1.5-.566,8.858,8.858,0,0,0-1.861-.162,5.43,5.43,0,0,0-3.439,1.011,3.955,3.955,0,0,0-1.416,3.237H26.988A11.662,11.662,0,0,1,27.8,24.838ZM38.883,30.26a1.274,1.274,0,0,1-.809.566,7.479,7.479,0,0,1-1.052.243c-.931.162-1.9.324-2.913.445a15.956,15.956,0,0,0-2.711.566,5.116,5.116,0,0,0-2.023,1.092,2.68,2.68,0,0,0-.809,2.063,3.538,3.538,0,0,0,.324,1.5,4.092,4.092,0,0,0,.89,1.133,3.7,3.7,0,0,0,1.295.728,4.828,4.828,0,0,0,1.5.243,6.953,6.953,0,0,0,2.428-.4A5.825,5.825,0,0,0,37.022,37.3a6,6,0,0,0,1.376-1.78,5.6,5.6,0,0,0,.526-2.387V30.26Z" transform="translate(79.986 -15.006)"/>
    <path id="Path_427" data-name="Path 427" class="cls-1" d="M44.541,19.92a14.854,14.854,0,0,1,3.034.283,7.164,7.164,0,0,1,2.549,1.011,5.724,5.724,0,0,1,1.78,1.9,5.905,5.905,0,0,1,.688,2.954,6.053,6.053,0,0,1-.324,1.9,6.816,6.816,0,0,1-.89,1.7A5.954,5.954,0,0,1,50,30.966a4.607,4.607,0,0,1-1.78.728v.081a6.03,6.03,0,0,1,3.884,1.983,6.125,6.125,0,0,1,1.457,4.127,8.17,8.17,0,0,1-.121,1.335,7.877,7.877,0,0,1-.4,1.537,6.441,6.441,0,0,1-.931,1.578,4.859,4.859,0,0,1-1.618,1.335,9.242,9.242,0,0,1-2.468.931,14.583,14.583,0,0,1-3.479.364H33.9V19.88H44.541Zm0,11a9.21,9.21,0,0,0,2.508-.324,4.476,4.476,0,0,0,1.74-.931,4.039,4.039,0,0,0,1.052-1.335,3.826,3.826,0,0,0,.364-1.659c0-3.156-1.9-4.693-5.664-4.693H36.328v8.982h8.213Zm0,12.057a12.975,12.975,0,0,0,2.549-.243,6.518,6.518,0,0,0,2.1-.809,4.34,4.34,0,0,0,1.457-1.618,5.127,5.127,0,0,0,.526-2.508,4.181,4.181,0,0,0-1.7-3.641,8.414,8.414,0,0,0-4.9-1.214H36.368V42.982Z" transform="translate(103.257 -19.88)"/>
    <path id="Path_428" data-name="Path 428" class="cls-1" d="M41.037,24.838a5.078,5.078,0,0,1,1.537-1.9,6.934,6.934,0,0,1,2.266-1.092,10.526,10.526,0,0,1,2.873-.364,11.949,11.949,0,0,1,2.387.243,6.267,6.267,0,0,1,2.144.85,4.446,4.446,0,0,1,1.537,1.78,6.281,6.281,0,0,1,.607,2.954v9.629a1.168,1.168,0,0,0,1.295,1.335,1.89,1.89,0,0,0,.688-.121V40.01c-.243.04-.485.081-.688.121a4.175,4.175,0,0,1-.769.04,3.028,3.028,0,0,1-1.335-.243,2.13,2.13,0,0,1-.809-.647,2.025,2.025,0,0,1-.364-1.011,12.338,12.338,0,0,1-.081-1.295h-.081a17.837,17.837,0,0,1-1.214,1.578,5.276,5.276,0,0,1-1.376,1.133,5.587,5.587,0,0,1-1.74.688,9.6,9.6,0,0,1-2.306.243,9.191,9.191,0,0,1-2.387-.283A6.17,6.17,0,0,1,41.28,39.4a4.395,4.395,0,0,1-1.295-1.659,5.464,5.464,0,0,1-.485-2.387,4.585,4.585,0,0,1,.85-2.954,5.054,5.054,0,0,1,2.225-1.618,14.031,14.031,0,0,1,3.115-.809c1.173-.162,2.347-.283,3.52-.445.486-.04.89-.121,1.214-.162a2.564,2.564,0,0,0,.89-.364,1.426,1.426,0,0,0,.526-.728,3.289,3.289,0,0,0,.2-1.214,4.118,4.118,0,0,0-.364-1.861,3.056,3.056,0,0,0-1.011-1.133,3.506,3.506,0,0,0-1.5-.566,8.858,8.858,0,0,0-1.861-.162,5.43,5.43,0,0,0-3.439,1.011,3.955,3.955,0,0,0-1.416,3.237H40.228A11.66,11.66,0,0,1,41.037,24.838ZM52.123,30.26a1.274,1.274,0,0,1-.809.566,7.48,7.48,0,0,1-1.052.243c-.931.162-1.9.324-2.913.445a15.955,15.955,0,0,0-2.711.566,5.116,5.116,0,0,0-2.023,1.092,2.68,2.68,0,0,0-.809,2.063,3.538,3.538,0,0,0,.324,1.5,4.092,4.092,0,0,0,.89,1.133,3.7,3.7,0,0,0,1.295.728,4.828,4.828,0,0,0,1.5.243,6.953,6.953,0,0,0,2.428-.4A5.825,5.825,0,0,0,50.262,37.3a6,6,0,0,0,1.376-1.78,5.6,5.6,0,0,0,.526-2.387V30.26Z" transform="translate(120.315 -15.006)"/>
    <path id="Path_429" data-name="Path 429" class="cls-1" d="M46.483,21.811v4.248h.081a6.6,6.6,0,0,1,2.63-3.4,6.7,6.7,0,0,1,4.248-1.092v2.225a6.678,6.678,0,0,0-2.751.4,6.853,6.853,0,0,0-2.144,1.335,6.122,6.122,0,0,0-1.376,2.1,7.128,7.128,0,0,0-.485,2.67v9.67H44.46V21.852h2.023Z" transform="translate(135.422 -14.771)"/>
    <path id="Path_430" data-name="Path 430" class="cls-1" d="M49.555,19.89v10.4h.081a5.767,5.767,0,0,1,1.012-1.74,7.466,7.466,0,0,1,1.5-1.254,7.244,7.244,0,0,1,1.821-.769,8.061,8.061,0,0,1,1.982-.243,7.746,7.746,0,0,1,3.6.769,7.57,7.57,0,0,1,2.549,2.1,8.718,8.718,0,0,1,1.5,3.075,14.2,14.2,0,0,1,0,7.364,9.467,9.467,0,0,1-1.5,3.075,7.016,7.016,0,0,1-2.549,2.063,8.286,8.286,0,0,1-3.6.769,7.714,7.714,0,0,1-3.965-1.011,5.888,5.888,0,0,1-2.508-2.913h-.081v3.439H47.37V19.93h2.185ZM61.531,33.161a7.98,7.98,0,0,0-1.052-2.468,5.6,5.6,0,0,0-1.861-1.78,5.287,5.287,0,0,0-2.711-.688,5.725,5.725,0,0,0-4.936,2.468,8.044,8.044,0,0,0-1.092,2.468,10.962,10.962,0,0,0-.324,2.792,13.139,13.139,0,0,0,.324,2.792,6.5,6.5,0,0,0,1.092,2.468,5.725,5.725,0,0,0,4.936,2.468,5.288,5.288,0,0,0,2.711-.688,5.6,5.6,0,0,0,1.861-1.78,7.121,7.121,0,0,0,1.052-2.468,10.962,10.962,0,0,0,.324-2.792A12.556,12.556,0,0,0,61.531,33.161Z" transform="translate(144.286 -19.85)"/>
    <path id="Path_431" data-name="Path 431" class="cls-1" d="M54.755,19.89v3.56H52.53V19.89Zm0,7V45.015H52.53V26.889Z" transform="translate(160.003 -19.85)"/>
    <path id="Path_432" data-name="Path 432" class="cls-1" d="M56.454,22.046v3.115h.081a5.343,5.343,0,0,1,2.266-2.67,6.5,6.5,0,0,1,3.56-1.011,9.32,9.32,0,0,1,3.2.486,5.436,5.436,0,0,1,2.063,1.376,5.069,5.069,0,0,1,1.092,2.185,12.571,12.571,0,0,1,.324,2.913V40.091H66.812V28.763a11.7,11.7,0,0,0-.2-2.144,4.52,4.52,0,0,0-.728-1.74,3.685,3.685,0,0,0-1.416-1.173,5.211,5.211,0,0,0-2.225-.4,5.59,5.59,0,0,0-2.387.486,5.157,5.157,0,0,0-1.74,1.295,6.344,6.344,0,0,0-1.133,1.982,8.1,8.1,0,0,0-.445,2.468v10.6H54.31V22.006h2.144Z" transform="translate(165.425 -15.006)"/>
    <path id="Path_433" data-name="Path 433" class="cls-1" d="M60.407,24.838a5.078,5.078,0,0,1,1.537-1.9,6.934,6.934,0,0,1,2.266-1.092,10.526,10.526,0,0,1,2.873-.364,11.95,11.95,0,0,1,2.387.243,6.267,6.267,0,0,1,2.144.85,4.447,4.447,0,0,1,1.537,1.78,6.281,6.281,0,0,1,.607,2.954v9.629a1.168,1.168,0,0,0,1.295,1.335,1.889,1.889,0,0,0,.688-.121V40.01c-.243.04-.485.081-.688.121a4.174,4.174,0,0,1-.769.04,3.028,3.028,0,0,1-1.335-.243,2.13,2.13,0,0,1-.809-.647,2.025,2.025,0,0,1-.364-1.011,12.344,12.344,0,0,1-.081-1.295h-.081A17.846,17.846,0,0,1,70.4,38.554a5.277,5.277,0,0,1-1.376,1.133,5.587,5.587,0,0,1-1.74.688,9.6,9.6,0,0,1-2.306.243,9.19,9.19,0,0,1-2.387-.283A6.17,6.17,0,0,1,60.65,39.4a4.395,4.395,0,0,1-1.295-1.659,5.464,5.464,0,0,1-.486-2.387,4.585,4.585,0,0,1,.85-2.954,5.054,5.054,0,0,1,2.225-1.618,14.032,14.032,0,0,1,3.115-.809c1.173-.162,2.347-.283,3.52-.445.486-.04.89-.121,1.214-.162a2.564,2.564,0,0,0,.89-.364,1.762,1.762,0,0,0,.566-.728,3.289,3.289,0,0,0,.2-1.214,4.119,4.119,0,0,0-.364-1.861,3.056,3.056,0,0,0-1.011-1.133,3.72,3.72,0,0,0-1.5-.566,8.858,8.858,0,0,0-1.861-.162,5.43,5.43,0,0,0-3.439,1.011,3.955,3.955,0,0,0-1.416,3.237H59.639A11.721,11.721,0,0,1,60.407,24.838ZM71.493,30.26a1.274,1.274,0,0,1-.809.566,7.478,7.478,0,0,1-1.052.243c-.931.162-1.9.324-2.913.445a15.956,15.956,0,0,0-2.711.566,5.117,5.117,0,0,0-2.023,1.092,2.657,2.657,0,0,0-.769,2.063,3.538,3.538,0,0,0,.324,1.5,4.092,4.092,0,0,0,.89,1.133,3.7,3.7,0,0,0,1.295.728,4.828,4.828,0,0,0,1.5.243,6.953,6.953,0,0,0,2.428-.4A5.825,5.825,0,0,0,69.673,37.3a6,6,0,0,0,1.376-1.78,5.6,5.6,0,0,0,.526-2.387V30.26Z" transform="translate(179.314 -15.006)"/>
    <path id="Path_434" data-name="Path 434" class="cls-1" d="M72.392,25.762v1.861H68.711V39.842a3.9,3.9,0,0,0,.283,1.7c.2.4.688.647,1.5.688a15,15,0,0,0,1.9-.121v1.861a7.8,7.8,0,0,0-.971.04,7.8,7.8,0,0,1-.971.04,4.368,4.368,0,0,1-3.075-.85c-.607-.566-.85-1.618-.85-3.2V27.583H63.37V25.722h3.156V20.26h2.225v5.462h3.641Z" transform="translate(193.021 -18.723)"/>
    <path id="Path_435" data-name="Path 435" class="cls-1" d="M78.6,22.262a8.016,8.016,0,0,1,2.67,2.063,8.481,8.481,0,0,1,1.659,3.034,12.363,12.363,0,0,1,.566,3.722,12.563,12.563,0,0,1-.566,3.722A8.339,8.339,0,0,1,78.6,39.9a8.8,8.8,0,0,1-3.682.769,8.211,8.211,0,0,1-3.682-.769,7.1,7.1,0,0,1-2.67-2.063A8.838,8.838,0,0,1,66.906,34.8a12.361,12.361,0,0,1-.566-3.722,12.561,12.561,0,0,1,.566-3.722,8.339,8.339,0,0,1,4.329-5.1,8.211,8.211,0,0,1,3.682-.769A7.7,7.7,0,0,1,78.6,22.262ZM72.166,24a5.876,5.876,0,0,0-1.982,1.74,8.265,8.265,0,0,0-1.214,2.468,10.114,10.114,0,0,0,0,5.664,8.263,8.263,0,0,0,1.214,2.468,5.876,5.876,0,0,0,1.982,1.74,5.707,5.707,0,0,0,2.792.688,5.3,5.3,0,0,0,2.792-.688,5.877,5.877,0,0,0,1.982-1.74,8.266,8.266,0,0,0,1.214-2.468,10.114,10.114,0,0,0,0-5.664,8.267,8.267,0,0,0-1.214-2.468A5.877,5.877,0,0,0,77.75,24a5.707,5.707,0,0,0-2.792-.688A5.488,5.488,0,0,0,72.166,24Z" transform="translate(202.067 -14.979)"/>
    <path id="Path_436" data-name="Path 436" class="cls-1" d="M7.08,29.68v.89H1.052v4.046H6.393v.89H1.052v5.3H0V29.64H7.08Z" transform="translate(0 9.848)"/>
    <path id="Path_437" data-name="Path 437" class="cls-1" d="M7.392,29.65V40.817H6.34V29.65Z" transform="translate(19.311 9.879)"/>
    <path id="Path_438" data-name="Path 438" class="cls-1" d="M12.651,38.713a2.5,2.5,0,0,0,.769.931,2.777,2.777,0,0,0,1.173.485,8.018,8.018,0,0,0,1.457.162,4.536,4.536,0,0,0,.971-.121,2.915,2.915,0,0,0,.971-.4,2.352,2.352,0,0,0,.728-.688A1.783,1.783,0,0,0,19,38.026a1.711,1.711,0,0,0-.2-.809,1.521,1.521,0,0,0-.566-.566,3.064,3.064,0,0,0-.728-.364c-.283-.081-.526-.162-.809-.243L14.229,35.4a6.288,6.288,0,0,1-.931-.324,2.693,2.693,0,0,1-.809-.486,2.238,2.238,0,0,1-.566-.769,2.923,2.923,0,0,1-.2-1.092,3.038,3.038,0,0,1,.162-.971,2.419,2.419,0,0,1,.607-1.011,3.185,3.185,0,0,1,1.173-.809A4.421,4.421,0,0,1,15.6,29.61a6.474,6.474,0,0,1,1.578.2,4.316,4.316,0,0,1,1.295.647,2.949,2.949,0,0,1,.89,1.092,3.02,3.02,0,0,1,.324,1.5H18.639a3.106,3.106,0,0,0-.283-1.133,2.622,2.622,0,0,0-.688-.809,2.741,2.741,0,0,0-.971-.486,3.491,3.491,0,0,0-1.133-.162,4.41,4.41,0,0,0-1.052.121,2.938,2.938,0,0,0-.89.364,2.014,2.014,0,0,0-.607.688,2.128,2.128,0,0,0-.243,1.052,1.89,1.89,0,0,0,.121.688,1.1,1.1,0,0,0,.364.486,2.294,2.294,0,0,0,.526.324,3.031,3.031,0,0,0,.647.2l2.711.688c.4.121.769.243,1.133.364a3.578,3.578,0,0,1,.931.566,1.948,1.948,0,0,1,.607.809,2.641,2.641,0,0,1,.243,1.173,2.322,2.322,0,0,1-.04.486,2,2,0,0,1-.2.647,3.28,3.28,0,0,1-.4.728,2.5,2.5,0,0,1-.769.647,4.448,4.448,0,0,1-1.173.485,6.915,6.915,0,0,1-1.7.162,6.6,6.6,0,0,1-1.821-.243,4.049,4.049,0,0,1-1.457-.688A3.478,3.478,0,0,1,11.559,39a4.022,4.022,0,0,1-.283-1.78h1.052A5.953,5.953,0,0,0,12.651,38.713Z" transform="translate(34.322 9.757)"/>
    <path id="Path_439" data-name="Path 439" class="cls-1" d="M19.182,29.65V40.817H18.13V29.65Z" transform="translate(55.223 9.879)"/>
    <path id="Path_440" data-name="Path 440" class="cls-1" d="M23.384,33.231a6.282,6.282,0,0,1,.971-1.861,4.835,4.835,0,0,1,1.659-1.295,5.72,5.72,0,0,1,4.612,0,4.733,4.733,0,0,1,1.659,1.295,5.118,5.118,0,0,1,.971,1.861,7.536,7.536,0,0,1,0,4.37,5.464,5.464,0,0,1-.971,1.861,4.3,4.3,0,0,1-1.659,1.254,5.3,5.3,0,0,1-6.271-1.254,4.812,4.812,0,0,1-.971-1.861,7.535,7.535,0,0,1,0-4.37ZM24.4,37.2a4.108,4.108,0,0,0,.769,1.578,3.914,3.914,0,0,0,1.295,1.133,4,4,0,0,0,1.9.4,4,4,0,0,0,1.9-.4,3.509,3.509,0,0,0,1.295-1.133,4.782,4.782,0,0,0,.769-1.578,6.74,6.74,0,0,0,.243-1.78,6.521,6.521,0,0,0-.243-1.78,4.766,4.766,0,0,0-.769-1.578,3.915,3.915,0,0,0-1.295-1.133,4,4,0,0,0-1.9-.4,4,4,0,0,0-1.9.4,3.509,3.509,0,0,0-1.295,1.133,4.782,4.782,0,0,0-.769,1.578,6.649,6.649,0,0,0,0,3.56Z" transform="translate(70.239 9.696)"/>
    <path id="Path_441" data-name="Path 441" class="cls-1" d="M38.85,29.65v.89H34.966V40.776H33.914V30.54H30.03v-.89h8.82Z" transform="translate(91.469 9.879)"/>
    <path id="Path_442" data-name="Path 442" class="cls-1" d="M44.407,29.68v.89H37.772v4.046H44v.89H37.772v4.41h6.716v.89H36.72V29.64h7.687Z" transform="translate(111.847 9.848)"/>
    <path id="Path_443" data-name="Path 443" class="cls-1" d="M48.317,29.68a4.545,4.545,0,0,1,1.295.162,3.418,3.418,0,0,1,1.092.526,2.219,2.219,0,0,1,.728.89,3.209,3.209,0,0,1,.283,1.295,2.91,2.91,0,0,1-.566,1.861,2.509,2.509,0,0,1-1.618,1.011v.04a2.154,2.154,0,0,1,1.5.809,2.205,2.205,0,0,1,.324.769,3.449,3.449,0,0,1,.121.931c0,.2.04.4.04.688a5.489,5.489,0,0,0,.081.809,4.3,4.3,0,0,0,.162.769,1.478,1.478,0,0,0,.283.566H50.866a1.438,1.438,0,0,1-.162-.364,2.03,2.03,0,0,1-.081-.485c0-.162-.04-.324-.04-.485a1.248,1.248,0,0,0-.04-.4c-.04-.4-.04-.769-.081-1.173a4,4,0,0,0-.283-1.052,1.633,1.633,0,0,0-.647-.728,1.755,1.755,0,0,0-1.173-.243H44.312v4.936H43.26V29.64h5.057Zm-.081,5.3a2.374,2.374,0,0,0,.931-.162,1.834,1.834,0,0,0,.769-.445,2.224,2.224,0,0,0,.526-.688,2.248,2.248,0,0,0,.2-.931,2.166,2.166,0,0,0-.607-1.618,2.473,2.473,0,0,0-1.821-.607H44.271v4.41h3.965Z" transform="translate(131.767 9.848)"/>
    <path id="Path_444" data-name="Path 444" class="cls-1" d="M55.465,29.65l4.37,11.167H58.7l-1.376-3.48h-5.1l-1.335,3.48H49.76L54.251,29.65ZM57,36.447l-2.144-5.7-2.225,5.7Z" transform="translate(151.566 9.879)"/>
    <path id="Path_445" data-name="Path 445" class="cls-1" d="M61.7,29.711a5.138,5.138,0,0,1,1.376.2,2.729,2.729,0,0,1,1.74,1.618,3.793,3.793,0,0,1,0,2.67,2.729,2.729,0,0,1-1.74,1.618,4.69,4.69,0,0,1-1.376.2H57.812V40.8H56.76V29.63H61.7Zm-.243,5.5a2.758,2.758,0,0,0,1.78-.566,2.443,2.443,0,0,0,0-3.4,2.758,2.758,0,0,0-1.78-.566H57.812v4.572h3.641Z" transform="translate(172.887 9.818)"/>
    <path id="Path_446" data-name="Path 446" class="cls-1" d="M64.5,29.65V40.817H63.45V29.65Z" transform="translate(193.265 9.879)"/>
    <path id="Path_447" data-name="Path 447" class="cls-1" d="M73.935,29.65,78.3,40.817H77.172L75.8,37.337H70.7l-1.335,3.48H68.23L72.721,29.65Zm1.5,6.8-2.144-5.7-2.225,5.7Z" transform="translate(207.824 9.879)"/>
  </g>
  <g id="Group_147" data-name="Group 147" transform="translate(111.061)">
    <path id="Path_448" data-name="Path 448" class="cls-1" d="M78.1,5.64C53.344,6.368,33.64,18.87,33.64,34.164a23.249,23.249,0,0,0,2.832,10.56h.04c1.942,3.318,4.005,3.52,4.005,3.52a6.45,6.45,0,0,1-1.74-3.4h.89A31.038,31.038,0,0,0,70.7,13.813a31.691,31.691,0,0,0-.445-5.219A69.585,69.585,0,0,1,78.1,5.64Z" transform="translate(-8.596 17.179)"/>
    <path id="Path_449" data-name="Path 449" class="cls-1" d="M31.561,15.9C31.44,24.518,38.237,28.2,42.2,28.2c5.948,0,11.855-4.167,23.426-6.15A47.631,47.631,0,0,1,75.46,21.4,31.009,31.009,0,0,0,45.965,0a32.211,32.211,0,0,0-5.948.566C36.942,3.156,31.683,8.7,31.561,15.9Zm16.831,1.78a6.231,6.231,0,1,1-6.231-6.231A6.233,6.233,0,0,1,48.392,17.681Z" transform="translate(-14.932)"/>
    <path id="Path_450" data-name="Path 450" class="cls-1" d="M36.634,18.686C38.617,8.773,42.905,3.433,46.83.56a31.033,31.033,0,0,0,4.289,58.909C39.183,51.377,33.721,33.292,36.634,18.686Z" transform="translate(-27.45 1.706)"/>
  </g>
</svg>
