<svg id="Logo_Glaucia" data-name="Logo Glaucia" xmlns="http://www.w3.org/2000/svg" viewBox="0 0 181.252 181.219">
  <defs>
    <style>
      .cls-1 {
        fill: rgba(0,0,0,0.4);
      }
    </style>
  </defs>
  <path id="Exclusion_1" data-name="Exclusion 1" class="cls-1" d="M0,55.7V55.69C1.452,41.975,3.334,28.036,8.906,21.465a5.615,5.615,0,0,0-.436.86,7.8,7.8,0,0,0-.444,1.633,10.289,10.289,0,0,0-.132,1.8A16.023,16.023,0,0,0,8,27.6c.016.319.052.638.087.947l0,.031c.031.264.062.538.078.793a3.6,3.6,0,0,1-.1,1.5,1.624,1.624,0,0,1-.746.987A.942.942,0,0,1,6.83,32a.693.693,0,0,1-.469-.184l-.069-.068c-.045-.045-.091-.091-.136-.137-.01,0-.013,0-.014.006s0,.009,0,.017l-.023-.023-.034-.067a.151.151,0,0,1-.049-.071.077.077,0,0,0-.018-.033.783.783,0,0,1-.033-.408.814.814,0,0,1,.509-.576.547.547,0,0,1,.177-.029.623.623,0,0,1,.332.1c.022.021.043.041.064.063a.617.617,0,0,1-.064-.1c-.026-.029-.055-.058-.086-.088L6.9,30.385a.174.174,0,0,0-.063-.03.173.173,0,0,1-.072-.035.185.185,0,0,0-.088-.04.537.537,0,0,1-.084-.03H6.4a.808.808,0,0,0-.477.171,1.363,1.363,0,0,0-.374.475.594.594,0,0,0-.031.076.717.717,0,0,1-.037.092.264.264,0,0,0-.034.171v.273l.034.1a1.652,1.652,0,0,0,.374.68,1.627,1.627,0,0,0,.781.444,1.024,1.024,0,0,0,.226.026,1.408,1.408,0,0,0,.252-.026.694.694,0,0,0,.239-.033.122.122,0,0,0,.049-.018.119.119,0,0,1,.053-.019h.1a1.793,1.793,0,0,0,.782-.545,3.308,3.308,0,0,0,.511-.815,4.04,4.04,0,0,0,.273-1.9,10.589,10.589,0,0,0-.075-1.11l0-.016c-.027-.251-.049-.461-.061-.679-.069-.594-.106-1.227-.135-1.735a13.686,13.686,0,0,1,.032-1.652v-.015a6.742,6.742,0,0,1,.273-1.5,6.435,6.435,0,0,1,.509-1.293,5.253,5.253,0,0,1,.615-.987,4,4,0,0,1,.61-.68,1.986,1.986,0,0,1,.157-.138c.045-.037.084-.069.116-.1a.914.914,0,0,1,.2-.169l.018-.016L11.4,19.3c.057-.041.1-.072.119-.089a.855.855,0,0,0-.089.123,1.2,1.2,0,0,0-.2.306,1.369,1.369,0,0,0-.236.439,6.87,6.87,0,0,0-.411,1.329l0,.022a14.356,14.356,0,0,0-.132,1.78,9.742,9.742,0,0,0,.239,2.145,7.046,7.046,0,0,0,.306,1.155.266.266,0,0,0,.034.138l.034.135c.018.054.035.1.052.14s.033.081.049.13a2.514,2.514,0,0,0,.118.289,2.971,2.971,0,0,1,.12.29,19.611,19.611,0,0,0,1.124,2.28l.033.056c.423.715.859,1.455,1.327,2.154s.938,1.412,1.429,2.111a12.408,12.408,0,0,1,1.122,2.041,3.85,3.85,0,0,1,.171,1.937.9.9,0,0,1-.411.615,1.322,1.322,0,0,1-.748.169,1.074,1.074,0,0,1-.646-.239,1.473,1.473,0,0,1-.442-.576,1.2,1.2,0,0,1-.034-1.124.492.492,0,0,1,.306-.273.4.4,0,0,1,.185-.041c.027,0,.054,0,.079,0s.05,0,.074,0,.069.02.1.026a.226.226,0,0,1,.11.044.1.1,0,0,0,.066.034.526.526,0,0,0-.273-.171.34.34,0,0,0-.244-.081.668.668,0,0,0-.128.013.7.7,0,0,0-.475.27.5.5,0,0,1-.1.138.34.34,0,0,0-.078.118c-.008.016-.015.033-.026.053l-.023.074c-.024.079-.049.163-.078.266a1.7,1.7,0,0,0,.1.815,1.989,1.989,0,0,0,.445.815,1.65,1.65,0,0,0,.984.545.214.214,0,0,0,.137.034h.478a2.071,2.071,0,0,0,.61-.169A.267.267,0,0,0,16.7,39.5l.136-.1c.07-.068.171-.169.239-.239l.044-.066c.054-.08.107-.159.161-.238a1.273,1.273,0,0,1,.068-.156,1.215,1.215,0,0,0,.066-.151,3.321,3.321,0,0,0,.2-1.293,3.991,3.991,0,0,0-.066-.647,1.2,1.2,0,0,0-.07-.34c-.009-.025-.016-.048-.025-.07l-.009-.023a1.88,1.88,0,0,1-.067-.213,9.8,9.8,0,0,0-1.156-2.311c-.361-.608-.738-1.167-1.1-1.708l-.142-.212-.151-.225c-.461-.659-.888-1.345-1.359-2.108a22.09,22.09,0,0,1-1.158-2.109c-.034-.087-.078-.175-.12-.261s-.086-.171-.118-.25c-.014-.045-.03-.083-.043-.12l-.008-.017c-.016-.043-.033-.085-.049-.136l-.071-.135a.279.279,0,0,1-.065-.135c-.127-.316-.27-.672-.374-1.023a11.4,11.4,0,0,1-.444-1.937,9.924,9.924,0,0,1-.067-1.7,11.319,11.319,0,0,1,.169-1.3c.07-.259.142-.455.2-.613.026-.072.05-.137.072-.2a1.682,1.682,0,0,0,.135-.268l.011-.013a.114.114,0,0,1,.062-.025.29.29,0,0,1,.136-.111c.032-.018.066-.037.1-.061a1.167,1.167,0,0,1,.407-.135,1.215,1.215,0,0,1,.259-.027,1.627,1.627,0,0,1,.286.027,5.7,5.7,0,0,1,1.225.318l.17.056A6.9,6.9,0,0,1,15,19.5c.153.058.313.1.482.151l.026.007c.124.035.251.07.377.112a4.282,4.282,0,0,0,.953.208.615.615,0,0,0,.236.031h.242a2.809,2.809,0,0,0,.509-.031,1.874,1.874,0,0,0,.984-.444,1.836,1.836,0,0,0,.512-.782.755.755,0,0,0,.071-.456,19.273,19.273,0,0,1,5.429,3.209l.017.013c.8.594,1.634,1.208,2.555,1.828,4.032,2.712,9.636,5.484,20.642,5.484,1.049,0,2.145-.026,3.259-.078-3.933,11.624-7.643,12.041-11.572,12.482a12.461,12.461,0,0,0-4.449,1.091,15.778,15.778,0,0,0-5.811,5.133c-2.033,2.64-3.79,4.921-10.385,4.921-.577,0-1.193-.018-1.832-.053-2.012-.112-3.833-.169-5.412-.169-7.734,0-9.235,1.315-10.822,2.707-.316.277-.638.558-1.008.827ZM8.929,21.439l0,0c.091-.148.188-.291.295-.438a5.943,5.943,0,0,1,.725-.839c-.041.019-.079.038-.114.057a8.293,8.293,0,0,1-1.973.714l-.314.052-.3.05a1.889,1.889,0,0,1-.327.026,2.354,2.354,0,0,1-.353-.026,1.639,1.639,0,0,1-.748-.27.821.821,0,0,1-.307-.374,1.1,1.1,0,0,1-.137-.444V19.6a.254.254,0,0,1,.034-.135,1.091,1.091,0,0,1,.2-.444,1.391,1.391,0,0,1,.683-.441l.1-.031a1.947,1.947,0,0,1,.539-.107,4.085,4.085,0,0,1,.614-.031,11.19,11.19,0,0,1,1.553.117l-.038-.011-.017,0a12.439,12.439,0,0,1-1.192-.408l-.16-.067a7.589,7.589,0,0,1-1.13-.549,7.34,7.34,0,0,1-.683-.439l-.106-.087a2.991,2.991,0,0,1-.541-.529A1.98,1.98,0,0,1,4.964,16a2.684,2.684,0,0,1-.169-.615,2.036,2.036,0,0,1,.1-.647,1.31,1.31,0,0,1,.307-.509.721.721,0,0,0,.078-.093l.009-.012a.847.847,0,0,1,.082-.1l.034-.034.036-.036.034-.034.033-.031.067-.036c.031-.02.058-.04.084-.059a.726.726,0,0,1,.189-.112l.116-.038c.066-.022.128-.042.189-.063a3.734,3.734,0,0,1,.614-.034,1.916,1.916,0,0,1,.509.135,3.259,3.259,0,0,1,.748.478A4.415,4.415,0,0,1,8.6,14.7c.353.388.66.766.92,1.09.271.373.484.726.679,1.054a14.965,14.965,0,0,1,.813,1.489l.07.144.035.067c.08.157.144.281.2.374s.13.16.172.221l-.07.045.07.007a.143.143,0,0,1-.045.013h0a.152.152,0,0,1-.043-.007h0A12.015,12.015,0,0,0,8.929,21.439Zm.63-2.277c-.577,0-1.294,0-1.974.068a4.227,4.227,0,0,0-.987.2.59.59,0,0,0-.272.2.108.108,0,0,0-.032.07v.1c.005.017.009.033.014.049l0,.014c.018.066.03.113.084.14a.606.606,0,0,0,.338.135,3.6,3.6,0,0,0,.418.024,3.149,3.149,0,0,0,.605-.055,14.958,14.958,0,0,0,1.937-.444c.309-.092.589-.173.834-.244l.043-.013.516-.151c.091-.01.167-.021.232-.031.025-.013.051-.026.074-.036h-.407c-.338,0-.849,0-1.427-.034ZM6.435,15l0,0c-.008.006-.024.022-.033.031l-.012.012a.207.207,0,0,0-.033.037.146.146,0,0,0-.061.1.546.546,0,0,1-.094.127l-.01.011a.114.114,0,0,1-.015.049.114.114,0,0,0-.019.052.541.541,0,0,0,.138.306,2.217,2.217,0,0,0,.408.408c.11.09.222.178.332.267l.176.141A18.311,18.311,0,0,0,8.9,17.579l.066.038c.132.075.263.147.386.219.24.139.469.267.682.387l.029.016c.337.189.655.367.889.516-.05-.05-.1-.1-.158-.152l-.015-.014a4.885,4.885,0,0,1-.408-.416c-.188-.219-.4-.434-.652-.683l-.062-.063c-.092-.092-.183-.187-.275-.284-.173-.18-.37-.385-.574-.568l-.07-.069a11.46,11.46,0,0,0-.883-.816c-.171-.135-.34-.27-.509-.408a4.41,4.41,0,0,0-.511-.272.675.675,0,0,0-.236-.054.252.252,0,0,0-.1.02H6.463L6.436,15h0ZM17.792,18.89a5.212,5.212,0,0,1-.7-.063l-.052-.007c-.181-.043-.361-.088-.54-.133l-.278-.069c-.131-.032-.27-.074-.406-.113s-.3-.089-.446-.123c-.078-.021-.166-.041-.253-.06l-.015,0-.173-.04-.213-.049c-.079-.017-.159-.035-.228-.052a4.167,4.167,0,0,0-.882-.1,3.375,3.375,0,0,0-.818.067,2.616,2.616,0,0,0-.517.169C13.536,15.261,7.839,6.532,5.407,2.8l-.049-.075c-.308-.472-.573-.88-.766-1.187-.081-.1-.206-.256-.345-.425L4.2,1.065l-.01-.013A6.443,6.443,0,0,1,3.393,0h0c.03,0,.081.035.175.114,1.725,1.509,5,2.41,8.773,2.41,3.9,0,7.163-.977,7.944-2.375-.02.053-.05.117-.085.191a49.775,49.775,0,0,0-3.248,8.521c-1.234,4.765-.769,7.823,1.384,9.087a.1.1,0,0,1-.024.017l-.014.008-.067.065a.166.166,0,0,1,.1-.031h.107l.13.068.013.005c.1.021.194.044.289.069l.005.012a.008.008,0,1,1-.009,0,.045.045,0,0,1,0,.012.088.088,0,0,1,.007.032.042.042,0,0,1-.016.034.043.043,0,0,0-.017.034.318.318,0,0,1-.1.169,2.031,2.031,0,0,1-.411.343A1.194,1.194,0,0,1,17.792,18.89Z" transform="translate(73.857 48.266)"/>
  <path id="Path_326" data-name="Path 326" class="cls-1" d="M43.584,24.343,40.319,22l-6.7-4.864c-.068-.034-.136-.1-.2-.1v-1.9a2.48,2.48,0,0,0,2.075-2.415,2.439,2.439,0,0,0-2.449-2.449,2.5,2.5,0,0,0-1.973.986,2.429,2.429,0,0,0-.476,1.463.374.374,0,0,0,.748,0,1.453,1.453,0,0,1,.34-.986,1.614,1.614,0,0,1,1.327-.68,1.667,1.667,0,1,1,0,3.334.377.377,0,0,0-.374.374V17l-.2.1-5.783,4.184-.918.646-3.266,2.347a1.017,1.017,0,0,0-.374,1.157.991.991,0,0,0,.986.714.374.374,0,0,0,0-.748.233.233,0,0,1-.238-.17c0-.068-.034-.2.1-.272l2.789-2.041,2.211-1.6,4.932-3.572a.2.2,0,0,1,.136-.034h0c.068,0,.1,0,.136.034l4.932,3.572,2.211,1.6,2.789,2.041a.272.272,0,0,1,.1.272c0,.068-.068.17-.238.17a.374.374,0,1,0,0,.748,1.02,1.02,0,0,0,.986-.714A.852.852,0,0,0,43.584,24.343Z" transform="translate(52.927 24.648)"/>
  <path id="Union_13" data-name="Union 13" class="cls-1" d="M88.959,179.612a1.529,1.529,0,0,1,.524-1.208,16.1,16.1,0,0,0-1.817-2.978c-.306-.431-.615-.891-.924-1.35a8.183,8.183,0,0,1-1.831.195,7.7,7.7,0,0,1-7.7-6.637,4.718,4.718,0,0,1-2.7.787,5.071,5.071,0,0,1-1.226-.135,3.943,3.943,0,0,1-2.617-2.018,17.7,17.7,0,0,0-7.042-2.3.759.759,0,0,1-.177-.034H24.691a1.646,1.646,0,0,1-1.483.826,1.579,1.579,0,0,1-1.67-1.61,1.694,1.694,0,0,1,3.153-.782H70.661a.77.77,0,0,1,.781.784,4.954,4.954,0,0,0,.465,2.109.787.787,0,0,1,.153.288,2.41,2.41,0,0,0,1.525,1.207,3.11,3.11,0,0,0,3.5-1.319l-.854-.537a1.875,1.875,0,0,1-.774.164,1.574,1.574,0,0,1-1.667-1.6,1.668,1.668,0,0,1,3.334,0c0,.047,0,.093-.005.14l.626.4c.916-2.007,2.981-3.669,6.725-3.669a8.031,8.031,0,0,1,4.165,1.117l.369-.309a1.741,1.741,0,0,1-.044-.4,1.668,1.668,0,0,1,3.334,0,1.775,1.775,0,0,1-.067.5l.335.28a8.1,8.1,0,0,1,4.289-1.184c3.662,0,5.728,1.61,6.673,3.573l.608-.384v-.057a1.668,1.668,0,0,1,3.334,0,1.576,1.576,0,0,1-1.667,1.6,1.854,1.854,0,0,1-.852-.2l-.881.556a3.1,3.1,0,0,0,3.5,1.34c1.429-.306,2.142-2.041,2.142-3.6a.77.77,0,0,1,.782-.784h6.752c.1-.013.194-.023.291-.034a.855.855,0,0,1,.306.034h38.688a1.693,1.693,0,0,1,3.15.782,1.576,1.576,0,0,1-1.665,1.61,1.647,1.647,0,0,1-1.486-.826H117.34a17.7,17.7,0,0,0-6.751,2.29,3.953,3.953,0,0,1-2.649,2.064,4.7,4.7,0,0,1-1.226.135,4.806,4.806,0,0,1-2.619-.725,7.8,7.8,0,0,1-7.754,6.575,7.9,7.9,0,0,1-1.8-.192c-.306.46-.615.919-.922,1.348a16.015,16.015,0,0,0-1.815,3.01,1.526,1.526,0,0,1,.488,1.176,1.668,1.668,0,0,1-3.334,0Zm-.377-12.828a4.446,4.446,0,0,1,1.567,3.643,3.545,3.545,0,0,1-1.9,3.064c.229.345.468.672.707.981a23.938,23.938,0,0,1,1.667,2.589,19.5,19.5,0,0,1,1.667-2.589c.236-.33.472-.662.7-.994a3.57,3.57,0,0,1-1.891-3.051,4.452,4.452,0,0,1,1.568-3.643,9.987,9.987,0,0,0-2.043-1.153A10.02,10.02,0,0,0,88.582,166.784Zm7.656-.1a.77.77,0,0,1-.782.781c-.1,0-.19.005-.281.01a5.938,5.938,0,0,1,.382,1.179,7.7,7.7,0,0,1-.307,3.929,6.715,6.715,0,0,0,1.091.086,6.05,6.05,0,0,0,6.157-5.918c0-.119,0-.234-.01-.348l-1.935,1.215a1.5,1.5,0,0,1,.008.153,1.668,1.668,0,0,1-3.334,0,1.693,1.693,0,0,1,.028-.327l-1.022-.852A.524.524,0,0,1,96.238,166.685Zm-17.484.067a6.071,6.071,0,0,0,6.157,5.918,6.922,6.922,0,0,0,1.109-.086,7.706,7.706,0,0,1-.292-3.929,6.081,6.081,0,0,1,.384-1.176c-.1-.008-.207-.013-.317-.013a.771.771,0,0,1-.783-.781.76.76,0,0,1,.015-.153l-1.067.888a1.942,1.942,0,0,1,.034.353,1.668,1.668,0,0,1-3.334,0c0-.031,0-.059,0-.088l-1.9-1.2C78.757,166.576,78.754,166.662,78.754,166.753Zm8.5,2.213a6.177,6.177,0,0,0,.26,3.093,1.98,1.98,0,0,0,1.033-1.664,2.88,2.88,0,0,0-.966-2.381A4.644,4.644,0,0,0,87.258,168.965Zm5.442,1.428a2,2,0,0,0,1.039,1.649,6.157,6.157,0,0,0,.254-3.077,4.473,4.473,0,0,0-.332-.961A2.877,2.877,0,0,0,92.7,170.393Zm-13.606-5.549,2.4,1.516a1.9,1.9,0,0,1,1.4-.106l4.412-3.7a6.542,6.542,0,0,0-2.841-.628C81.73,161.923,79.829,162.985,79.094,164.844Zm20.574,1.488,2.462-1.555c-.754-1.818-2.641-2.854-5.347-2.854a6.549,6.549,0,0,0-2.931.667l4.4,3.69a1.886,1.886,0,0,1,1.42.052Zm-13.89-.428H85.8a5.251,5.251,0,0,1,1.291.156,8.8,8.8,0,0,1,2.54-1.67,6.755,6.755,0,0,0-.915-.932Zm5.853-1.53a8.938,8.938,0,0,1,2.573,1.675,5.375,5.375,0,0,1,1.2-.145L92.5,163.478A6.481,6.481,0,0,0,91.631,164.374Zm-21.7-.28-.023-.163h-.343C69.692,163.985,69.814,164.037,69.933,164.094Zm41.355-.021c.107-.049.211-.1.32-.143h-.3C111.3,163.977,111.3,164.026,111.288,164.073Zm-21.329-1.657a9.224,9.224,0,0,1,.7.7,8.428,8.428,0,0,1,.629-.641l-.216-.182a1.976,1.976,0,0,1-.444.052,1.937,1.937,0,0,1-.5-.067Zm72.439-6.229V117.294a1.188,1.188,0,0,1,0-.135v-6.941a.772.772,0,0,1,.784-.782,4.988,4.988,0,0,0,2.13-.473.687.687,0,0,1,.182-.1,2.451,2.451,0,0,0,1.3-1.573,3.117,3.117,0,0,0-1.321-3.5l-.538.852a1.667,1.667,0,1,1-1.444-.893c.042,0,.083,0,.124.005l.382-.608c-1.992-.924-3.635-2.986-3.635-6.71a8.025,8.025,0,0,1,1.152-4.222l-.3-.356a1.826,1.826,0,0,1-.444.055,1.668,1.668,0,0,1,0-3.334,1.765,1.765,0,0,1,.45.055l.29-.345a8.07,8.07,0,0,1-1.15-4.233c0-3.692,1.638-5.762,3.623-6.7l-.393-.621c-.031,0-.065,0-.1,0a1.667,1.667,0,1,1,1.425-.854l.567.9a3.111,3.111,0,0,0,1.311-3.482c-.307-1.428-2.044-2.142-3.607-2.142a.77.77,0,0,1-.784-.782V63.672c-.01-.1-.02-.2-.031-.293a.823.823,0,0,1,.031-.312V24.351a1.672,1.672,0,1,1,1.566,0V63.574a17.746,17.746,0,0,0,2.255,6.694,3.966,3.966,0,0,1,2.1,2.669A5.116,5.116,0,0,1,167.7,76.8a7.727,7.727,0,0,1,6.606,7.7,7.923,7.923,0,0,1-.21,1.877c.454.3.906.608,1.329.912a15.985,15.985,0,0,0,3.01,1.815,1.535,1.535,0,0,1,1.21-.522,1.668,1.668,0,0,1,0,3.334,1.551,1.551,0,0,1-1.217-.519,16.227,16.227,0,0,0-2.965,1.812c-.429.3-.888.613-1.345.919a8.086,8.086,0,0,1,.189,1.8,7.773,7.773,0,0,1-6.643,7.774,5.211,5.211,0,0,1,.689,3.963,3.96,3.96,0,0,1-2.054,2.638,17.822,17.822,0,0,0-2.267,6.988c-.008.036-.02.073-.031.106v38.8a1.672,1.672,0,1,1-1.6-.018Zm1.6-45.151v.151c.023-.055.047-.106.07-.161A.658.658,0,0,1,164,111.036Zm2.542-8.951c.081,0,.165.005.247.005a6.075,6.075,0,0,0,5.918-6.159,6.5,6.5,0,0,0-.084-1.075,8.556,8.556,0,0,1-2.705.465,4.978,4.978,0,0,1-1.262-.135,6.131,6.131,0,0,1-1.148-.374c-.005.075-.008.156-.008.236a.768.768,0,0,1-.782.782.913.913,0,0,1-.19-.021l.925,1.109a1.725,1.725,0,0,1,.353-.034,1.668,1.668,0,0,1,0,3.334c-.032,0-.06,0-.089,0Zm-4.586-5.71c0,2.739,1.063,4.638,2.924,5.375l1.5-2.384a1.9,1.9,0,0,1-.089-1.415l-3.7-4.433A6.515,6.515,0,0,0,161.956,96.375Zm1.522-4.227L165.94,95.1a.348.348,0,0,1,0-.052,5.327,5.327,0,0,1,.135-1.21,8.832,8.832,0,0,1-1.7-2.581A6.657,6.657,0,0,0,163.479,92.148Zm4.547,1.135a4.672,4.672,0,0,0,.973.338,3.835,3.835,0,0,0,.92.1,7.024,7.024,0,0,0,2.181-.369,2.007,2.007,0,0,0-1.672-1.059A2.87,2.87,0,0,0,168.025,93.282Zm5.515-.668c.338-.226.662-.459.969-.7a24.144,24.144,0,0,1,2.584-1.667,19.876,19.876,0,0,1-2.584-1.667c-.335-.241-.673-.481-1.01-.709a3.56,3.56,0,0,1-3.038,1.867,4.46,4.46,0,0,1-3.63-1.55,9.989,9.989,0,0,0-1.166,2.059,10.064,10.064,0,0,0,1.14,2.025,4.446,4.446,0,0,1,3.657-1.584A3.555,3.555,0,0,1,173.54,92.615Zm-11.217-2.807a1.959,1.959,0,0,1-.013.94l.156.187a9.23,9.23,0,0,1,.683-.683,8.225,8.225,0,0,1-.659-.644Zm1.205-1.446a6.619,6.619,0,0,0,.88.849,8.6,8.6,0,0,1,1.683-2.542,5.177,5.177,0,0,1-.153-1.195ZM169,86.884a4.787,4.787,0,0,0-.943.322,2.888,2.888,0,0,0,2.371.937,1.992,1.992,0,0,0,1.631-1.01,7.045,7.045,0,0,0-2.139-.353A3.818,3.818,0,0,0,169,86.884Zm-7.042-2.823a6.578,6.578,0,0,0,.657,2.914l3.682-4.391a1.9,1.9,0,0,1,.089-1.415l-1.556-2.462C163,79.458,161.956,81.348,161.956,84.061Zm5.545,1.327c0,.114.005.223.013.332a6.078,6.078,0,0,1,1.143-.366,7.88,7.88,0,0,1,3.949.317,6.436,6.436,0,0,0,.1-1.169,6.075,6.075,0,0,0-5.918-6.157q-.167,0-.327.008L167.7,80.32l.109,0a1.668,1.668,0,0,1,0,3.334,1.886,1.886,0,0,1-.326-.029l-.821.987a.411.411,0,0,1,.06,0A.766.766,0,0,1,167.5,85.388ZM163.964,69.57c.042.005.084.01.125.018-.042-.093-.084-.187-.125-.283ZM17.289,156.187V117.294a17.7,17.7,0,0,0-2.309-7.053,3.946,3.946,0,0,1-2.046-2.641,5.1,5.1,0,0,1,.641-3.9A7.722,7.722,0,0,1,6.948,96a7.862,7.862,0,0,1,.2-1.849c-.452-.3-.9-.6-1.324-.909A16.01,16.01,0,0,0,2.8,91.426a1.557,1.557,0,0,1-1.2.493,1.668,1.668,0,0,1,0-3.334,1.541,1.541,0,0,1,1.252.569,15.83,15.83,0,0,0,3-1.828c.416-.293.852-.59,1.3-.883a8.056,8.056,0,0,1-.2-1.872,7.7,7.7,0,0,1,6.616-7.7,5.227,5.227,0,0,1-.665-3.929,3.962,3.962,0,0,1,2.091-2.656,17.769,17.769,0,0,0,2.261-6.686V24.333a1.674,1.674,0,1,1,1.568.042V63.088a.778.778,0,0,1,.034.291c-.01.106-.021.213-.034.325V70.32a.771.771,0,0,1-.782.781,4.978,4.978,0,0,0-2.023.423.82.82,0,0,1-.335.172,2.422,2.422,0,0,0-1.25,1.547,3.108,3.108,0,0,0,1.342,3.513l.557-.883a1.667,1.667,0,1,1,1.433.872c-.042,0-.08,0-.122,0l-.415.66c2,.917,3.669,2.981,3.669,6.725A8.018,8.018,0,0,1,19.776,88.3l.283.335a1.847,1.847,0,0,1,.426-.047,1.667,1.667,0,0,1,0,3.334,1.881,1.881,0,0,1-.467-.06l-.307.364a8.06,8.06,0,0,1,1.184,4.287c0,3.646-1.636,5.7-3.623,6.632l.39.615c.034,0,.067,0,.1,0a1.667,1.667,0,1,1-1.433.872l-.546-.867a3.115,3.115,0,0,0-1.289,3.467c.309,1.428,2.044,2.142,3.607,2.142a.768.768,0,0,1,.782.782v6.7c.013.107.026.21.037.312a.826.826,0,0,1-.037.314V156.2a1.672,1.672,0,1,1-1.6-.016Zm0-45.032v-.187c-.029-.005-.06-.008-.089-.013C17.229,111.023,17.26,111.091,17.289,111.155ZM8.546,96a6.051,6.051,0,0,0,5.92,6.157c.1,0,.205,0,.307-.008l-1.218-1.934-.112,0a1.668,1.668,0,0,1,0-3.334,1.94,1.94,0,0,1,.332.029l.849-1.021a.525.525,0,0,1-.091.005.768.768,0,0,1-.782-.781c0-.086,0-.169-.008-.252a6.055,6.055,0,0,1-1.113.356c-.411.031-.852.1-1.3.1a8.761,8.761,0,0,1-2.7-.454A6.583,6.583,0,0,0,8.546,96Zm6.408,1.919a1.876,1.876,0,0,1-.071,1.439l1.54,2.438c1.831-.751,2.873-2.641,2.873-5.354a6.537,6.537,0,0,0-.666-2.926Zm.228-4a5.255,5.255,0,0,1,.132,1.15l2.423-2.906a6.314,6.314,0,0,0-.847-.828A8.64,8.64,0,0,1,15.182,93.916Zm-5.988-.545a7.047,7.047,0,0,0,2.14.351,3.817,3.817,0,0,0,.919-.1,4.358,4.358,0,0,0,.95-.312,2.883,2.883,0,0,0-2.379-.948A2,2,0,0,0,9.194,93.371ZM6.743,88.585a16.9,16.9,0,0,1-2.584,1.667,19.647,19.647,0,0,1,2.584,1.667c.338.239.673.48,1.01.709a3.562,3.562,0,0,1,3.038-1.867,4.453,4.453,0,0,1,3.638,1.561,9.724,9.724,0,0,0,1.158-2.07,10.065,10.065,0,0,0-1.14-2.025,4.452,4.452,0,0,1-3.657,1.581A3.55,3.55,0,0,1,7.717,87.9C7.382,88.118,7.046,88.351,6.743,88.585ZM18.1,90.322a8.264,8.264,0,0,1,.644.626l.189-.226a1.928,1.928,0,0,1,0-.94l-.135-.161A9.472,9.472,0,0,1,18.1,90.322Zm-2.789-4.866a5.259,5.259,0,0,1-.142,1.239,8.534,8.534,0,0,1,1.706,2.552,6.526,6.526,0,0,0,.883-.875l-2.446-2.934Zm-6.159,1.7a2.006,2.006,0,0,0,1.67,1.06,2.864,2.864,0,0,0,2.4-.989,4.544,4.544,0,0,0-.971-.337,3.8,3.8,0,0,0-.919-.1A6.932,6.932,0,0,0,9.155,87.152Zm5.708-6.006a1.882,1.882,0,0,1,.112,1.426l3.692,4.4a6.553,6.553,0,0,0,.629-2.843c0-2.74-1.063-4.64-2.925-5.375ZM12.63,85.388a6.108,6.108,0,0,1,1.111.356c.008-.094.01-.19.01-.288a.782.782,0,0,1,.938-.769L13.8,83.62a1.954,1.954,0,0,1-.356.031,1.668,1.668,0,0,1,0-3.334c.032,0,.062,0,.091,0l1.194-1.9c-.085-.005-.174-.008-.263-.008a6.073,6.073,0,0,0-5.92,6.157,6.584,6.584,0,0,0,.093,1.135,8.79,8.79,0,0,1,2.722-.452A5.58,5.58,0,0,1,12.63,85.388Zm4.518-15.8.1-.016v-.218C17.218,69.429,17.185,69.507,17.148,69.585Zm139.875,87.1h.037Zm-132.863,0V23.819H157.023V156.685Zm3.2-3.165h126.5V27.015H27.356Zm61.6-133.035a1.752,1.752,0,0,1,.049-.418l-.379-.317A8.075,8.075,0,0,1,84.4,20.895c-3.664,0-5.734-1.613-6.676-3.578l-.606.382c0,.021,0,.041,0,.065a1.668,1.668,0,0,1-3.334,0A1.671,1.671,0,0,1,76.3,16.356l.829-.522a3.11,3.11,0,0,0-3.477-1.3c-1.429.306-2.142,2.041-2.142,3.607a.879.879,0,0,1-.849.745H64.28c-.194.029-.382.052-.561.07,0-.07-.033-.07-.07-.07H24.676a1.669,1.669,0,0,1-1.481.808,1.576,1.576,0,0,1-1.657-1.623,1.694,1.694,0,0,1,3.171-.748H63.584a17.658,17.658,0,0,0,7.053-2.308,3.953,3.953,0,0,1,2.641-2.046,5.121,5.121,0,0,1,3.859.615,7.862,7.862,0,0,1,9.585-6.424c.3-.454.607-.906.911-1.332A15.979,15.979,0,0,0,89.452,2.8a1.557,1.557,0,0,1-.494-1.194,1.668,1.668,0,0,1,3.334,0,1.534,1.534,0,0,1-.558,1.241,16.333,16.333,0,0,0,1.817,2.978c.3.421.6.865.9,1.314a8.1,8.1,0,0,1,1.821-.195,7.7,7.7,0,0,1,7.717,6.718,5.188,5.188,0,0,1,4.016-.73,3.957,3.957,0,0,1,2.639,2.054,17.765,17.765,0,0,0,6.99,2.267.844.844,0,0,1,.182.034h38.711a1.693,1.693,0,0,1,3.15.781A1.589,1.589,0,0,1,158,19.693a1.637,1.637,0,0,1-1.464-.808h-45.98a.769.769,0,0,1-.781-.781,4.957,4.957,0,0,0-.476-2.132.639.639,0,0,1-.091-.174,2.464,2.464,0,0,0-1.579-1.3,3.108,3.108,0,0,0-3.495,1.324l.835.525a1.671,1.671,0,0,1,2.493,1.418,1.668,1.668,0,0,1-3.334,0,.718.718,0,0,1,0-.086l-.666-.418c-.9,1.989-2.962,3.635-6.686,3.635a8.029,8.029,0,0,1-4.162-1.114l-.369.309a1.925,1.925,0,0,1,.042.395,1.668,1.668,0,0,1-3.334,0Zm4.963-1.8a6.53,6.53,0,0,0,2.794.608c2.734,0,4.629-1.057,5.37-2.911L99.7,14.878a1.86,1.86,0,0,1-1.363.1ZM79.065,16.47c.764,1.8,2.644,2.825,5.337,2.825a6.546,6.546,0,0,0,2.908-.654l-4.384-3.677a1.864,1.864,0,0,1-.609.1,1.839,1.839,0,0,1-.766-.166Zm12.088,2.482.159-.132a9.874,9.874,0,0,1-.72-.717,8.3,8.3,0,0,1-.646.662l.208.172a1.92,1.92,0,0,1,.472-.057A1.894,1.894,0,0,1,91.153,18.953Zm.434-2.088a6.665,6.665,0,0,0,.94.94l3-2.5a.8.8,0,0,1-.138.01,5.4,5.4,0,0,1-1.239-.14A8.765,8.765,0,0,1,91.587,16.865Zm-5.78-1.55,2.893,2.41a6.692,6.692,0,0,0,.852-.88,8.535,8.535,0,0,1-2.543-1.683A5.045,5.045,0,0,1,85.807,15.315ZM69.725,17.322h.185c0-.028.008-.057.013-.088C69.858,17.265,69.793,17.293,69.725,17.322Zm41.651-.034h.156l-.166-.073A.706.706,0,0,1,111.376,17.288ZM88.959,6.743c-.244.34-.488.683-.719,1.026a3.555,3.555,0,0,1,1.845,3.023,4.464,4.464,0,0,1-1.545,3.625,9.724,9.724,0,0,0,2.087,1.171,10.224,10.224,0,0,0,2.007-1.127,4.435,4.435,0,0,1-1.6-3.669,3.562,3.562,0,0,1,1.94-3.09c-.221-.33-.452-.66-.68-.958a16.614,16.614,0,0,1-1.667-2.586A19.468,19.468,0,0,1,88.959,6.743ZM78.687,14.465c0,.127.005.255.013.382l1.966-1.239c0-.055-.005-.109-.005-.166a1.668,1.668,0,0,1,3.334,0,1.965,1.965,0,0,1-.029.335l.984.821a.532.532,0,0,1,0-.065.766.766,0,0,1,.782-.782c.113,0,.224-.005.33-.013a6.079,6.079,0,0,1-.366-1.143,7.727,7.727,0,0,1,.317-3.952,6.645,6.645,0,0,0-1.166-.1A6.052,6.052,0,0,0,78.687,14.465Zm16.5-5.837a7.693,7.693,0,0,1,.3,3.968,6.043,6.043,0,0,1-.372,1.145c.089.008.176.01.27.01a.768.768,0,0,1,.782.782.783.783,0,0,1-.047.273l1.146-.956a1.992,1.992,0,0,1-.042-.408,1.668,1.668,0,0,1,3.334,0c0,.044,0,.086-.005.127l1.868,1.174c.005-.091.008-.184.008-.278a6.075,6.075,0,0,0-6.159-5.92A6.64,6.64,0,0,0,95.185,8.628Zm-2.552,2.2a2.851,2.851,0,0,0,1.013,2.42,4.44,4.44,0,0,0,.345-.992,6.128,6.128,0,0,0-.269-3.129A2,2,0,0,0,92.633,10.825Zm-5.375,1.428a4.364,4.364,0,0,0,.3.932,2.906,2.906,0,0,0,.924-2.36A1.979,1.979,0,0,0,87.5,9.212,6.156,6.156,0,0,0,87.258,12.253Z" transform="translate(0 0)"/>
  <g id="Group_40" data-name="Group 40" transform="translate(53.821 132.193)">
    <path id="Path_332" data-name="Path 332" class="cls-1" d="M15.82,38.87h.544l1.7,4.966,1.667-4.966h.544l-1.939,5.613h-.544Z" transform="translate(-15.82 -38.836)"/>
    <path id="Path_333" data-name="Path 333" class="cls-1" d="M17.866,41.511c0,.884.442,1.6,1.361,1.6a1.184,1.184,0,0,0,1.225-.918h.51a1.71,1.71,0,0,1-1.735,1.361c-1.293,0-1.837-.918-1.837-2.109A1.935,1.935,0,0,1,19.227,39.3c1.088,0,1.769.782,1.769,2.245H17.866Zm2.619-.374a1.281,1.281,0,0,0-1.259-1.429c-.816,0-1.259.646-1.361,1.429Z" transform="translate(-12.05 -37.803)"/>
    <path id="Path_334" data-name="Path 334" class="cls-1" d="M19.366,42.181a1.053,1.053,0,0,0,1.191.952c.68,0,.986-.374.986-.748,0-1.157-2.585-.34-2.585-1.939,0-.68.51-1.157,1.429-1.157a1.378,1.378,0,0,1,1.565,1.259h-.476a.965.965,0,0,0-1.089-.85c-.578,0-.918.272-.918.68,0,1.089,2.585.408,2.585,1.973,0,.782-.68,1.191-1.633,1.191a1.411,1.411,0,0,1-1.531-1.361Z" transform="translate(-8.447 -37.827)"/>
    <path id="Path_335" data-name="Path 335" class="cls-1" d="M22,44.17a1.707,1.707,0,0,1-.544.1c-.442,0-.714-.2-.714-.816V40.5H20.2v-.374h.578V39h.476v1.123H22V40.5H21.22v2.755c0,.408,0,.578.408.578A1.223,1.223,0,0,0,22,43.762v.408Z" transform="translate(-5.301 -38.524)"/>
    <path id="Path_336" data-name="Path 336" class="cls-1" d="M23.9,39.33h.476v4.014H23.9V42.8a1.593,1.593,0,0,1-1.293.68c-1.089,0-1.429-.646-1.429-1.5V39.33h.476v2.653c0,.68.306,1.089,1.02,1.089.782,0,1.225-.646,1.225-1.531Z" transform="translate(-2.948 -37.731)"/>
    <path id="Path_337" data-name="Path 337" class="cls-1" d="M24.695,42.077a1.986,1.986,0,0,0,.612-.136c.17-.068.17-.272.17-.408,0-.476-.272-.816-.986-.816-.646,0-1.089.2-1.191.918h-.476c.068-.952.782-1.327,1.667-1.327.816,0,1.463.306,1.463,1.259v2.177c0,.374.1.442.476.306v.374a1.05,1.05,0,0,1-.374.068.432.432,0,0,1-.2-.034c-.306-.034-.374-.306-.374-.612a1.941,1.941,0,0,1-1.5.68c-.714,0-1.361-.374-1.361-1.157,0-.68.476-1.088,1.395-1.225Zm.782.238a3.9,3.9,0,0,1-1.191.238c-.714.068-1.122.306-1.122.85,0,.476.442.714.884.714.748,0,1.463-.374,1.463-1.191v-.612Zm-1.5-2.347.85-1.089h.612l-1.054,1.089Z" transform="translate(0.511 -38.812)"/>
    <path id="Path_338" data-name="Path 338" class="cls-1" d="M24.666,43.416H24.19V39.4h.476v.748h0a1.226,1.226,0,0,1,1.327-.85v.51c-1.054-.034-1.327.748-1.327,1.667Z" transform="translate(4.281 -37.803)"/>
    <path id="Path_339" data-name="Path 339" class="cls-1" d="M25.18,39.55v-.68h.51v.68Zm.034,4.9V40.435h.476v4.014Z" transform="translate(6.659 -38.836)"/>
    <path id="Path_340" data-name="Path 340" class="cls-1" d="M25.83,41.409a1.884,1.884,0,1,1,3.742,0,1.884,1.884,0,1,1-3.742,0Zm1.871-1.7c-.986,0-1.361.816-1.361,1.7,0,.986.476,1.7,1.361,1.7.986,0,1.361-.85,1.361-1.7C29.062,40.457,28.687,39.708,27.7,39.708Z" transform="translate(8.22 -37.803)"/>
    <path id="Path_341" data-name="Path 341" class="cls-1" d="M28.28,44.473V38.86h3.606v.476h-3.1v2.007H31.58v.442H28.79v2.687Z" transform="translate(14.104 -38.86)"/>
    <path id="Path_342" data-name="Path 342" class="cls-1" d="M30.186,41.511c0,.884.442,1.6,1.361,1.6a1.184,1.184,0,0,0,1.225-.918h.51a1.71,1.71,0,0,1-1.735,1.361c-1.293,0-1.837-.918-1.837-2.109A1.935,1.935,0,0,1,31.547,39.3c1.088,0,1.769.782,1.769,2.245H30.186Zm2.653-.374a1.281,1.281,0,0,0-1.259-1.429c-.816,0-1.259.646-1.361,1.429Z" transform="translate(17.538 -37.803)"/>
    <path id="Path_343" data-name="Path 343" class="cls-1" d="M31.726,43.416H31.25V39.4h.476v.612h0a1.4,1.4,0,0,1,1.259-.714,1.1,1.1,0,0,1,1.191.782A1.44,1.44,0,0,1,35.5,39.3c1.089,0,1.259.782,1.259,1.6V43.45h-.476V40.661c0-.578-.2-.918-.85-.918a1.141,1.141,0,0,0-.918.442,2,2,0,0,0-.272,1.089V43.45h-.476V40.661c0-.578-.2-.918-.85-.918a1.141,1.141,0,0,0-.918.442,2,2,0,0,0-.272,1.089Z" transform="translate(21.236 -37.803)"/>
    <path id="Path_344" data-name="Path 344" class="cls-1" d="M33.42,39.55v-.68h.51v.68Zm0,4.9V40.435H33.9v4.014Z" transform="translate(26.448 -38.836)"/>
    <path id="Path_345" data-name="Path 345" class="cls-1" d="M34.616,43.44H34.14V39.426h.476v.544a1.7,1.7,0,0,1,1.293-.68,1.309,1.309,0,0,1,1.429,1.5v2.619h-.476V40.787c0-.714-.306-1.088-1.054-1.088a1.168,1.168,0,0,0-1.123.782,1.9,1.9,0,0,0-.1.748V43.44Z" transform="translate(28.177 -37.827)"/>
    <path id="Path_346" data-name="Path 346" class="cls-1" d="M35.65,39.55v-.68h.51v.68Zm.034,4.9V40.435h.476v4.014Z" transform="translate(31.803 -38.836)"/>
    <path id="Path_347" data-name="Path 347" class="cls-1" d="M36.846,43.44H36.37V39.426h.476v.544a1.7,1.7,0,0,1,1.293-.68,1.309,1.309,0,0,1,1.429,1.5v2.619h-.476V40.787c0-.714-.306-1.088-1.054-1.088a1.168,1.168,0,0,0-1.123.782,1.9,1.9,0,0,0-.1.748V43.44Z" transform="translate(33.532 -37.827)"/>
    <path id="Path_348" data-name="Path 348" class="cls-1" d="M37.8,41.409a1.884,1.884,0,1,1,3.742,0,1.893,1.893,0,0,1-1.871,2.109A1.858,1.858,0,0,1,37.8,41.409Zm1.837-1.7c-.986,0-1.361.816-1.361,1.7,0,.986.476,1.7,1.361,1.7.986,0,1.361-.85,1.361-1.7C41,40.457,40.623,39.708,39.637,39.708Z" transform="translate(36.967 -37.803)"/>
  </g>
  <path id="Union_14" data-name="Union 14" class="cls-1" d="M2.552,25.888a2.7,2.7,0,0,1-1.533-1.02,2.848,2.848,0,0,1-.545-1.6,3.908,3.908,0,0,1,.477-2.041A8.852,8.852,0,0,1,4.967,17.62a23.353,23.353,0,0,1,2.586-1.155,29.14,29.14,0,0,1,3.2-1.054c.307-.953.579-1.906.782-2.822s.374-1.771.511-2.519c-.272.441-.579.852-.852,1.226-.307.408-.576.781-.886,1.122A19.475,19.475,0,0,1,7.654,15.07a11.8,11.8,0,0,1-2.213,1.394A5.208,5.208,0,0,1,3.4,16.94H2.994A3.126,3.126,0,0,1,.545,15.377,4.861,4.861,0,0,1,.17,14.39,5.422,5.422,0,0,1,0,13.268a7.92,7.92,0,0,1,.475-2.687,18.7,18.7,0,0,1,.852-2.075A21.248,21.248,0,0,1,2.381,6.6,20.543,20.543,0,0,1,4.727,3.64,10.474,10.474,0,0,1,6.021,2.552a9.487,9.487,0,0,1,1.5-.852,5.177,5.177,0,0,1,1.566-.441,3.364,3.364,0,0,1,1.533.137,4.831,4.831,0,0,1,1.6.883,4.407,4.407,0,0,1,1.02,1.259,3.125,3.125,0,0,1,.34,1.428,2.332,2.332,0,0,1-.442,1.394.486.486,0,0,1-.373.239,1.668,1.668,0,0,1-.579,0,5.705,5.705,0,0,1-.647-.135,2.4,2.4,0,0,1-.579-.239,1.21,1.21,0,0,1-.374-.239c-.067-.1-.1-.169-.033-.239a2.429,2.429,0,0,0,.679-1.054,2.293,2.293,0,0,0,.138-1.054,1.842,1.842,0,0,0-.306-.849,1.377,1.377,0,0,0-.58-.511,1.36,1.36,0,0,0-1.088.034A4.743,4.743,0,0,0,8.2,3.131,8.778,8.778,0,0,0,6.974,4.56c-.407.579-.818,1.189-1.192,1.836A20.266,20.266,0,0,0,4.727,8.506a22.163,22.163,0,0,0-.882,2.176A7.35,7.35,0,0,0,3.334,13.4a2.588,2.588,0,0,0,.511,1.633,1.513,1.513,0,0,0,1.36.408,4.049,4.049,0,0,0,1.971-1.021A16.042,16.042,0,0,0,9.8,11.77a31.026,31.026,0,0,0,2.552-3.64.644.644,0,0,1,.374-.236c.2-.067.407-.138.681-.2a6.361,6.361,0,0,1,.849-.135,3.045,3.045,0,0,1,.784,0,2.078,2.078,0,0,1,.576.135.273.273,0,0,1,.2.34c-.067.885-.2,1.872-.373,2.96S15,13.2,14.7,14.356c.575-.138,1.121-.239,1.6-.306.477-.1.919-.172,1.259-.239l.029-.006c0-.02,0-.041.005-.062a12.7,12.7,0,0,1,.511-1.872c.273-.815.61-1.7,1.02-2.651.374-.953.782-1.94,1.223-2.926s.818-1.906,1.158-2.755.613-1.532.782-2.108c.205-.579.24-.885.136-.987-.1-.068-.034-.172.137-.273A1.343,1.343,0,0,1,23.234,0a2.013,2.013,0,0,1,.849.171A1.2,1.2,0,0,1,24.7.987a2.47,2.47,0,0,1-.067,1.293,16.34,16.34,0,0,1-.646,1.94q-.409,1.071-1.021,2.347c-.373.849-.782,1.667-1.192,2.482s-.782,1.6-1.122,2.381c-.34.748-.646,1.428-.849,2.007a4.87,4.87,0,0,0-.374,1.361c-.033.34.068.478.307.478.135,0,.3-.138.509-.306a5.619,5.619,0,0,0,.68-.784c.24-.306.511-.68.782-1.054s.511-.782.751-1.155.441-.748.646-1.124l.016-.029.014-.039A9.4,9.4,0,0,1,24.22,8.675a7.5,7.5,0,0,1,1.256-1.428,3.72,3.72,0,0,1,1.361-.781,4.174,4.174,0,0,1,1.43-.239,1.371,1.371,0,0,1,.509.1,1.751,1.751,0,0,1,.511.239,1.3,1.3,0,0,1,.407.441,1.34,1.34,0,0,1,.17.68.735.735,0,0,1-.2.613.461.461,0,0,1-.411.169A.726.726,0,0,1,28.81,8.3a.608.608,0,0,1-.272-.511.551.551,0,0,1,.1-.3.766.766,0,0,1,.236-.239.313.313,0,0,0-.3-.239.926.926,0,0,0-.614.239,4.08,4.08,0,0,0-.748.782A8.089,8.089,0,0,0,26.4,9.288c-.272.509-.579,1.054-.849,1.667a11.165,11.165,0,0,0-.444,1.257,9.505,9.505,0,0,0-.2,1.293,3.582,3.582,0,0,0,.135,1.09.948.948,0,0,0,.511.61.584.584,0,0,0,.577-.068,2.372,2.372,0,0,0,.612-.579c.206-.27.408-.576.647-.917.239-.374.442-.748.647-1.124.2-.408.407-.782.613-1.189s.374-.748.542-1.088c.205-.444.377-.852.546-1.26s.34-.748.442-1.054a3.017,3.017,0,0,0,.239-.818c.033-.236.033-.374-.067-.441s-.034-.169.135-.273a1.35,1.35,0,0,1,.68-.169,2.009,2.009,0,0,1,.852.169,1.221,1.221,0,0,1,.614.818,2.333,2.333,0,0,1-.071,1.428,11.133,11.133,0,0,1-.68,1.734c-.273.613-.61,1.192-.916,1.8a17.617,17.617,0,0,0-.817,1.566,3.255,3.255,0,0,0-.374,1.122c-.034.273.1.408.407.374.137,0,.272-.135.511-.306a9.134,9.134,0,0,0,.714-.782c.239-.306.509-.68.782-1.054a10.9,10.9,0,0,0,.748-1.156c.239-.374.444-.75.647-1.124.048-.08.09-.158.129-.234.173-.422.346-.821.517-1.194.205-.475.374-.883.546-1.259a3.466,3.466,0,0,0,.307-.95.6.6,0,0,0-.034-.512c-.1-.068-.034-.169.135-.273a1.347,1.347,0,0,1,.68-.169,2.018,2.018,0,0,1,.852.169,1.222,1.222,0,0,1,.612.818,2.325,2.325,0,0,1-.07,1.428,11.142,11.142,0,0,1-.681,1.734c-.272.613-.612,1.192-.916,1.8-.343.579-.612,1.124-.817,1.566a3.274,3.274,0,0,0-.374,1.122c-.033.273.1.408.407.374.172,0,.408-.169.714-.509a12.665,12.665,0,0,0,.986-1.192c.341-.475.681-.987,1.021-1.5a13.779,13.779,0,0,0,.818-1.428c.2-.478.407-.919.576-1.361.205-.444.373-.818.511-1.192.136-.34.236-.647.306-.883s.034-.41-.07-.478-.033-.169.137-.273a1.353,1.353,0,0,1,.681-.169,2.014,2.014,0,0,1,.852.169,1.218,1.218,0,0,1,.61.818,2.3,2.3,0,0,1-.068,1.428,11.2,11.2,0,0,1-.679,1.734c-.274.613-.614,1.192-.92,1.8a17.521,17.521,0,0,0-.815,1.566,3.255,3.255,0,0,0-.374,1.122c-.034.273.1.41.407.374.136,0,.273-.135.511-.3a9.413,9.413,0,0,0,.714-.784c.239-.306.509-.68.782-1.054s.509-.782.748-1.155c.173-.271.329-.542.478-.815.053-.165.108-.324.169-.478A9.415,9.415,0,0,1,44.05,8.574a7.545,7.545,0,0,1,1.26-1.428,3.685,3.685,0,0,1,1.36-.784A4.22,4.22,0,0,1,48.1,6.125a1.383,1.383,0,0,1,.511.1,1.661,1.661,0,0,1,.509.239,1.256,1.256,0,0,1,.408.441,1.324,1.324,0,0,1,.171.68.834.834,0,0,1-.171.579.547.547,0,0,1-.442.2.712.712,0,0,1-.442-.169.375.375,0,0,1-.273-.41.54.54,0,0,1,.1-.3.774.774,0,0,1,.239-.239.316.316,0,0,0-.307-.239.927.927,0,0,0-.612.239,4.134,4.134,0,0,0-.748.782,7.852,7.852,0,0,0-.815,1.259c-.273.509-.579,1.054-.852,1.667a9.449,9.449,0,0,0-.442,1.293,10.454,10.454,0,0,0-.205,1.327,3.5,3.5,0,0,0,.1,1.088.746.746,0,0,0,.509.543,1.591,1.591,0,0,0,.953-.135,3.981,3.981,0,0,0,1.054-.647,9.381,9.381,0,0,0,1.054-.987,10.446,10.446,0,0,0,.954-1.189,12.72,12.72,0,0,0,.815-1.226A8.075,8.075,0,0,0,50.718,9.9a.3.3,0,0,1,.084-.136c.052-.116.1-.23.155-.342.2-.475.374-.883.543-1.257a5.439,5.439,0,0,0,.34-.953c.067-.239.034-.444-.067-.512s-.034-.169.135-.273a1.354,1.354,0,0,1,.68-.169,2.017,2.017,0,0,1,.852.169,1.222,1.222,0,0,1,.612.818,2.332,2.332,0,0,1-.07,1.428,11.447,11.447,0,0,1-.678,1.734c-.306.613-.613,1.192-.92,1.8-.34.579-.612,1.124-.815,1.566a3.325,3.325,0,0,0-.377,1.122c-.033.273.1.41.41.377.136,0,.3-.138.509-.306a5.675,5.675,0,0,0,.681-.784c.239-.306.511-.68.782-1.054s.511-.782.784-1.155c.236-.374.442-.748.646-1.124.02-.033.038-.065.055-.1a9.528,9.528,0,0,1,1.066-2.046,7.493,7.493,0,0,1,1.256-1.428A3.717,3.717,0,0,1,58.744,6.5a4.174,4.174,0,0,1,1.43-.239,1.366,1.366,0,0,1,.509.1A1.754,1.754,0,0,1,61.2,6.6a1.313,1.313,0,0,1,.407.441,1.349,1.349,0,0,1,.169.68.735.735,0,0,1-.2.613.461.461,0,0,1-.407.171.73.73,0,0,1-.444-.171.709.709,0,0,1-.273-.545.551.551,0,0,1,.1-.3.747.747,0,0,1,.239-.239.317.317,0,0,0-.306-.239.928.928,0,0,0-.614.239,4.053,4.053,0,0,0-.747.782A8.028,8.028,0,0,0,58.3,9.288c-.273.509-.58,1.054-.849,1.667a11.164,11.164,0,0,0-.445,1.257,9.5,9.5,0,0,0-.2,1.293,3.582,3.582,0,0,0,.135,1.09.94.94,0,0,0,.512.61.582.582,0,0,0,.576-.068,2.347,2.347,0,0,0,.613-.579,3.922,3.922,0,0,0,.647-.883c.239-.374.441-.748.646-1.122.205-.41.407-.784.613-1.192s.374-.748.542-1.088c.205-.444.377-.852.546-1.259s.339-.748.441-1.054a3,3,0,0,0,.239-.815c.034-.239.034-.377-.067-.444s-.034-.169.136-.273a1.347,1.347,0,0,1,.68-.169,2.014,2.014,0,0,1,.852.169,1.33,1.33,0,0,1,.613.818,2.332,2.332,0,0,1-.07,1.428,11.218,11.218,0,0,1-.681,1.734c-.27.613-.613,1.192-.916,1.8-.34.579-.613,1.124-.817,1.566A3.255,3.255,0,0,0,61.67,14.9c-.033.273.1.41.407.374.137,0,.273-.135.511-.3a9.412,9.412,0,0,0,.714-.784c.273-.306.509-.68.782-1.054a11.229,11.229,0,0,0,.75-1.155c.236-.374.442-.748.644-1.124A8.941,8.941,0,0,0,65.89,10a.305.305,0,0,1,.2-.2.379.379,0,0,1,.272,0,.477.477,0,0,1,.205.171.373.373,0,0,1,0,.273c-.1.236-.273.543-.477.95s-.442.818-.714,1.259-.58.919-.886,1.361a12,12,0,0,1-.984,1.259,6.379,6.379,0,0,1-1.019.919,1.821,1.821,0,0,1-1.021.374,1.176,1.176,0,0,1-1.158-.613,2.707,2.707,0,0,1-.272-1.7,6.688,6.688,0,0,1-.816,1.122,3.491,3.491,0,0,1-.919.818,3.033,3.033,0,0,1-1.054.374,2.382,2.382,0,0,1-1.226-.239,2.2,2.2,0,0,1-1.155-.953,3.153,3.153,0,0,1-.408-1.361,4.939,4.939,0,0,1,.02-.9c-.173.269-.352.54-.532.8a12.11,12.11,0,0,1-.984,1.259,5.183,5.183,0,0,1-1.057.917,1.787,1.787,0,0,1-1.021.374,1.08,1.08,0,0,1-.679-.169,1.7,1.7,0,0,1-.476-.511,1.93,1.93,0,0,1-.239-.815,5.221,5.221,0,0,1,0-1.021c.035-.227.079-.464.132-.706l-.1.127a12.136,12.136,0,0,1-1.257,1.394,6.6,6.6,0,0,1-1.394,1.057,4.818,4.818,0,0,1-1.465.543,2.7,2.7,0,0,1-1.462-.169,2.2,2.2,0,0,1-1.158-.953,3.174,3.174,0,0,1-.407-1.361,4.754,4.754,0,0,1,.016-.864c-.192.3-.391.607-.593.9a12.908,12.908,0,0,1-.986,1.259,6.132,6.132,0,0,1-1.021.917,1.793,1.793,0,0,1-1.02.374,1.072,1.072,0,0,1-.68-.169,1.7,1.7,0,0,1-.477-.511,1.918,1.918,0,0,1-.237-.815,5.221,5.221,0,0,1,0-1.021.44.44,0,0,1,.034-.205c0-.068.034-.135.034-.2a13.016,13.016,0,0,1-.784,1.088,7.177,7.177,0,0,1-.85.919,4.906,4.906,0,0,1-.849.647,1.515,1.515,0,0,1-.817.236,1.077,1.077,0,0,1-.68-.169A1.725,1.725,0,0,1,33,15.545a1.882,1.882,0,0,1-.239-.815,5.09,5.09,0,0,1,0-1.02c.012-.08.026-.161.04-.243q-.1.158-.211.31a12.091,12.091,0,0,1-.987,1.259,6.091,6.091,0,0,1-1.019.919,1.813,1.813,0,0,1-1.019.374,1.176,1.176,0,0,1-1.158-.613,2.7,2.7,0,0,1-.272-1.7,6.876,6.876,0,0,1-.816,1.122,3.487,3.487,0,0,1-.92.818,3.075,3.075,0,0,1-1.054.374,2.38,2.38,0,0,1-1.226-.239,2.2,2.2,0,0,1-1.156-.953,3.163,3.163,0,0,1-.407-1.361,4.9,4.9,0,0,1,.023-.923c-.183.288-.376.579-.568.856a12.613,12.613,0,0,1-.987,1.259,6.128,6.128,0,0,1-1.02.917,1.793,1.793,0,0,1-1.021.374,1.076,1.076,0,0,1-.679-.169,1.7,1.7,0,0,1-.476-.511,1.918,1.918,0,0,1-.239-.815c0-.04-.009-.081-.012-.123l-.124.022c-.376.067-.817.135-1.36.236-.511.1-1.09.205-1.667.34-.2.613-.41,1.226-.646,1.838a17.344,17.344,0,0,1-.815,1.768A14.865,14.865,0,0,1,9.628,23.3a11.043,11.043,0,0,1-5,2.586,5.3,5.3,0,0,1-1.02.135A3.2,3.2,0,0,1,2.552,25.888Zm2.007-7.211a7.225,7.225,0,0,0-2.926,2.789,3.992,3.992,0,0,0-.374,1.563A2.089,2.089,0,0,0,1.7,24.288a.878.878,0,0,0,.714.306,3.831,3.831,0,0,0,1.158-.169,7.085,7.085,0,0,0,1.394-.613,8.182,8.182,0,0,0,1.462-1.021,9.908,9.908,0,0,0,1.428-1.5,13.961,13.961,0,0,0,1.158-1.768,11.685,11.685,0,0,0,.849-1.768,10.628,10.628,0,0,0,.511-1.462A26.791,26.791,0,0,0,4.559,18.677ZM76.4,20.92a1.273,1.273,0,0,1-.579-.815,2.543,2.543,0,0,1,.033-1.122c.1-.511.24-1.124.445-1.8s.442-1.428.713-2.243.577-1.633.883-2.485c-.58,0-1.088.034-1.566.068a7.089,7.089,0,0,0-1.291.2,2.234,2.234,0,0,0-.852.408,1.546,1.546,0,0,0-.408.885.4.4,0,0,1-.168.374.22.22,0,0,1-.307-.034.771.771,0,0,1-.273-.408,2.062,2.062,0,0,1-.067-.852,1.6,1.6,0,0,1,.509-1.156,3.012,3.012,0,0,1,1.192-.613,6.218,6.218,0,0,1,1.7-.205c.646,0,1.324,0,2.007.068q.4-1.172.815-2.243c.239-.714.475-1.36.646-1.94s.307-1.02.374-1.394.067-.579,0-.68c-.067-.068-.034-.1.033-.205a1.1,1.1,0,0,1,.442-.169c.205-.034.41-.068.647-.1a2.212,2.212,0,0,1,.68.068,1.808,1.808,0,0,1,.579.306.751.751,0,0,1,.274.613A4.174,4.174,0,0,1,82.8,6.533c-.07.408-.171.883-.306,1.394s-.307,1.054-.512,1.667c-.2.577-.442,1.189-.646,1.8a19.068,19.068,0,0,0,1.973.034,15.07,15.07,0,0,0,1.839-.1,6.663,6.663,0,0,0,1.394-.306c.374-.135.576-.306.609-.512s.1-.3.24-.3a.571.571,0,0,1,.374.135A.81.81,0,0,1,88,10.75a.483.483,0,0,1-.205.478,2.926,2.926,0,0,1-.748.442,6.388,6.388,0,0,1-1.36.442,12.89,12.89,0,0,1-2.041.306c-.781.067-1.735.137-2.788.137-.34.849-.681,1.664-.987,2.516-.34.815-.613,1.6-.886,2.313s-.475,1.361-.646,1.94a3.683,3.683,0,0,0-.2,1.324c0,.138-.1.239-.273.34a1.415,1.415,0,0,1-.68.171A1.385,1.385,0,0,1,76.4,20.92Zm21.8-4.8a1.385,1.385,0,0,1-.545-.815,2.3,2.3,0,0,1,.033-1.259c.049-.183.1-.375.16-.572-.052.078-.1.155-.158.231a12.482,12.482,0,0,1-.986,1.259,6.128,6.128,0,0,1-1.02.917,1.8,1.8,0,0,1-1.02.374,1.075,1.075,0,0,1-.681-.169,1.691,1.691,0,0,1-.477-.511,1.906,1.906,0,0,1-.236-.815,5.092,5.092,0,0,1,0-1.021,11.6,11.6,0,0,1,.3-1.394c.171-.511.34-.987.546-1.5s.407-.984.613-1.428c.2-.475.374-.883.542-1.257a3.334,3.334,0,0,0,.307-.953A.589.589,0,0,0,95.55,6.7c-.1-.068-.034-.169.137-.273a1.34,1.34,0,0,1,.68-.169,2.012,2.012,0,0,1,.849.169,1.321,1.321,0,0,1,.613.818,2.336,2.336,0,0,1-.068,1.428,11.3,11.3,0,0,1-.68,1.734c-.306.613-.612,1.192-.919,1.8-.34.579-.612,1.124-.816,1.566a3.3,3.3,0,0,0-.373,1.122c-.037.273.1.41.407.377.136,0,.307-.138.509-.306a5.4,5.4,0,0,0,.68-.784c.24-.306.511-.68.784-1.054s.509-.782.782-1.155c.24-.374.442-.748.647-1.124A9.02,9.02,0,0,0,99.19,10a.311.311,0,0,1,.113-.159c.163-.357.32-.7.465-1.032a8.593,8.593,0,0,0,.509-1.361c.1-.374.1-.61,0-.714-.1-.067-.033-.169.136-.27a1.331,1.331,0,0,1,.683-.172,1.971,1.971,0,0,1,.849.172,1.313,1.313,0,0,1,.613.815,1.6,1.6,0,0,1,.067.579,2.171,2.171,0,0,1-.1.647,8.739,8.739,0,0,1,.782-.852,7.605,7.605,0,0,1,.782-.714,3.9,3.9,0,0,1,.783-.475,1.479,1.479,0,0,1,.748-.172,1.2,1.2,0,0,1,1.156.68,4.419,4.419,0,0,1,.1,1.734,5.762,5.762,0,0,1-.306,1.428c-.172.512-.377.987-.58,1.5-.239.475-.442.953-.68,1.394a7.532,7.532,0,0,0-.511,1.122,1.423,1.423,0,0,0-.135.784c.033.2.168.3.441.3a.835.835,0,0,0,.511-.3c.2-.205.442-.444.714-.751.24-.306.511-.68.782-1.054.273-.408.546-.782.782-1.189.239-.374.444-.75.647-1.124a6.582,6.582,0,0,0,.41-.883.3.3,0,0,1,.2-.205.381.381,0,0,1,.274,0,.446.446,0,0,1,.2.171.376.376,0,0,1,0,.27c-.1.239-.273.545-.478.953s-.441.818-.713,1.259-.579.919-.883,1.361A12.581,12.581,0,0,1,106.573,15a6.132,6.132,0,0,1-1.021.917,1.8,1.8,0,0,1-1.02.377.912.912,0,0,1-.68-.205,1.6,1.6,0,0,1-.477-.579,2.12,2.12,0,0,1-.24-.815,4.145,4.145,0,0,1,0-.919,9.551,9.551,0,0,1,.377-1.633,15.942,15.942,0,0,1,.61-1.529c.239-.478.444-.953.646-1.361s.377-.784.478-1.054a1.41,1.41,0,0,0,.1-.68c-.034-.172-.2-.239-.476-.239a1.386,1.386,0,0,0-.613.34,9.819,9.819,0,0,0-.885.849c-.307.34-.647.717-.953,1.124a11.429,11.429,0,0,0-.85,1.189c-.239.512-.511,1.054-.781,1.566s-.512.987-.751,1.462A9.627,9.627,0,0,0,99.564,15a1.115,1.115,0,0,0,0,.816c.067.1,0,.2-.138.34a.86.86,0,0,1-.542.171A1.326,1.326,0,0,1,98.2,16.124ZM72.659,8.981a2.478,2.478,0,0,1-.886-.475,1.913,1.913,0,0,1-.58-.784A2.045,2.045,0,0,1,71.059,6.7,5.8,5.8,0,0,1,71.5,4.8a6.082,6.082,0,0,1,2.485-2.757,6.32,6.32,0,0,1,1.768-.748,6.2,6.2,0,0,1,1.87-.169c.751.034,1.532.1,2.382.2s1.734.273,2.619.444,1.768.34,2.586.509,1.6.306,2.311.444a9.818,9.818,0,0,0,1.77.2,9.17,9.17,0,0,0,1.7-.068,7.066,7.066,0,0,0,1.394-.306,2.029,2.029,0,0,0,.919-.579,1.062,1.062,0,0,0,.237-.849c-.034-.138.07-.205.306-.205a2.035,2.035,0,0,1,.818.205,3.451,3.451,0,0,1,.849.576,1.2,1.2,0,0,1,.477.953,2.858,2.858,0,0,1-.07.751,2.113,2.113,0,0,1-.34.748,2.042,2.042,0,0,1-.782.576A3.434,3.434,0,0,1,93.509,5a9.487,9.487,0,0,1-2.21-.2c-.919-.171-1.905-.374-2.994-.579-1.088-.239-2.212-.475-3.368-.748s-2.28-.511-3.334-.714-2.007-.376-2.89-.478a6.733,6.733,0,0,0-2.006-.034,3.267,3.267,0,0,0-1.021.34,3.807,3.807,0,0,0-.852.579,2.993,2.993,0,0,0-.579.748,1.891,1.891,0,0,0-.236.852,2.156,2.156,0,0,0,.135.95,2.711,2.711,0,0,0,.512.714,2.3,2.3,0,0,0,.815.41,2.724,2.724,0,0,0,1.054.034c.138-.034.138.067.034.273a2.886,2.886,0,0,1-.542.748,4.835,4.835,0,0,1-.987.782,2.947,2.947,0,0,1-1.26.441c-.1.008-.19.012-.282.012A2.244,2.244,0,0,1,72.659,8.981ZM97.217,5.172a1.788,1.788,0,0,1-.68-.478,1.247,1.247,0,0,1-.307-.849,1.231,1.231,0,0,1,.138-.374c.067-.137.169-.306.269-.478s.205-.34.273-.475a.627.627,0,0,0,.138-.34c0-.1.1-.138.306-.138a1.848,1.848,0,0,1,.681.172,2.292,2.292,0,0,1,.679.475,1.113,1.113,0,0,1,.307.818.938.938,0,0,1-.1.34,3.079,3.079,0,0,1-.236.475c-.07.171-.171.306-.239.478s-.136.3-.24.34c0,.1-.1.169-.306.169A1.744,1.744,0,0,1,97.217,5.172Zm-43.777,0a1.791,1.791,0,0,1-.681-.478,1.23,1.23,0,0,1-.306-.849,1.275,1.275,0,0,1,.135-.374c.071-.137.171-.306.273-.478s.205-.34.273-.475a.636.636,0,0,0,.135-.34c0-.1.1-.138.307-.138a1.82,1.82,0,0,1,.68.172,2.222,2.222,0,0,1,.68.475,1.1,1.1,0,0,1,.306.818.917.917,0,0,1-.1.34,2.889,2.889,0,0,1-.24.475c-.067.171-.168.306-.236.478s-.1.3-.239.34c0,.1-.1.169-.307.169A1.732,1.732,0,0,1,53.44,5.172Z" transform="translate(36.167 105.388)"/>
</svg>
