<svg id="Logo_Breno_Cortella_Advogado" data-name="Logo Breno Cortella Advogado" xmlns="http://www.w3.org/2000/svg" viewBox="0 0 292.799 142.96">
  <defs>
    <style>
      .cls-1 {
        fill: rgba(0,0,0,0.4);
      }

      .cls-2 {
        fill: #742638;
      }

      .cls-3 {
        opacity: 0.99;
      }
    </style>
  </defs>
  <g id="Group_219" data-name="Group 219" transform="translate(101.057 0)">
    <g id="Group_193" data-name="Group 193" transform="translate(20.765 22.76)">
      <path id="Path_493" data-name="Path 493" class="cls-1" d="M17.147,42.743H6.87l6.5-35.213h8.04ZM8.563,41.2h7.375l4.171-32.13H14.215Z" transform="translate(-6.87 -7.53)"/>
    </g>
    <g id="Group_194" data-name="Group 194" transform="translate(59.968 22.911)">
      <path id="Path_494" data-name="Path 494" class="cls-1" d="M33.835,42.642H23.558L19.84,7.58h8.07ZM24.8,41.1h7.375L27.034,9.122H21.14Z" transform="translate(-19.84 -7.58)"/>
    </g>
    <g id="Group_195" data-name="Group 195" transform="translate(23.365 26.085)">
      <line id="Line_1" data-name="Line 1" class="cls-2" x1="5.35" y2="31.888"/>
    </g>
    <g id="Group_196" data-name="Group 196" transform="translate(22.639 26.085)">
      <path id="Path_495" data-name="Path 495" class="cls-1" d="M8.911,40.518H7.49L13.021,8.63H14.14Z" transform="translate(-7.49 -8.63)"/>
    </g>
    <g id="Group_199" data-name="Group 199" transform="translate(61.782 26.085)">
      <g id="Group_197" data-name="Group 197" transform="translate(0.574)">
        <line id="Line_2" data-name="Line 2" class="cls-2" x2="3.899" y2="31.888"/>
      </g>
      <g id="Group_198" data-name="Group 198">
        <path id="Path_496" data-name="Path 496" class="cls-1" d="M25.639,40.518H24.218L20.44,8.63h1.149Z" transform="translate(-20.44 -8.63)"/>
      </g>
    </g>
    <g id="Group_200" data-name="Group 200" transform="translate(42.528 22.911)">
      <path id="Path_497" data-name="Path 497" class="cls-1" d="M24.347,42.642H14.07L15.46,7.58h8.07ZM15.521,41.1H22.9L22.412,9.122H16.518Z" transform="translate(-14.07 -7.58)"/>
    </g>
    <g id="Group_201" data-name="Group 201" transform="translate(19.163)">
      <path id="Path_498" data-name="Path 498" class="cls-1" d="M63.406,21.1H57.573l-.151-.091L34.692,4.473,12.294,21.1H6.34L34.752,0Zm-5.834-1.39h1.481L34.722,1.572,10.6,19.707h1.693L34.722,2.871Z" transform="translate(-6.34)"/>
    </g>
    <g id="Group_202" data-name="Group 202" transform="translate(27.354 20.886)">
      <line id="Line_3" data-name="Line 3" class="cls-2" x2="40.261"/>
    </g>
    <g id="Group_203" data-name="Group 203" transform="translate(27.203 20.221)">
      <path id="Path_499" data-name="Path 499" class="cls-1" d="M49.533,8.05H9l.272-1.36H49.291Z" transform="translate(-9 -6.69)"/>
    </g>
    <g id="Group_204" data-name="Group 204" transform="translate(13.571 59.938)">
      <line id="Line_4" data-name="Line 4" class="cls-2" x2="66.467"/>
    </g>
    <g id="Group_205" data-name="Group 205" transform="translate(13.36 58.971)">
      <path id="Path_500" data-name="Path 500" class="cls-1" d="M71.31,21.444H4.42l.423-1.934H70.887Z" transform="translate(-4.42 -19.51)"/>
    </g>
    <g id="Group_206" data-name="Group 206" transform="translate(0 61.782)">
      <path id="Path_501" data-name="Path 501" class="cls-1" d="M91.463,26.969H88.38L87.564,23.7H85.237l-.756-3.264H9.249L8.433,23.7H6.166L5.29,26.969H2.267L0,35.069H93.609ZM10.216,22.374H83.454l.3,1.33H9.914ZM7.194,25.639H86.476l.3,1.3H6.861Zm-4.9,7.5L3.416,28.9H90.224l1.088,4.232Z" transform="translate(0 -20.44)"/>
    </g>
    <g id="Group_207" data-name="Group 207" transform="translate(29.228 5.864)">
      <path id="Path_502" data-name="Path 502" class="cls-1" d="M28.078,1.94,9.67,15.421H46.153Zm-.03,1.572L42.012,14.061H13.841Z" transform="translate(-9.67 -1.94)"/>
    </g>
  </g>
  <g id="Group_222" data-name="Group 222" transform="translate(0 93.505)">
    <g id="Group_172" data-name="Group 172" class="cls-3" transform="translate(0.047 24.798)">
      <rect id="Rectangle_132" data-name="Rectangle 132" class="cls-1" width="292.751" height="1.846"/>
    </g>
    <g id="Group_192" data-name="Group 192" class="cls-3">
      <g id="Group_173" data-name="Group 173" transform="translate(0 0.379)">
        <path id="Path_474" data-name="Path 474" class="cls-1" d="M36.4,16.212c0-3.455,0-4.07-.047-4.733-.047-.757-.237-1.088-.947-1.23a4.071,4.071,0,0,0-.757-.047c-.095,0-.189-.047-.189-.142,0-.142.095-.189.331-.189.994,0,2.366.047,2.508.047.521,0,1.372-.047,2.414-.047,3.6,0,4.4,2.177,4.4,3.313,0,1.8-1.041,2.887-2.082,3.975,1.609.521,3.786,2.082,3.786,4.638,0,2.366-1.846,4.78-5.632,4.78-.237,0-.947-.047-1.562-.047-.615-.047-1.278-.047-1.325-.047h-.9c-.426,0-.947.047-1.278.047-.237,0-.331-.047-.331-.189,0-.047.047-.142.189-.142a3.2,3.2,0,0,0,.663-.095c.426-.095.568-.568.615-1.23.095-.946.095-2.65.095-4.78V16.212Zm1.751.521a.219.219,0,0,0,.142.237,10.739,10.739,0,0,0,1.325.095c1.23,0,1.562-.047,1.988-.568a3.346,3.346,0,0,0,.8-2.224c0-1.846-.8-3.786-2.981-3.786a4.245,4.245,0,0,0-1.041.095c-.189.047-.284.095-.284.237v5.916Zm0,2.319v4.733c.047,1.088.047,1.372.757,1.7a5.364,5.364,0,0,0,1.94.331A2.939,2.939,0,0,0,43.972,22.7a5.255,5.255,0,0,0-2.13-4.4A3.266,3.266,0,0,0,40,17.679c-.284-.047-1.372-.047-1.7-.047a.125.125,0,0,0-.142.142Z" transform="translate(-34.46 -9.87)"/>
      </g>
      <g id="Group_174" data-name="Group 174" transform="translate(14.529 2.84)">
        <path id="Path_475" data-name="Path 475" class="cls-1" d="M39.186,15.785c0-2.887,0-3.455-.047-4.023-.047-.615-.142-.946-.8-1.041-.142,0-.473-.047-.663-.047a.213.213,0,0,1-.142-.142c0-.095.095-.142.331-.142.9,0,2.177.047,2.272.047.189,0,1.846-.047,2.414-.047a6.22,6.22,0,0,1,3.6.8,3.227,3.227,0,0,1,1.325,2.556c0,1.372-.568,2.745-2.366,4.259a58.8,58.8,0,0,0,4.07,4.827,3.422,3.422,0,0,0,2.177,1.278,4.888,4.888,0,0,0,.663.047.211.211,0,0,1,.189.142c0,.095-.095.142-.473.142H50.5a3.868,3.868,0,0,1-2.082-.379,9.155,9.155,0,0,1-2.65-2.745c-.8-.994-1.656-2.224-2.082-2.745-.095-.095-.142-.095-.284-.095l-2.461-.047a.125.125,0,0,0-.142.142V19c0,1.8,0,3.265.095,4.023.047.568.189.9.757.994a6.648,6.648,0,0,0,.852.095c.142,0,.142.095.142.142q0,.142-.284.142c-1.041,0-2.272-.047-2.366-.047,0,0-1.325.047-1.893.047q-.284,0-.284-.142a.151.151,0,0,1,.142-.142,2.77,2.77,0,0,0,.615-.095c.379-.095.426-.426.521-.994.095-.757.095-2.224.095-4.07Zm1.7,1.609a.26.26,0,0,0,.142.237,6.916,6.916,0,0,0,2.13.284,2.391,2.391,0,0,0,1.467-.331,3.287,3.287,0,0,0,1.183-2.84c0-2.319-1.278-3.691-3.36-3.691a8.268,8.268,0,0,0-1.372.095.219.219,0,0,0-.142.237v6.01Z" transform="translate(-37.53 -10.39)"/>
      </g>
      <g id="Group_175" data-name="Group 175" transform="translate(29.341 2.698)">
        <path id="Path_476" data-name="Path 476" class="cls-1" d="M42.316,15.9c0-2.887,0-3.455-.047-4.023-.047-.615-.142-.946-.8-1.041-.142,0-.473-.047-.663-.047a.213.213,0,0,1-.142-.142c0-.095.095-.142.331-.142.9,0,2.13.047,2.224.047h4.638c.379,0,.71-.095.9-.095.095,0,.189-.095.284-.095.047,0,.095.095.095.189,0,.142-.095.331-.142.9a11.64,11.64,0,0,1-.095,1.23.2.2,0,0,1-.189.189c-.095,0-.142-.095-.142-.237a1.848,1.848,0,0,0-.095-.663c-.142-.331-.331-.426-1.372-.568-.331-.047-2.556-.047-2.792-.047-.095,0-.095.047-.095.189v5.064c0,.142,0,.189.095.189.237,0,2.792,0,3.218-.047.473-.047.757-.047.947-.284.142-.142.237-.237.284-.237s.095.047.095.142-.095.426-.142,1.041c-.047.379-.095,1.088-.095,1.23s-.047.331-.189.331c-.095,0-.142-.047-.142-.189a1.5,1.5,0,0,0-.095-.615c-.047-.284-.237-.473-.994-.568-.521-.047-2.6-.095-2.934-.095a.125.125,0,0,0-.142.142v4.733c.047,1.23.379,1.514,2.319,1.514a6.759,6.759,0,0,0,1.94-.189,1.5,1.5,0,0,0,.9-1.278c.047-.237.095-.284.189-.284s.142.142.142.284a10.594,10.594,0,0,1-.284,1.8c-.142.473-.331.473-1.088.473-1.467,0-2.556-.047-3.36-.047-.8-.047-1.325-.047-1.609-.047h-.852c-.379,0-.8.047-1.136.047-.189,0-.331-.047-.331-.142a.151.151,0,0,1,.142-.142,2.77,2.77,0,0,0,.615-.095c.379-.047.426-.426.521-.994.095-.757.095-2.224.095-4.07V15.9Z" transform="translate(-40.66 -10.36)"/>
      </g>
      <g id="Group_176" data-name="Group 176" transform="translate(41.22 2.603)">
        <path id="Path_477" data-name="Path 477" class="cls-1" d="M45.868,22.171c.047,1.562.237,1.988.757,2.13a3.921,3.921,0,0,0,.946.095.125.125,0,0,1,.142.142c0,.095-.142.142-.331.142-1.088,0-1.893-.047-2.035-.047s-.994.047-1.893.047c-.189,0-.284,0-.284-.142a.126.126,0,0,1,.142-.142,2.785,2.785,0,0,0,.8-.095c.473-.142.568-.615.568-2.319v-10.7c0-.757.095-.946.284-.946.237,0,.568.379.757.568.331.331,3.123,3.313,6.1,6.389,1.893,1.988,3.975,4.212,4.59,4.827l-.189-9.37c0-1.23-.142-1.609-.71-1.751-.331-.047-.8-.095-.947-.095s-.142-.095-.142-.189.142-.142.379-.142c.9,0,1.8.047,2.035.047s.852-.047,1.656-.047c.189,0,.331,0,.331.142a.259.259,0,0,1-.237.189,2.173,2.173,0,0,0-.473.047c-.615.142-.663.521-.663,1.609L57.415,23.5c0,1.23,0,1.325-.142,1.325-.189,0-.379-.142-1.467-1.136-.189-.189-2.981-2.934-5.016-5.064-2.224-2.366-4.4-4.638-5.016-5.3Z" transform="translate(-43.17 -10.34)"/>
      </g>
      <g id="Group_177" data-name="Group 177" transform="translate(58.919 2.556)">
        <path id="Path_478" data-name="Path 478" class="cls-1" d="M54.577,10.33c4.354,0,7.667,2.65,7.667,7a7.5,7.5,0,0,1-7.761,7.619,7.171,7.171,0,0,1-7.572-7.335A7.4,7.4,0,0,1,54.577,10.33Zm.473,13.914c1.751,0,5.253-.946,5.253-6.342,0-4.5-2.745-6.862-5.774-6.862-3.218,0-5.584,2.035-5.584,6.1C48.9,21.5,51.548,24.244,55.05,24.244Z" transform="translate(-46.91 -10.33)"/>
      </g>
      <g id="Group_178" data-name="Group 178" transform="translate(84.238 0.189)">
        <path id="Path_479" data-name="Path 479" class="cls-1" d="M60.684,25.684c2.319,0,3.029-.426,3.455-1.088a3.967,3.967,0,0,0,.426-1.183c.047-.237.095-.331.189-.331.142,0,.189.095.189.521a18.425,18.425,0,0,1-.426,2.508c-.142.521-.142.568-.663.568-3.691,0-7.383-.095-11.216-.095-.284,0-.379,0-.379-.189,0-.095.047-.237.284-.615,3.265-4.969,6.578-9.891,9.654-14.86h-4.78a7.921,7.921,0,0,0-3.171.426,2.36,2.36,0,0,0-1.23,1.751c-.047.331-.142.379-.237.379s-.142-.095-.142-.284c0-.284.331-2.272.426-2.934.047-.284.095-.426.237-.426a4.248,4.248,0,0,0,.9.142c2.082.095,3.123.047,3.833.047h6.152c.331,0,.426.047.426.189a.4.4,0,0,1-.095.284c-3.171,5.064-6.531,10.128-9.844,15.191Z" transform="translate(-52.26 -9.83)"/>
      </g>
      <g id="Group_179" data-name="Group 179" transform="translate(97.063 2.508)">
        <path id="Path_480" data-name="Path 480" class="cls-1" d="M61.879,11.03c.237-.615.331-.71.473-.71.189,0,.284.284.473.663.331.8,3.455,8.519,4.638,11.358.71,1.656,1.23,1.893,1.656,2.035a2.352,2.352,0,0,0,.757.095c.095,0,.237.047.237.142s-.237.142-.426.142c-.284,0-1.7,0-3.076-.047-.379,0-.663,0-.663-.142,0-.095.047-.095.142-.142a.366.366,0,0,0,.189-.521L64.53,19.6c-.047-.095-.047-.095-.189-.095h-4.5c-.095,0-.142.047-.189.142l-1.088,2.981a3.706,3.706,0,0,0-.284,1.23c0,.379.331.521.663.521h.189c.142,0,.189.047.189.142s-.095.142-.284.142c-.473,0-1.514-.047-1.751-.047-.189,0-1.183.047-1.94.047-.237,0-.379-.047-.379-.142s.095-.142.189-.142a2.3,2.3,0,0,0,.568-.047c.9-.095,1.23-.757,1.609-1.7Zm2.177,7.761c.095,0,.095-.047.047-.142l-1.893-5.111c-.095-.284-.237-.284-.331,0l-1.8,5.111c0,.095,0,.142.047.142Z" transform="translate(-54.97 -10.32)"/>
      </g>
      <g id="Group_180" data-name="Group 180" transform="translate(112.87 2.603)">
        <path id="Path_481" data-name="Path 481" class="cls-1" d="M61.008,22.171c.047,1.562.237,1.988.757,2.13a3.921,3.921,0,0,0,.947.095.125.125,0,0,1,.142.142c0,.095-.142.142-.331.142-1.088,0-1.893-.047-2.035-.047-.189,0-.994.047-1.893.047-.189,0-.284,0-.284-.142a.125.125,0,0,1,.142-.142,2.785,2.785,0,0,0,.8-.095c.473-.142.568-.615.568-2.319v-10.7c0-.757.095-.946.284-.946.237,0,.568.379.757.568.331.331,3.123,3.313,6.1,6.389,1.893,1.988,3.975,4.212,4.591,4.827l-.189-9.37c0-1.23-.142-1.609-.71-1.751-.331-.047-.8-.095-.947-.095s-.142-.095-.142-.189.142-.142.379-.142c.9,0,1.8.047,2.035.047s.852-.047,1.656-.047c.189,0,.331,0,.331.142a.259.259,0,0,1-.237.189,2.173,2.173,0,0,0-.473.047c-.615.142-.663.521-.663,1.609L72.555,23.5c0,1.23,0,1.325-.142,1.325-.189,0-.379-.142-1.467-1.136-.189-.189-2.981-2.934-5.016-5.064-2.224-2.366-4.4-4.638-5.016-5.3Z" transform="translate(-58.31 -10.34)"/>
      </g>
      <g id="Group_181" data-name="Group 181" transform="translate(130.569 2.556)">
        <path id="Path_482" data-name="Path 482" class="cls-1" d="M69.717,10.33c4.354,0,7.667,2.65,7.667,7a7.5,7.5,0,0,1-7.761,7.619,7.171,7.171,0,0,1-7.572-7.335A7.4,7.4,0,0,1,69.717,10.33Zm.473,13.914c1.751,0,5.253-.946,5.253-6.342,0-4.5-2.745-6.862-5.774-6.862-3.218,0-5.584,2.035-5.584,6.1C64.038,21.5,66.688,24.244,70.19,24.244Z" transform="translate(-62.05 -10.33)"/>
      </g>
      <g id="Group_182" data-name="Group 182" transform="translate(148.032 2.603)">
        <path id="Path_483" data-name="Path 483" class="cls-1" d="M68.485,22.171c.047,1.562.237,1.988.757,2.13a3.92,3.92,0,0,0,.946.095.126.126,0,0,1,.142.142c0,.095-.142.142-.331.142-1.089,0-1.893-.047-2.035-.047-.189,0-.994.047-1.893.047-.189,0-.331,0-.331-.142a.125.125,0,0,1,.142-.142,2.785,2.785,0,0,0,.8-.095c.473-.142.568-.615.568-2.319v-10.7c0-.757.095-.946.284-.946.237,0,.568.379.757.568.331.331,3.123,3.313,6.1,6.389,1.893,1.988,3.975,4.212,4.59,4.827l-.189-9.37c0-1.23-.142-1.609-.71-1.751-.331-.047-.8-.095-.946-.095S77,10.813,77,10.719s.142-.142.379-.142c.9,0,1.8.047,2.035.047s.852-.047,1.656-.047c.189,0,.331,0,.331.142a.259.259,0,0,1-.237.189,2.173,2.173,0,0,0-.473.047c-.615.142-.663.521-.663,1.609L79.985,23.5c0,1.23,0,1.325-.142,1.325-.189,0-.379-.142-1.467-1.136-.189-.189-2.981-2.934-5.016-5.064-2.224-2.366-4.4-4.638-5.016-5.3Z" transform="translate(-65.74 -10.34)"/>
      </g>
      <g id="Group_183" data-name="Group 183" transform="translate(166.441 2.887)">
        <path id="Path_484" data-name="Path 484" class="cls-1" d="M72.8,19.06c0,1.8,0,3.265.095,4.07.047.568.142.9.71.994a7.293,7.293,0,0,0,.9.095.151.151,0,0,1,.142.142c0,.095-.095.142-.331.142-1.089,0-2.319-.047-2.414-.047s-1.325.047-1.893.047c-.189,0-.331-.047-.331-.142a.151.151,0,0,1,.142-.142,2.77,2.77,0,0,0,.615-.095c.379-.095.426-.426.521-.994.095-.757.095-2.224.095-4.07V15.748c0-2.887,0-3.455-.047-4.023-.047-.615-.189-.946-.615-.994a3.142,3.142,0,0,0-.615-.047.151.151,0,0,1-.142-.142c0-.095.095-.142.331-.142.615,0,1.846.047,1.94.047s1.325-.047,1.94-.047c.237,0,.331.047.331.142a.213.213,0,0,1-.142.142,1.775,1.775,0,0,0-.473.047c-.521.095-.615.379-.663,1.041V19.06Z" transform="translate(-69.63 -10.4)"/>
      </g>
      <g id="Group_184" data-name="Group 184" transform="translate(181.538)">
        <path id="Path_485" data-name="Path 485" class="cls-1" d="M75.47,24.7a8.388,8.388,0,0,1-2.65-6.531,8.853,8.853,0,0,1,2.461-6.01C76.606,10.831,78.594,9.79,82,9.79a15.167,15.167,0,0,1,3.171.284c.852.142,1.562.284,2.224.331.237,0,.284.095.284.237,0,.189-.047.426-.095,1.23-.047.71-.047,1.94-.047,2.272s-.047.473-.189.473-.189-.142-.189-.473a2.858,2.858,0,0,0-.946-2.224,7.284,7.284,0,0,0-4.4-1.23c-2.934,0-4.307.852-5.064,1.609-1.609,1.562-1.988,3.5-1.988,5.726a7.925,7.925,0,0,0,7.951,8.045c1.656,0,2.934-.189,3.833-1.088a3.865,3.865,0,0,0,.8-1.846c.047-.237.095-.331.237-.331.095,0,.142.142.142.331,0,.142-.284,2.082-.473,2.84-.142.426-.189.473-.568.615a13.5,13.5,0,0,1-3.975.521C79.445,27.064,77.221,26.259,75.47,24.7Z" transform="translate(-72.82 -9.79)"/>
      </g>
      <g id="Group_185" data-name="Group 185" transform="translate(198.812 2.556)">
        <path id="Path_486" data-name="Path 486" class="cls-1" d="M84.137,10.33c4.354,0,7.667,2.65,7.667,7a7.5,7.5,0,0,1-7.761,7.619,7.171,7.171,0,0,1-7.572-7.335A7.4,7.4,0,0,1,84.137,10.33Zm.473,13.914c1.751,0,5.253-.946,5.253-6.342,0-4.5-2.745-6.862-5.774-6.862-3.218,0-5.584,2.035-5.584,6.1C78.458,21.5,81.108,24.244,84.61,24.244Z" transform="translate(-76.47 -10.33)"/>
      </g>
      <g id="Group_186" data-name="Group 186" transform="translate(216.558 2.84)">
        <path id="Path_487" data-name="Path 487" class="cls-1" d="M81.876,15.785c0-2.887,0-3.455-.047-4.023-.047-.615-.142-.946-.8-1.041-.142,0-.473-.047-.663-.047a.213.213,0,0,1-.142-.142c0-.095.095-.142.331-.142.9,0,2.177.047,2.272.047.189,0,1.846-.047,2.414-.047a6.22,6.22,0,0,1,3.6.8,3.227,3.227,0,0,1,1.325,2.556c0,1.372-.568,2.745-2.366,4.259a58.78,58.78,0,0,0,4.07,4.827,3.422,3.422,0,0,0,2.177,1.278,4.888,4.888,0,0,0,.663.047.211.211,0,0,1,.189.142c0,.095-.095.142-.473.142h-1.23a3.869,3.869,0,0,1-2.082-.379,9.155,9.155,0,0,1-2.65-2.745c-.8-.994-1.656-2.224-2.082-2.745-.095-.095-.142-.095-.284-.095l-2.461-.047a.126.126,0,0,0-.142.142V19c0,1.8,0,3.265.095,4.023.047.568.189.9.757.994a6.652,6.652,0,0,0,.852.095c.142,0,.142.095.142.142,0,.095-.095.142-.331.142-1.041,0-2.272-.047-2.366-.047,0,0-1.325.047-1.893.047-.189,0-.331-.047-.331-.142a.151.151,0,0,1,.142-.142,2.77,2.77,0,0,0,.615-.095c.379-.095.426-.426.521-.994.095-.757.095-2.224.095-4.07V15.785Zm1.656,1.609a.26.26,0,0,0,.142.237,6.916,6.916,0,0,0,2.13.284,2.391,2.391,0,0,0,1.467-.331,3.287,3.287,0,0,0,1.183-2.84c0-2.319-1.278-3.691-3.36-3.691a8.268,8.268,0,0,0-1.372.095.219.219,0,0,0-.142.237v6.01Z" transform="translate(-80.22 -10.39)"/>
      </g>
      <g id="Group_187" data-name="Group 187" transform="translate(229.052 2.65)">
        <path id="Path_488" data-name="Path 488" class="cls-1" d="M90.006,19.247c0,1.8,0,3.265.095,4.07.047.568.142.9.757.994a7.29,7.29,0,0,0,.9.095c.142,0,.142.095.142.142q0,.142-.284.142c-1.041,0-2.272-.047-2.414-.047-.095,0-1.42.047-1.988.047-.237,0-.331-.047-.331-.142a.151.151,0,0,1,.142-.142,2.376,2.376,0,0,0,.568-.095c.379-.095.521-.473.568-.994.095-.8.095-2.272.095-4.07V11.391l-2.792.047c-1.23,0-1.656.142-1.94.615a4.348,4.348,0,0,0-.331.615c-.047.142-.095.189-.189.189a.151.151,0,0,1-.142-.142c0-.189.379-1.893.426-2.035.047-.095.142-.331.189-.331.142,0,.331.142.852.237.568.047,1.278.095,1.514.095H93.13a8.738,8.738,0,0,0,1.372-.095c.284-.047.473-.095.568-.095s.095.095.095.237c0,.568-.047,1.893-.047,2.13a.216.216,0,0,1-.189.237c-.095,0-.142-.047-.142-.331v-.189c-.047-.568-.473-.994-2.319-1.041l-2.414-.047v7.761Z" transform="translate(-82.86 -10.35)"/>
      </g>
      <g id="Group_188" data-name="Group 188" transform="translate(243.723 2.698)">
        <path id="Path_489" data-name="Path 489" class="cls-1" d="M87.616,15.9c0-2.887,0-3.455-.047-4.023-.047-.615-.142-.946-.8-1.041-.142,0-.473-.047-.662-.047a.213.213,0,0,1-.142-.142c0-.095.095-.142.331-.142.9,0,2.13.047,2.224.047h4.638c.379,0,.71-.095.9-.095.095,0,.189-.095.284-.095.047,0,.095.095.095.189,0,.142-.095.331-.142.9a11.642,11.642,0,0,1-.095,1.23.2.2,0,0,1-.189.189c-.095,0-.142-.095-.142-.237a1.848,1.848,0,0,0-.095-.663c-.142-.331-.331-.426-1.372-.568-.331-.047-2.556-.047-2.792-.047-.095,0-.095.047-.095.189v5.064c0,.142,0,.189.095.189.237,0,2.792,0,3.218-.047.473-.047.757-.047.946-.284.142-.142.237-.237.284-.237s.095.047.095.142-.095.426-.142,1.041c-.047.379-.095,1.088-.095,1.23s-.047.331-.189.331c-.095,0-.142-.047-.142-.189a1.5,1.5,0,0,0-.095-.615c-.047-.284-.237-.473-.994-.568-.521-.047-2.6-.095-2.934-.095a.125.125,0,0,0-.142.142v4.733c.047,1.23.379,1.514,2.319,1.514a6.759,6.759,0,0,0,1.94-.189,1.5,1.5,0,0,0,.9-1.278c.047-.237.095-.284.189-.284s.142.142.142.284a10.589,10.589,0,0,1-.284,1.8c-.142.473-.331.473-1.088.473-1.467,0-2.556-.047-3.36-.047-.8-.047-1.325-.047-1.609-.047h-.852c-.379,0-.8.047-1.136.047-.189,0-.331-.047-.331-.142a.151.151,0,0,1,.142-.142A2.771,2.771,0,0,0,87,24.274c.379-.047.426-.426.521-.994.095-.757.095-2.224.095-4.07V15.9Z" transform="translate(-85.96 -10.36)"/>
      </g>
      <g id="Group_189" data-name="Group 189" transform="translate(255.791 2.887)">
        <path id="Path_490" data-name="Path 490" class="cls-1" d="M92.012,19.108c0,2.745.047,3.881.379,4.212.331.284,1.041.426,2.556.426.994,0,1.893,0,2.319-.568a2.62,2.62,0,0,0,.473-1.041.217.217,0,0,1,.189-.237q.142,0,.142.284a14.165,14.165,0,0,1-.284,1.893c-.142.426-.189.521-1.23.521-1.372,0-2.461,0-3.36-.047-.9,0-1.562-.047-2.13-.047h-.8c-.379,0-.8.047-1.136.047-.189,0-.331-.047-.331-.142a.151.151,0,0,1,.142-.142,2.769,2.769,0,0,0,.615-.095c.379-.095.426-.426.521-.994.095-.757.095-2.224.095-4.07V15.8c0-2.887,0-3.455-.047-4.023-.047-.615-.142-.946-.8-1.041-.142,0-.473-.047-.663-.047a.213.213,0,0,1-.142-.142c0-.095.095-.142.331-.142.9,0,2.082.047,2.224.047.095,0,1.562-.047,2.13-.047q.284,0,.284.142a.213.213,0,0,1-.142.142,2.911,2.911,0,0,0-.615.047c-.568.095-.663.379-.71,1.041v7.335Z" transform="translate(-88.51 -10.4)"/>
      </g>
      <g id="Group_190" data-name="Group 190" transform="translate(267.527 2.887)">
        <path id="Path_491" data-name="Path 491" class="cls-1" d="M94.492,19.108c0,2.745.047,3.881.379,4.212.331.284,1.041.426,2.556.426.994,0,1.893,0,2.319-.568a2.621,2.621,0,0,0,.473-1.041.217.217,0,0,1,.189-.237q.142,0,.142.284a14.165,14.165,0,0,1-.284,1.893c-.142.426-.189.521-1.23.521-1.372,0-2.461,0-3.36-.047-.9,0-1.562-.047-2.13-.047h-.8c-.379,0-.8.047-1.136.047-.189,0-.331-.047-.331-.142a.151.151,0,0,1,.142-.142,2.769,2.769,0,0,0,.615-.095c.379-.095.426-.426.521-.994.095-.757.095-2.224.095-4.07V15.8c0-2.887,0-3.455-.047-4.023-.047-.615-.142-.946-.8-1.041-.142,0-.473-.047-.663-.047a.213.213,0,0,1-.142-.142c0-.095.095-.142.331-.142.9,0,2.082.047,2.177.047s1.562-.047,2.13-.047c.189,0,.331.047.331.142a.213.213,0,0,1-.142.142,2.911,2.911,0,0,0-.615.047c-.568.095-.663.379-.71,1.041v7.335Z" transform="translate(-90.99 -10.4)"/>
      </g>
      <g id="Group_191" data-name="Group 191" transform="translate(277.323 2.508)">
        <path id="Path_492" data-name="Path 492" class="cls-1" d="M99.922,11.03c.237-.615.331-.71.473-.71.189,0,.284.284.473.663.331.8,3.455,8.519,4.638,11.358.71,1.656,1.23,1.893,1.656,2.035a2.352,2.352,0,0,0,.757.095c.095,0,.237.047.237.142s-.237.142-.426.142c-.284,0-1.7,0-3.076-.047-.379,0-.663,0-.663-.142,0-.095.047-.095.142-.142a.366.366,0,0,0,.189-.521L102.572,19.6c-.047-.095-.047-.095-.189-.095H97.935c-.095,0-.142.047-.189.142l-1.089,2.981a3.706,3.706,0,0,0-.284,1.23c0,.379.331.521.663.521h.189c.142,0,.189.047.189.142s-.095.142-.284.142c-.473,0-1.514-.047-1.751-.047-.189,0-1.183.047-1.94.047-.237,0-.379-.047-.379-.142s.095-.142.189-.142a2.3,2.3,0,0,0,.568-.047c.9-.095,1.23-.757,1.609-1.7Zm2.177,7.761c.095,0,.095-.047.047-.142l-1.893-5.111c-.095-.284-.237-.284-.331,0l-1.8,5.111c0,.095,0,.142.047.142Z" transform="translate(-93.06 -10.32)"/>
      </g>
    </g>
    <g id="Group_210" data-name="Group 210" transform="translate(30.831 37.056)">
      <g id="Group_149" data-name="Group 149" transform="translate(0 0.426)">
        <path id="Path_451" data-name="Path 451" class="cls-1" d="M39.8,26.607l3.5-8.9h.946l3.407,8.9H46.8l-1.041-2.792h-4.07l-1.041,2.792Zm2.177-3.549h3.5l-1.751-4.685Z" transform="translate(-39.8 -17.71)"/>
      </g>
      <g id="Group_150" data-name="Group 150" transform="translate(10.932 0.379)">
        <path id="Path_452" data-name="Path 452" class="cls-1" d="M42.11,26.644V17.7h3.739a3.653,3.653,0,0,1,.71.095,2.713,2.713,0,0,1,.663.189,1.67,1.67,0,0,1,.615.379,2.9,2.9,0,0,1,.71.8,6.414,6.414,0,0,1,.473.994,8.244,8.244,0,0,1,.237,1.041,7,7,0,0,1,.047.994,5.732,5.732,0,0,1-.047.9,6.082,6.082,0,0,1-.189.9,6.325,6.325,0,0,1-.331.852,2.706,2.706,0,0,1-.521.757,2.491,2.491,0,0,1-.663.568,5.259,5.259,0,0,1-.757.331,2.679,2.679,0,0,1-.852.142,5.436,5.436,0,0,1-.9.047H42.11Zm.852-.757H45a8.021,8.021,0,0,0,1.088-.047,3.3,3.3,0,0,0,1.041-.331,1.769,1.769,0,0,0,.71-.615,3.632,3.632,0,0,0,.473-.852,5.537,5.537,0,0,0,.237-.947,6.672,6.672,0,0,0,.047-.947,7,7,0,0,0-.047-.994,5.537,5.537,0,0,0-.237-.946,3.838,3.838,0,0,0-.473-.852,2.407,2.407,0,0,0-.757-.615,2.777,2.777,0,0,0-.946-.284,8.376,8.376,0,0,0-1.089-.047H43.009v7.477Z" transform="translate(-42.11 -17.7)"/>
      </g>
      <g id="Group_151" data-name="Group 151" transform="translate(20.965 0.379)">
        <path id="Path_453" data-name="Path 453" class="cls-1" d="M44.23,17.7h.9l2.7,7.9,2.7-7.9h.9l-3.076,8.9H47.4Z" transform="translate(-44.23 -17.7)"/>
      </g>
      <g id="Group_152" data-name="Group 152" transform="translate(30.808 0.142)">
        <path id="Path_454" data-name="Path 454" class="cls-1" d="M46.31,22.382a5.8,5.8,0,0,1,.284-1.846,4.236,4.236,0,0,1,.8-1.514,3.337,3.337,0,0,1,1.278-.994,4.138,4.138,0,0,1,1.751-.379,4.423,4.423,0,0,1,1.846.379,3.909,3.909,0,0,1,1.325.994,5.138,5.138,0,0,1,.8,1.514,5.8,5.8,0,0,1,.284,1.846,5.511,5.511,0,0,1-.284,1.8,4.027,4.027,0,0,1-.8,1.467,3.337,3.337,0,0,1-1.278.994,4.46,4.46,0,0,1-3.6,0,3.337,3.337,0,0,1-1.278-.994,3.936,3.936,0,0,1-.757-1.467A3.968,3.968,0,0,1,46.31,22.382Zm4.165,3.928a3.107,3.107,0,0,0,1.514-.331,3.725,3.725,0,0,0,1.041-.852,4,4,0,0,0,.615-1.278,5.317,5.317,0,0,0,.189-1.514,5.824,5.824,0,0,0-.237-1.656,4.1,4.1,0,0,0-.663-1.278,2.935,2.935,0,0,0-1.041-.8,3.236,3.236,0,0,0-1.372-.284,2.921,2.921,0,0,0-1.467.331,3.187,3.187,0,0,0-1.041.9,4,4,0,0,0-.615,1.278,6.153,6.153,0,0,0,0,3.029,4,4,0,0,0,.615,1.278,2.6,2.6,0,0,0,1.041.852A2.427,2.427,0,0,0,50.475,26.31Z" transform="translate(-46.31 -17.65)"/>
      </g>
      <g id="Group_153" data-name="Group 153" transform="translate(42.356 0.095)">
        <path id="Path_455" data-name="Path 455" class="cls-1" d="M52.82,22.94v-.71h3.833v4.591h-.71V25.307a2.756,2.756,0,0,1-.521.71,2.1,2.1,0,0,1-.71.568,2.929,2.929,0,0,1-.9.331,4.5,4.5,0,0,1-1.183.142,4.169,4.169,0,0,1-1.562-.284,2.868,2.868,0,0,1-1.23-.9,4.363,4.363,0,0,1-.8-1.467,6.925,6.925,0,0,1-.284-2.082,7.573,7.573,0,0,1,.237-1.846,3.936,3.936,0,0,1,.757-1.467,3.337,3.337,0,0,1,1.278-.994,4.423,4.423,0,0,1,1.846-.379,4.082,4.082,0,0,1,1.325.189,2.9,2.9,0,0,1,1.088.521,2.458,2.458,0,0,1,.8.9,3.184,3.184,0,0,1,.473,1.23h-.852a3.024,3.024,0,0,0-.379-.9,2.767,2.767,0,0,0-.615-.663,2.4,2.4,0,0,0-.852-.426,3.051,3.051,0,0,0-.946-.142,3.107,3.107,0,0,0-1.514.331,3.056,3.056,0,0,0-1.041.852,3.67,3.67,0,0,0-.615,1.372,6.485,6.485,0,0,0-.189,1.7,3.732,3.732,0,0,0,.237,1.42,3.526,3.526,0,0,0,.615,1.183,3.239,3.239,0,0,0,.994.8,3.089,3.089,0,0,0,1.372.284,4.718,4.718,0,0,0,.757-.095,2.474,2.474,0,0,0,.757-.284,3.36,3.36,0,0,0,.663-.473,2.756,2.756,0,0,0,.521-.71,2.855,2.855,0,0,0,.284-.9,5.829,5.829,0,0,0,.095-.947H52.82Z" transform="translate(-48.75 -17.64)"/>
      </g>
      <g id="Group_154" data-name="Group 154" transform="translate(53.288 0.426)">
        <path id="Path_456" data-name="Path 456" class="cls-1" d="M51.06,26.607l3.5-8.9h.947l3.407,8.9h-.852l-1.041-2.792h-4.07l-1.041,2.792Zm2.224-3.549h3.5l-1.751-4.685Z" transform="translate(-51.06 -17.71)"/>
      </g>
      <g id="Group_155" data-name="Group 155" transform="translate(64.22 0.379)">
        <path id="Path_457" data-name="Path 457" class="cls-1" d="M53.37,26.644V17.7h3.739a3.653,3.653,0,0,1,.71.095,2.712,2.712,0,0,1,.663.189,1.67,1.67,0,0,1,.615.379,2.9,2.9,0,0,1,.71.8,6.417,6.417,0,0,1,.473.994,8.244,8.244,0,0,1,.237,1.041,7,7,0,0,1,.047.994,5.732,5.732,0,0,1-.047.9,6.088,6.088,0,0,1-.189.9,6.323,6.323,0,0,1-.331.852,4.288,4.288,0,0,1-.521.757,2.491,2.491,0,0,1-.663.568,5.262,5.262,0,0,1-.757.331,2.679,2.679,0,0,1-.852.142,5.435,5.435,0,0,1-.9.047H53.37Zm.852-.757h2.035a8.021,8.021,0,0,0,1.088-.047,3.3,3.3,0,0,0,1.041-.331,1.769,1.769,0,0,0,.71-.615,3.632,3.632,0,0,0,.473-.852,3.471,3.471,0,0,0,.237-.947,6.665,6.665,0,0,0,.047-.947,6.989,6.989,0,0,0-.047-.994,5.535,5.535,0,0,0-.237-.946,3.838,3.838,0,0,0-.473-.852,2.408,2.408,0,0,0-.757-.615,2.777,2.777,0,0,0-.947-.284A8.375,8.375,0,0,0,56.3,18.41H54.269v7.477Z" transform="translate(-53.37 -17.7)"/>
      </g>
      <g id="Group_156" data-name="Group 156" transform="translate(74.678 0.142)">
        <path id="Path_458" data-name="Path 458" class="cls-1" d="M55.58,22.382a5.8,5.8,0,0,1,.284-1.846,4.236,4.236,0,0,1,.8-1.514,3.337,3.337,0,0,1,1.278-.994A4.138,4.138,0,0,1,59.7,17.65a4.588,4.588,0,0,1,1.846.379,3.909,3.909,0,0,1,1.325.994,5.138,5.138,0,0,1,.8,1.514,5.8,5.8,0,0,1,.284,1.846,5.511,5.511,0,0,1-.284,1.8,4.027,4.027,0,0,1-.8,1.467,3.337,3.337,0,0,1-1.278.994,4.46,4.46,0,0,1-3.6,0,3.337,3.337,0,0,1-1.278-.994,3.937,3.937,0,0,1-.757-1.467A3.968,3.968,0,0,1,55.58,22.382Zm4.165,3.928a3.107,3.107,0,0,0,1.514-.331,3.725,3.725,0,0,0,1.041-.852,4,4,0,0,0,.615-1.278,5.318,5.318,0,0,0,.189-1.514,5.823,5.823,0,0,0-.237-1.656,4.1,4.1,0,0,0-.663-1.278,3.422,3.422,0,0,0-1.041-.8,3.236,3.236,0,0,0-1.372-.284,2.921,2.921,0,0,0-1.467.331,3.188,3.188,0,0,0-1.041.9,4,4,0,0,0-.615,1.278,6.154,6.154,0,0,0,0,3.029,4,4,0,0,0,.615,1.278,2.6,2.6,0,0,0,1.041.852A2.526,2.526,0,0,0,59.745,26.31Z" transform="translate(-55.58 -17.65)"/>
      </g>
      <g id="Group_157" data-name="Group 157" transform="translate(91.81 0)">
        <path id="Path_459" data-name="Path 459" class="cls-1" d="M59.957,17.62v12.4H59.2V17.62h.757Z" transform="translate(-59.2 -17.62)"/>
      </g>
      <g id="Group_158" data-name="Group 158" transform="translate(101.369 0.142)">
        <path id="Path_460" data-name="Path 460" class="cls-1" d="M61.22,22.382a5.8,5.8,0,0,1,.284-1.846,4.236,4.236,0,0,1,.8-1.514,3.337,3.337,0,0,1,1.278-.994,4.138,4.138,0,0,1,1.751-.379,4.588,4.588,0,0,1,1.846.379,3.909,3.909,0,0,1,1.325.994,5.138,5.138,0,0,1,.8,1.514,5.8,5.8,0,0,1,.284,1.846,5.511,5.511,0,0,1-.284,1.8,4.027,4.027,0,0,1-.8,1.467,3.337,3.337,0,0,1-1.278.994,4.46,4.46,0,0,1-3.6,0,3.337,3.337,0,0,1-1.278-.994,3.937,3.937,0,0,1-.757-1.467A3.968,3.968,0,0,1,61.22,22.382Zm4.165,3.928a3.107,3.107,0,0,0,1.514-.331,3.725,3.725,0,0,0,1.041-.852,4,4,0,0,0,.615-1.278,5.317,5.317,0,0,0,.189-1.514,5.823,5.823,0,0,0-.237-1.656,4.1,4.1,0,0,0-.663-1.278,3.422,3.422,0,0,0-1.041-.8,3.236,3.236,0,0,0-1.372-.284,2.921,2.921,0,0,0-1.467.331,3.187,3.187,0,0,0-1.041.9,4,4,0,0,0-.615,1.278,6.152,6.152,0,0,0,0,3.029,4,4,0,0,0,.615,1.278,2.6,2.6,0,0,0,1.041.852A2.526,2.526,0,0,0,65.385,26.31Z" transform="translate(-61.22 -17.65)"/>
      </g>
      <g id="Group_159" data-name="Group 159" transform="translate(112.396 0.426)">
        <path id="Path_461" data-name="Path 461" class="cls-1" d="M63.55,26.607l3.5-8.9H68l3.407,8.9h-.852l-1.041-2.792h-4.07L64.4,26.607Zm2.177-3.549h3.5l-1.751-4.685Z" transform="translate(-63.55 -17.71)"/>
      </g>
      <g id="Group_160" data-name="Group 160" transform="translate(123.328 0.379)">
        <path id="Path_462" data-name="Path 462" class="cls-1" d="M65.86,26.644V17.7h3.218a5.411,5.411,0,0,1,1.325.142,2.317,2.317,0,0,1,.9.473,1.547,1.547,0,0,1,.521.71,2.756,2.756,0,0,1,.142.9,2.04,2.04,0,0,1-.142.8,1.636,1.636,0,0,1-.331.568,1.853,1.853,0,0,1-.473.379,2.307,2.307,0,0,1-.521.189v.047a2.032,2.032,0,0,1,1.372.71,2.469,2.469,0,0,1,.473,1.467,2.922,2.922,0,0,1-.237,1.183,1.626,1.626,0,0,1-.615.757,2.639,2.639,0,0,1-.9.426,4.768,4.768,0,0,1-1.183.142H65.86Zm.852-5.016h2.13a6.648,6.648,0,0,0,1.089-.095,2.473,2.473,0,0,0,.71-.331.992.992,0,0,0,.379-.521,1.725,1.725,0,0,0,.095-.71,1.581,1.581,0,0,0-.142-.71,1.342,1.342,0,0,0-.426-.473,1.785,1.785,0,0,0-.757-.237,7.98,7.98,0,0,0-1.183-.095h-1.94v3.171Zm0,4.259h2.13a9.9,9.9,0,0,0,1.23-.047,3.671,3.671,0,0,0,.852-.237,1.5,1.5,0,0,0,.521-.568,2.576,2.576,0,0,0,.189-.946,1.692,1.692,0,0,0-.189-.9,1.375,1.375,0,0,0-.521-.521,2.251,2.251,0,0,0-.852-.237,7.678,7.678,0,0,0-1.089-.047H66.759v3.5Z" transform="translate(-65.86 -17.7)"/>
      </g>
      <g id="Group_161" data-name="Group 161" transform="translate(132.368 0.142)">
        <path id="Path_463" data-name="Path 463" class="cls-1" d="M68.48,27.92h-.71l2.887-10.27h.71Z" transform="translate(-67.77 -17.65)"/>
      </g>
      <g id="Group_162" data-name="Group 162" transform="translate(138.33 0.095)">
        <path id="Path_464" data-name="Path 464" class="cls-1" d="M69.787,24.171a3.058,3.058,0,0,0,.284.994,1.573,1.573,0,0,0,.568.663,2.113,2.113,0,0,0,.8.379,3.066,3.066,0,0,0,.946.095,3.462,3.462,0,0,0,1.041-.142,1.782,1.782,0,0,0,.71-.426,1.327,1.327,0,0,0,.379-.568,1.9,1.9,0,0,0,.142-.71,1.435,1.435,0,0,0-.852-1.372,3.554,3.554,0,0,0-.852-.331c-.331-.095-.662-.142-.994-.237l-.994-.284a2.4,2.4,0,0,1-.852-.426,2.228,2.228,0,0,1-.615-.71,2.468,2.468,0,0,1-.237-1.088,2.05,2.05,0,0,1,.189-.9,2.278,2.278,0,0,1,.568-.757,3.545,3.545,0,0,1,.947-.521,4.733,4.733,0,0,1,2.65,0,2.656,2.656,0,0,1,.946.568,2.687,2.687,0,0,1,.568.852,2.546,2.546,0,0,1,.189,1.041h-.8a1.921,1.921,0,0,0-.189-.9,2.122,2.122,0,0,0-.473-.615,1.647,1.647,0,0,0-.71-.331,2.344,2.344,0,0,0-.8-.095,2.494,2.494,0,0,0-1.089.189,2.653,2.653,0,0,0-.71.473,1.67,1.67,0,0,0-.379.615,1.8,1.8,0,0,0-.047.71,1.244,1.244,0,0,0,.331.71,1.986,1.986,0,0,0,.663.426l.852.284a7.568,7.568,0,0,1,.994.237c.331.095.663.189.947.284a2.181,2.181,0,0,1,.8.426,2.1,2.1,0,0,1,.568.71,2.468,2.468,0,0,1,.237,1.088,2.413,2.413,0,0,1-.852,1.94,3.666,3.666,0,0,1-2.414.663,3.626,3.626,0,0,1-1.278-.189,2.79,2.79,0,0,1-1.041-.568,2.471,2.471,0,0,1-.663-.9,3.614,3.614,0,0,1-.237-1.278h.757Z" transform="translate(-69.03 -17.64)"/>
      </g>
      <g id="Group_163" data-name="Group 163" transform="translate(148.127 0.379)">
        <path id="Path_465" data-name="Path 465" class="cls-1" d="M71.1,26.644V17.7h3.265a4.126,4.126,0,0,1,1.42.189,3.215,3.215,0,0,1,.9.521,2.009,2.009,0,0,1,.473.8,3.051,3.051,0,0,1,.142.947,2.489,2.489,0,0,1-.284,1.23,2.065,2.065,0,0,1-.8.757,2.986,2.986,0,0,1-1.089.379,5.4,5.4,0,0,1-1.23.095H72V26.55h-.9Zm2.792-4.685a6.524,6.524,0,0,0,1.041-.095,2.027,2.027,0,0,0,.8-.284,1.5,1.5,0,0,0,.521-.568,1.692,1.692,0,0,0,.189-.9,1.5,1.5,0,0,0-.568-1.278,2.888,2.888,0,0,0-1.751-.426H71.952v3.549Z" transform="translate(-71.1 -17.7)"/>
      </g>
      <g id="Group_164" data-name="Group 164" transform="translate(171.978 0.142)">
        <path id="Path_466" data-name="Path 466" class="cls-1" d="M78.08,21.72a1.963,1.963,0,0,1-.757-.142,2.683,2.683,0,0,1-.615-.379,1.8,1.8,0,0,1-.426-.615,2.385,2.385,0,0,1-.142-.9,4.165,4.165,0,0,1,.095-.8,1.856,1.856,0,0,1,.379-.663,1.441,1.441,0,0,1,.615-.426,2.627,2.627,0,0,1,1.7,0,1.8,1.8,0,0,1,.615.426,1.97,1.97,0,0,1,.473,1.467,2.132,2.132,0,0,1-.521,1.467A1.926,1.926,0,0,1,78.08,21.72Zm-1.467-2.035a1.962,1.962,0,0,0,.379,1.183,1.251,1.251,0,0,0,1.088.473,1.512,1.512,0,0,0,.663-.142,1.117,1.117,0,0,0,.426-.379,5.168,5.168,0,0,0,.284-.521,2.047,2.047,0,0,0,0-1.23,1.748,1.748,0,0,0-.237-.521,1.852,1.852,0,0,0-.473-.379,1.374,1.374,0,0,0-.662-.142,1.512,1.512,0,0,0-.663.142,1.852,1.852,0,0,0-.473.379,1.051,1.051,0,0,0-.237.521A2.775,2.775,0,0,0,76.613,19.685Z" transform="translate(-76.14 -17.65)"/>
      </g>
      <g id="Group_165" data-name="Group 165" transform="translate(184.33 0.568)">
        <path id="Path_467" data-name="Path 467" class="cls-1" d="M81.116,21.621a6.353,6.353,0,0,0,.994-.047,4,4,0,0,0,.8-.237,1.375,1.375,0,0,0,.521-.521,1.518,1.518,0,0,0,.189-.852,1.581,1.581,0,0,0-.142-.71,1.856,1.856,0,0,0-.379-.473,1.467,1.467,0,0,0-.615-.284,3.654,3.654,0,0,0-.71-.095,1.962,1.962,0,0,0-.757.142,1.7,1.7,0,0,0-.568.379,2.679,2.679,0,0,0-.379.615,1.961,1.961,0,0,0-.142.757h-.8a2.584,2.584,0,0,1,.8-1.988,1.8,1.8,0,0,1,.947-.473,7.739,7.739,0,0,1,1.041-.095,3.6,3.6,0,0,1,.994.142,4.2,4.2,0,0,1,.8.379,2.3,2.3,0,0,1,.521.663,1.993,1.993,0,0,1,.189.946,2.306,2.306,0,0,1-.284,1.183,1.935,1.935,0,0,1-.947.757,2.259,2.259,0,0,1,.757.379,1.637,1.637,0,0,1,.473.521,2.377,2.377,0,0,1,.237.615,2.914,2.914,0,0,1,.047.615,2.194,2.194,0,0,1-.189.994,2.506,2.506,0,0,1-1.467,1.42,3.1,3.1,0,0,1-1.183.237,5.411,5.411,0,0,1-1.325-.142,2.236,2.236,0,0,1-.947-.473,1.925,1.925,0,0,1-.568-.852,4.265,4.265,0,0,1-.284-1.278h.8a1.805,1.805,0,0,0,.615,1.514,2.3,2.3,0,0,0,1.562.521,2.755,2.755,0,0,0,.9-.142,1.782,1.782,0,0,0,.71-.426,1.8,1.8,0,0,0,.426-.615,1.961,1.961,0,0,0,.142-.757,1.812,1.812,0,0,0-.237-.9,1.439,1.439,0,0,0-.615-.568,2.512,2.512,0,0,0-.9-.284,8.02,8.02,0,0,0-1.088-.047v-.521Z" transform="translate(-78.75 -17.74)"/>
      </g>
      <g id="Group_166" data-name="Group 166" transform="translate(193.18 0.568)">
        <path id="Path_468" data-name="Path 468" class="cls-1" d="M83.6,17.74a2.864,2.864,0,0,1,1.136.189,2.362,2.362,0,0,1,.8.521,2.707,2.707,0,0,1,.521.757,5.58,5.58,0,0,1,.331.947,3.692,3.692,0,0,1,.142,1.041,7.659,7.659,0,0,1,.047,1.041,9.383,9.383,0,0,1-.142,1.656,4.564,4.564,0,0,1-.473,1.42,2.477,2.477,0,0,1-.9.946,3.032,3.032,0,0,1-2.934,0,2.62,2.62,0,0,1-.9-.994,4.564,4.564,0,0,1-.473-1.42,9.932,9.932,0,0,1-.142-1.7c0-.568.047-1.088.095-1.609a6.232,6.232,0,0,1,.426-1.42,2.289,2.289,0,0,1,.9-.994A3.048,3.048,0,0,1,83.6,17.74Zm2.13,4.449a12.515,12.515,0,0,0-.095-1.372,3.375,3.375,0,0,0-.331-1.23,1.986,1.986,0,0,0-.663-.852,1.709,1.709,0,0,0-1.136-.331,1.659,1.659,0,0,0-1.088.331,2.948,2.948,0,0,0-.663.852,4.681,4.681,0,0,0-.331,1.23c-.047.473-.095.947-.095,1.42a13.649,13.649,0,0,0,.095,1.514,3.9,3.9,0,0,0,.331,1.183,1.722,1.722,0,0,0,.663.757,1.8,1.8,0,0,0,1.041.284,1.709,1.709,0,0,0,1.136-.331,2.131,2.131,0,0,0,.663-.9,4.694,4.694,0,0,0,.284-1.23A3.333,3.333,0,0,0,85.731,22.189Z" transform="translate(-80.62 -17.74)"/>
      </g>
      <g id="Group_167" data-name="Group 167" transform="translate(201.888 0.568)">
        <path id="Path_469" data-name="Path 469" class="cls-1" d="M85.442,17.74a2.864,2.864,0,0,1,1.136.189,2.362,2.362,0,0,1,.8.521,2.7,2.7,0,0,1,.521.757,5.574,5.574,0,0,1,.331.947,3.69,3.69,0,0,1,.142,1.041,7.668,7.668,0,0,1,.047,1.041,9.378,9.378,0,0,1-.142,1.656,4.564,4.564,0,0,1-.473,1.42,2.478,2.478,0,0,1-.9.946,3.032,3.032,0,0,1-2.934,0,2.62,2.62,0,0,1-.9-.994,4.561,4.561,0,0,1-.473-1.42,9.933,9.933,0,0,1-.142-1.7c0-.568.047-1.088.095-1.609a6.225,6.225,0,0,1,.426-1.42,2.289,2.289,0,0,1,.9-.994A3.176,3.176,0,0,1,85.442,17.74Zm2.177,4.449a12.512,12.512,0,0,0-.095-1.372,3.376,3.376,0,0,0-.331-1.23,1.986,1.986,0,0,0-.663-.852,1.71,1.71,0,0,0-1.136-.331,1.659,1.659,0,0,0-1.088.331,2.948,2.948,0,0,0-.663.852,4.681,4.681,0,0,0-.331,1.23c-.047.473-.095.947-.095,1.42a13.642,13.642,0,0,0,.095,1.514,3.9,3.9,0,0,0,.331,1.183,1.722,1.722,0,0,0,.663.757,1.8,1.8,0,0,0,1.041.284,1.71,1.71,0,0,0,1.136-.331,2.131,2.131,0,0,0,.662-.9,4.694,4.694,0,0,0,.284-1.23A4.48,4.48,0,0,0,87.618,22.189Z" transform="translate(-82.46 -17.74)"/>
      </g>
      <g id="Group_168" data-name="Group 168" transform="translate(211.447 8.235)">
        <path id="Path_470" data-name="Path 470" class="cls-1" d="M84.48,20.448V19.36h.9v1.088Z" transform="translate(-84.48 -19.36)"/>
      </g>
      <g id="Group_169" data-name="Group 169" transform="translate(215.943 0.71)">
        <path id="Path_471" data-name="Path 471" class="cls-1" d="M90.4,19.758a2.193,2.193,0,0,0-.568-1.088,1.509,1.509,0,0,0-1.136-.379,2.154,2.154,0,0,0-1.278.379,1.931,1.931,0,0,0-.71.994,5.048,5.048,0,0,0-.331,1.278c-.047.473-.095.9-.142,1.325.142-.142.237-.331.379-.473a2.033,2.033,0,0,1,.473-.426,2.548,2.548,0,0,1,.615-.331,2.35,2.35,0,0,1,.852-.095,2.576,2.576,0,0,1,2.035.757,2.924,2.924,0,0,1,.71,2.082,2.924,2.924,0,0,1-.71,2.082,2.684,2.684,0,0,1-2.082.757,3.555,3.555,0,0,1-1.23-.237,2.016,2.016,0,0,1-.946-.71,4.051,4.051,0,0,1-.663-1.278,7.489,7.489,0,0,1-.237-1.94,9.656,9.656,0,0,1,.142-1.609,4.742,4.742,0,0,1,.473-1.514,3.2,3.2,0,0,1,.946-1.136,2.752,2.752,0,0,1,1.562-.426,2.685,2.685,0,0,1,1.751.568,2.135,2.135,0,0,1,.8,1.609H90.4Zm-1.846,1.8a1.555,1.555,0,0,0-.8.189,1.536,1.536,0,0,0-.615.473,1.707,1.707,0,0,0-.379.71,2.291,2.291,0,0,0-.142.852,4.134,4.134,0,0,0,.095.757,2.4,2.4,0,0,0,.331.71,2.24,2.24,0,0,0,.615.521,1.8,1.8,0,0,0,.9.189,1.992,1.992,0,0,0,.946-.189,1.854,1.854,0,0,0,.947-1.23,4.167,4.167,0,0,0,.095-.8,2.284,2.284,0,0,0-.473-1.562A1.805,1.805,0,0,0,88.553,21.556Z" transform="translate(-85.43 -17.77)"/>
      </g>
      <g id="Group_170" data-name="Group 170" transform="translate(224.698 0.568)">
        <path id="Path_472" data-name="Path 472" class="cls-1" d="M90.261,17.74a2.864,2.864,0,0,1,1.136.189,2.362,2.362,0,0,1,.8.521,2.7,2.7,0,0,1,.521.757,5.568,5.568,0,0,1,.331.947,3.691,3.691,0,0,1,.142,1.041,7.664,7.664,0,0,1,.047,1.041,9.389,9.389,0,0,1-.142,1.656,4.564,4.564,0,0,1-.473,1.42,2.477,2.477,0,0,1-.9.946,3.032,3.032,0,0,1-2.934,0,2.62,2.62,0,0,1-.9-.994,4.564,4.564,0,0,1-.473-1.42,9.929,9.929,0,0,1-.142-1.7c0-.568.047-1.088.095-1.609a6.232,6.232,0,0,1,.426-1.42,2.289,2.289,0,0,1,.9-.994A3.047,3.047,0,0,1,90.261,17.74Zm2.13,4.449a12.51,12.51,0,0,0-.095-1.372,3.372,3.372,0,0,0-.331-1.23,1.985,1.985,0,0,0-.663-.852,1.709,1.709,0,0,0-1.136-.331,1.659,1.659,0,0,0-1.088.331,2.948,2.948,0,0,0-.663.852,4.681,4.681,0,0,0-.331,1.23c-.047.473-.095.947-.095,1.42a13.635,13.635,0,0,0,.095,1.514,3.9,3.9,0,0,0,.331,1.183,1.722,1.722,0,0,0,.663.757,1.8,1.8,0,0,0,1.041.284,1.71,1.71,0,0,0,1.136-.331,2.132,2.132,0,0,0,.663-.9,4.694,4.694,0,0,0,.284-1.23A3.333,3.333,0,0,0,92.391,22.189Z" transform="translate(-87.28 -17.74)"/>
      </g>
      <g id="Group_171" data-name="Group 171" transform="translate(234.447 0.521)">
        <path id="Path_473" data-name="Path 473" class="cls-1" d="M91.612,20H89.34v-.521c.331-.047.615-.047.9-.095a2.5,2.5,0,0,0,.71-.237,1.369,1.369,0,0,0,.521-.521,2.236,2.236,0,0,0,.284-.9h.615v8.708h-.8V20Z" transform="translate(-89.34 -17.73)"/>
      </g>
      <g id="Group_209" data-name="Group 209" class="cls-3" transform="translate(166.11 3.076)">
        <g id="Group_208" data-name="Group 208">
          <path id="Path_503" data-name="Path 503" class="cls-1" d="M75.61,24.517H74.9v-6.1h.71v.852a4.241,4.241,0,0,1,.9-.71A1.96,1.96,0,0,1,77.6,18.27a2.546,2.546,0,0,1,1.041.189,1.848,1.848,0,0,1,.8.663,2,2,0,0,1,.284.663,3.578,3.578,0,0,1,.047.71v4.023h-.71V20.542a1.819,1.819,0,0,0-.379-1.23,1.549,1.549,0,0,0-1.23-.426,2.4,2.4,0,0,0-.615.095.982.982,0,0,0-.473.284,1.44,1.44,0,0,0-.379.379,1.919,1.919,0,0,0-.237.426l-.142.568v3.881Z" transform="translate(-74.9 -18.27)"/>
        </g>
      </g>
    </g>
  </g>
</svg>
