<svg id="Logo_Erika" data-name="Logo Erika" xmlns="http://www.w3.org/2000/svg" viewBox="0 0 245.59 140.668">
  <defs>
    <style>
      .cls-1, .cls-2 {
        fill: rgba(0,0,0,0.4);
      }

      .cls-2 {
        opacity: 0.9;
      }
    </style>
  </defs>
  <g id="Group_24" data-name="Group 24">
    <g id="Group_19" data-name="Group 19" transform="translate(0 61.449)">
      <path id="Path_247" data-name="Path 247" class="cls-1" d="M0,18.18H17.8V22.2H4.494v9.566H17.362v4.017H4.494v9.771h13.72v3.983H0Z" transform="translate(0 -17.737)"/>
      <path id="Path_248" data-name="Path 248" class="cls-1" d="M6.8,49.568V18.18h7.864a11.406,11.406,0,0,1,7.558,2.349,7.905,7.905,0,0,1,2.792,6.4,8.071,8.071,0,0,1-1.362,4.732,8.293,8.293,0,0,1-3.949,3,14.111,14.111,0,0,1,2.928,2.689A53.867,53.867,0,0,1,26.681,43.3c1.089,1.77,1.975,3.132,2.621,4.017l1.668,2.247H25.626l-1.362-2.077a3.006,3.006,0,0,0-.272-.374l-.885-1.226-1.4-2.281-1.5-2.451A21.572,21.572,0,0,0,17.66,38.1a9.515,9.515,0,0,0-2.077-1.634,6.948,6.948,0,0,0-3.132-.511H11.294V49.6H6.8Zm5.855-27.575H11.294V31.9H13a13.132,13.132,0,0,0,4.7-.579,4.334,4.334,0,0,0,1.975-1.77,5.041,5.041,0,0,0,.715-2.689,4.963,4.963,0,0,0-.783-2.689,4.3,4.3,0,0,0-2.213-1.7A17.268,17.268,0,0,0,12.655,21.993Z" transform="translate(16.35 -17.737)"/>
      <path id="Path_249" data-name="Path 249" class="cls-1" d="M14.94,18.18h4.494V49.568H14.94Z" transform="translate(35.921 -17.737)"/>
      <path id="Path_250" data-name="Path 250" class="cls-1" d="M36.023,18.18H41.64L28.022,33.091,44.976,49.568H38.848L22.814,34.078v15.49H18.32V18.18h4.494V32.546Z" transform="translate(44.048 -17.737)"/>
      <path id="Path_251" data-name="Path 251" class="cls-1" d="M39.631,18.13H42.8l14.06,31.558h-4.6l-4.187-9.294H34.695L30.78,49.688H26.15Zm6.6,18.247L41.163,25.007l-4.7,11.371Z" transform="translate(62.874 -17.858)"/>
      <path id="Path_252" data-name="Path 252" class="cls-1" d="M39.98,49.568V18.18h7.864A11.406,11.406,0,0,1,55.4,20.529a7.905,7.905,0,0,1,2.792,6.4,8.324,8.324,0,0,1-1.362,4.732,8.363,8.363,0,0,1-3.915,3,14.111,14.111,0,0,1,2.928,2.689A53.872,53.872,0,0,1,59.9,43.3c1.089,1.77,1.975,3.132,2.621,4.017l1.668,2.247H58.84l-1.362-2.077a3.008,3.008,0,0,0-.272-.374l-.885-1.226-1.4-2.281-1.5-2.451A21.571,21.571,0,0,0,50.874,38.1,9.515,9.515,0,0,0,48.8,36.461a6.948,6.948,0,0,0-3.132-.511H44.474V49.6H39.98Zm5.855-27.575H44.474V31.9h1.7a13.132,13.132,0,0,0,4.7-.579,4.334,4.334,0,0,0,1.975-1.77,5.041,5.041,0,0,0,.715-2.689,4.963,4.963,0,0,0-.783-2.689,4.3,4.3,0,0,0-2.213-1.7A17.1,17.1,0,0,0,45.836,21.993Z" transform="translate(96.126 -17.737)"/>
      <path id="Path_253" data-name="Path 253" class="cls-1" d="M63.7,18.05a16.952,16.952,0,0,1,12.119,4.6,15.215,15.215,0,0,1,4.834,11.541,15.03,15.03,0,0,1-4.9,11.507,17.342,17.342,0,0,1-12.324,4.562,16.2,16.2,0,0,1-11.813-4.562,15.129,15.129,0,0,1-4.732-11.4,15.526,15.526,0,0,1,4.766-11.643A16.622,16.622,0,0,1,63.7,18.05Zm.17,4.255a12.2,12.2,0,0,0-8.851,3.37,11.465,11.465,0,0,0-3.472,8.613,11.244,11.244,0,0,0,3.472,8.443,11.992,11.992,0,0,0,8.715,3.37,12.122,12.122,0,0,0,8.783-3.438,11.425,11.425,0,0,0,3.506-8.545,11.23,11.23,0,0,0-3.506-8.409A11.943,11.943,0,0,0,63.868,22.305Z" transform="translate(112.716 -18.05)"/>
      <path id="Path_254" data-name="Path 254" class="cls-1" d="M67.3,36.692l-3.4-2.077a15.022,15.022,0,0,1-4.562-3.847,7.209,7.209,0,0,1-1.362-4.358,7.637,7.637,0,0,1,2.587-6.026A9.643,9.643,0,0,1,67.23,18.07a12.707,12.707,0,0,1,7.217,2.213v5.107a10.362,10.362,0,0,0-7.285-3.268,5.961,5.961,0,0,0-3.609,1.021,3.071,3.071,0,0,0-1.43,2.621,3.857,3.857,0,0,0,1.055,2.621,12.289,12.289,0,0,0,3.37,2.587l3.438,2.043c3.847,2.281,5.753,5.209,5.753,8.749a8.032,8.032,0,0,1-2.519,6.128,9.305,9.305,0,0,1-6.57,2.349,13.841,13.841,0,0,1-8.477-2.86V41.662c2.417,3.064,5.243,4.6,8.409,4.6A5.249,5.249,0,0,0,70.089,45.1a3.724,3.724,0,0,0,1.4-2.928C71.417,40.2,70.055,38.394,67.3,36.692Z" transform="translate(139.38 -18.002)"/>
      <path id="Path_255" data-name="Path 255" class="cls-1" d="M73.488,36.692l-3.4-2.077a15.022,15.022,0,0,1-4.562-3.847,7.209,7.209,0,0,1-1.362-4.358,7.637,7.637,0,0,1,2.587-6.026A9.643,9.643,0,0,1,73.42,18.07a12.707,12.707,0,0,1,7.217,2.213v5.107a10.362,10.362,0,0,0-7.285-3.268,5.96,5.96,0,0,0-3.609,1.021,3.071,3.071,0,0,0-1.43,2.621,3.857,3.857,0,0,0,1.055,2.621,12.846,12.846,0,0,0,3.37,2.587l3.438,2.043c3.813,2.281,5.753,5.209,5.753,8.749a8.032,8.032,0,0,1-2.519,6.128,9.248,9.248,0,0,1-6.57,2.349,13.841,13.841,0,0,1-8.477-2.86V41.662c2.417,3.064,5.243,4.6,8.409,4.6A5.249,5.249,0,0,0,76.28,45.1a3.724,3.724,0,0,0,1.4-2.928C77.607,40.2,76.245,38.394,73.488,36.692Z" transform="translate(154.263 -18.002)"/>
      <path id="Path_256" data-name="Path 256" class="cls-1" d="M70.82,18.18h4.494V49.568H70.82Z" transform="translate(170.276 -17.737)"/>
    </g>
    <g id="Group_20" data-name="Group 20" transform="translate(0.987 108.531)">
      <path id="Path_257" data-name="Path 257" class="cls-1" d="M5.74,31.99H7.715L10.642,40.6l2.894-8.613h1.975V42.169H14.183V33.59l-2.894,8.579H9.927L7,33.59V33.9c0,.238,0,.647.034,1.157,0,.511.034.885.034,1.123V42.2H5.74Z" transform="translate(12.814 -31.616)"/>
      <path id="Path_258" data-name="Path 258" class="cls-1" d="M10.15,31.99h1.4V42.169h-1.4Z" transform="translate(23.417 -31.616)"/>
      <path id="Path_259" data-name="Path 259" class="cls-1" d="M19.6,32.969a3.529,3.529,0,0,1,1.157,2.315H19.4a2.763,2.763,0,0,0-.885-1.566,2.862,2.862,0,0,0-1.872-.579,2.962,2.962,0,0,0-2.383,1.055,4.887,4.887,0,0,0-.919,3.234,4.776,4.776,0,0,0,.817,2.894,2.834,2.834,0,0,0,2.451,1.123,2.557,2.557,0,0,0,2.281-1.158,4.556,4.556,0,0,0,.613-1.634h1.362a4.361,4.361,0,0,1-1.192,2.689,4.088,4.088,0,0,1-3.234,1.294,4.357,4.357,0,0,1-2.962-1.089,5.623,5.623,0,0,1-1.566-4.392A5.773,5.773,0,0,1,13.1,33.446a4.232,4.232,0,0,1,3.506-1.566A4.5,4.5,0,0,1,19.6,32.969Z" transform="translate(27.649 -31.88)"/>
      <path id="Path_260" data-name="Path 260" class="cls-1" d="M15.974,31.99H20.6a4.283,4.283,0,0,1,1.872.34,2.385,2.385,0,0,1,1.4,2.417,2.785,2.785,0,0,1-.374,1.5,2.535,2.535,0,0,1-1.055.919,2,2,0,0,1,.885.647,2.363,2.363,0,0,1,.34,1.294l.034,1.362a2.605,2.605,0,0,0,.1.851.744.744,0,0,0,.443.613v.238h-1.7c-.034-.1-.068-.2-.1-.34s-.034-.409-.068-.817l-.068-1.7a1.39,1.39,0,0,0-.715-1.328,2.676,2.676,0,0,0-1.192-.2H17.336v4.358h-1.4V31.99Zm4.46,4.664a2.785,2.785,0,0,0,1.5-.375,1.926,1.926,0,0,0-.238-2.894,2.487,2.487,0,0,0-1.089-.2H17.336v3.472Z" transform="translate(37.338 -31.616)"/>
      <path id="Path_261" data-name="Path 261" class="cls-1" d="M28.509,33.636a5.539,5.539,0,0,1,1.021,3.472,5.887,5.887,0,0,1-1.157,3.779,4.606,4.606,0,0,1-3.881,1.77,4.643,4.643,0,0,1-3.711-1.566,5.9,5.9,0,0,1-1.192-3.779,6.107,6.107,0,0,1,1.021-3.541A4.431,4.431,0,0,1,24.492,31.9,4.724,4.724,0,0,1,28.509,33.636Zm-1.226,6.5a5.572,5.572,0,0,0,.817-3,4.181,4.181,0,0,0-.953-2.894,3.243,3.243,0,0,0-2.553-1.089,3.416,3.416,0,0,0-2.587,1.089,4.51,4.51,0,0,0-.987,3.2,4.668,4.668,0,0,0,.851,2.86,3.218,3.218,0,0,0,2.792,1.157A2.858,2.858,0,0,0,27.284,40.139Z" transform="translate(46.114 -31.832)"/>
      <path id="Path_262" data-name="Path 262" class="cls-1" d="M23.86,31.99h7.081v1.26H25.256v3.1h5v1.226h-5V42.2h-1.4Z" transform="translate(56.381 -31.616)"/>
      <path id="Path_263" data-name="Path 263" class="cls-1" d="M27.3,31.99h1.4V42.169H27.3Z" transform="translate(64.652 -31.616)"/>
      <path id="Path_264" data-name="Path 264" class="cls-1" d="M30.327,39.059a2.71,2.71,0,0,0,.409,1.4,2.561,2.561,0,0,0,2.315,1.021,3.468,3.468,0,0,0,1.362-.238A1.548,1.548,0,0,0,35.6,39.706a1.365,1.365,0,0,0-.511-1.192,4.893,4.893,0,0,0-1.6-.613l-1.328-.272a5.627,5.627,0,0,1-1.838-.681,2.207,2.207,0,0,1-.953-1.906,2.951,2.951,0,0,1,.919-2.247,3.7,3.7,0,0,1,2.621-.885,4.533,4.533,0,0,1,2.655.783,2.839,2.839,0,0,1,1.089,2.485H35.366a2.5,2.5,0,0,0-.443-1.26,2.376,2.376,0,0,0-2.043-.783,2.275,2.275,0,0,0-1.668.511,1.652,1.652,0,0,0-.511,1.192,1.155,1.155,0,0,0,.613,1.089,8.383,8.383,0,0,0,1.8.545l1.4.34a4.051,4.051,0,0,1,1.532.647A2.481,2.481,0,0,1,37,39.536a2.626,2.626,0,0,1-1.192,2.417,5.322,5.322,0,0,1-2.792.715,4.081,4.081,0,0,1-2.894-.987A3.187,3.187,0,0,1,29.1,39.059h1.226Z" transform="translate(68.978 -31.808)"/>
      <path id="Path_265" data-name="Path 265" class="cls-1" d="M32.91,31.99h1.4V42.169h-1.4Z" transform="translate(78.14 -31.616)"/>
      <path id="Path_266" data-name="Path 266" class="cls-1" d="M43.569,33.636a5.539,5.539,0,0,1,1.021,3.472,5.886,5.886,0,0,1-1.157,3.779,4.606,4.606,0,0,1-3.881,1.77,4.643,4.643,0,0,1-3.711-1.566,5.9,5.9,0,0,1-1.192-3.779,6.106,6.106,0,0,1,1.021-3.541A4.431,4.431,0,0,1,39.552,31.9,4.64,4.64,0,0,1,43.569,33.636Zm-1.192,6.5a5.572,5.572,0,0,0,.817-3,4.182,4.182,0,0,0-.953-2.894,3.243,3.243,0,0,0-2.553-1.089A3.416,3.416,0,0,0,37.1,34.249a4.509,4.509,0,0,0-.987,3.2,4.668,4.668,0,0,0,.851,2.86,3.218,3.218,0,0,0,2.792,1.157A2.858,2.858,0,0,0,42.378,40.139Z" transform="translate(82.324 -31.832)"/>
      <path id="Path_267" data-name="Path 267" class="cls-1" d="M46.9,31.99v1.226H43.464V42.2h-1.4V33.216H38.63V31.99Z" transform="translate(91.893 -31.616)"/>
      <path id="Path_268" data-name="Path 268" class="cls-1" d="M42.31,31.99H49.7v1.26h-6.06v3.1h5.583v1.192H43.638v3.438H49.8V42.2H42.31Z" transform="translate(100.741 -31.616)"/>
      <path id="Path_269" data-name="Path 269" class="cls-1" d="M45.964,31.99h4.63a4.284,4.284,0,0,1,1.872.34,2.385,2.385,0,0,1,1.4,2.417,2.785,2.785,0,0,1-.374,1.5,2.535,2.535,0,0,1-1.055.919,1.824,1.824,0,0,1,.885.647,2.7,2.7,0,0,1,.34,1.294l.034,1.362a2.6,2.6,0,0,0,.1.851.744.744,0,0,0,.443.613v.238h-1.7c-.034-.1-.068-.2-.1-.34a3.735,3.735,0,0,1-.068-.817l-.068-1.7a1.39,1.39,0,0,0-.715-1.328,2.676,2.676,0,0,0-1.192-.2H47.326v4.358h-1.4V31.99Zm4.46,4.664a2.7,2.7,0,0,0,1.5-.375,1.926,1.926,0,0,0-.238-2.894,2.487,2.487,0,0,0-1.089-.2H47.326v3.472Z" transform="translate(109.445 -31.616)"/>
      <path id="Path_270" data-name="Path 270" class="cls-1" d="M53.279,31.99h1.566l3.711,10.179h-1.5L56,39.105H52.019L50.93,42.169H49.5Zm2.281,5.992-1.566-4.494L52.36,37.982Z" transform="translate(118.028 -31.616)"/>
      <path id="Path_271" data-name="Path 271" class="cls-1" d="M53.39,31.99h4.562a3.1,3.1,0,0,1,2.179.783,2.8,2.8,0,0,1,.817,2.145,3.058,3.058,0,0,1-.749,2.077,2.874,2.874,0,0,1-2.281.885H54.786V42.2H53.424V31.99Zm5.345,1.4a3.129,3.129,0,0,0-1.26-.2H54.752v3.541h2.723a2.516,2.516,0,0,0,1.5-.409,1.591,1.591,0,0,0,.579-1.4A1.5,1.5,0,0,0,58.735,33.386Z" transform="translate(127.381 -31.616)"/>
      <path id="Path_272" data-name="Path 272" class="cls-1" d="M57.06,31.99h1.4V42.169h-1.4Z" transform="translate(136.205 -31.616)"/>
      <path id="Path_273" data-name="Path 273" class="cls-1" d="M62.509,31.99h1.566l3.711,10.179h-1.5l-1.055-3.064H61.249L60.16,42.169H58.73Zm2.281,5.992-1.566-4.494L61.59,37.982Z" transform="translate(140.221 -31.616)"/>
      <path id="Path_274" data-name="Path 274" class="cls-1" d="M64.38,31.99h7.387v1.26h-6.06v3.1h5.583v1.192H65.708v3.438H71.87V42.2H64.38Z" transform="translate(153.805 -31.616)"/>
      <path id="Path_275" data-name="Path 275" class="cls-1" d="M.29,38.24H7.371V39.5H1.686v3.1h5v1.226h-5v4.63H.29Z" transform="translate(-0.29 -16.588)"/>
      <path id="Path_276" data-name="Path 276" class="cls-1" d="M3.73,38.24h1.4V48.419H3.73Z" transform="translate(7.981 -16.588)"/>
      <path id="Path_277" data-name="Path 277" class="cls-1" d="M6.757,45.343a2.71,2.71,0,0,0,.409,1.4A2.561,2.561,0,0,0,9.481,47.76a3.468,3.468,0,0,0,1.362-.238,1.548,1.548,0,0,0,1.192-1.532,1.365,1.365,0,0,0-.511-1.192,4.892,4.892,0,0,0-1.6-.613L8.6,43.879A5.628,5.628,0,0,1,6.757,43.2,2.207,2.207,0,0,1,5.8,41.292a2.951,2.951,0,0,1,.919-2.247,3.7,3.7,0,0,1,2.621-.885A4.533,4.533,0,0,1,12,38.943a2.839,2.839,0,0,1,1.089,2.485H11.8a2.5,2.5,0,0,0-.443-1.26,2.376,2.376,0,0,0-2.043-.783,2.275,2.275,0,0,0-1.668.511,1.652,1.652,0,0,0-.511,1.192,1.155,1.155,0,0,0,.613,1.089,8.386,8.386,0,0,0,1.8.545l1.4.34a4.051,4.051,0,0,1,1.532.647,2.481,2.481,0,0,1,.953,2.077A2.626,2.626,0,0,1,12.238,48.2a5.322,5.322,0,0,1-2.792.715,4.081,4.081,0,0,1-2.894-.987,3.187,3.187,0,0,1-1.021-2.621H6.757Z" transform="translate(12.307 -16.781)"/>
      <path id="Path_278" data-name="Path 278" class="cls-1" d="M9.34,38.24h1.4V48.419H9.34Z" transform="translate(21.469 -16.588)"/>
      <path id="Path_279" data-name="Path 279" class="cls-1" d="M20,39.9a5.539,5.539,0,0,1,1.021,3.472,5.886,5.886,0,0,1-1.157,3.779,4.606,4.606,0,0,1-3.881,1.77,4.643,4.643,0,0,1-3.711-1.566,5.9,5.9,0,0,1-1.192-3.779A6.107,6.107,0,0,1,12.1,40.032a4.431,4.431,0,0,1,3.881-1.872A4.64,4.64,0,0,1,20,39.9Zm-1.192,6.5a5.572,5.572,0,0,0,.817-3,4.181,4.181,0,0,0-.953-2.894,3.243,3.243,0,0,0-2.553-1.089,3.416,3.416,0,0,0-2.587,1.089,4.509,4.509,0,0,0-.987,3.2,4.668,4.668,0,0,0,.851,2.86,3.218,3.218,0,0,0,2.792,1.157A3,3,0,0,0,18.808,46.4Z" transform="translate(25.653 -16.781)"/>
      <path id="Path_280" data-name="Path 280" class="cls-1" d="M23.333,38.24v1.226H19.894v8.988H18.5V39.466H15.06V38.24Z" transform="translate(35.222 -16.588)"/>
      <path id="Path_281" data-name="Path 281" class="cls-1" d="M18.74,38.24h7.387V39.5h-6.06v3.1h5.583v1.192H20.068v3.438H26.23v1.226H18.74V38.24Z" transform="translate(44.07 -16.588)"/>
      <path id="Path_282" data-name="Path 282" class="cls-1" d="M22.394,38.24h4.63a4.284,4.284,0,0,1,1.872.34A2.385,2.385,0,0,1,30.292,41a2.785,2.785,0,0,1-.374,1.5,2.535,2.535,0,0,1-1.055.919,2,2,0,0,1,.885.647,2.363,2.363,0,0,1,.34,1.294l.034,1.362a2.6,2.6,0,0,0,.1.851.744.744,0,0,0,.443.613v.238h-1.7c-.034-.1-.068-.2-.1-.34s-.034-.409-.068-.817l-.068-1.7a1.39,1.39,0,0,0-.715-1.328,2.676,2.676,0,0,0-1.192-.2H23.756v4.358h-1.4V38.24Zm4.46,4.664a2.785,2.785,0,0,0,1.5-.374,1.926,1.926,0,0,0-.238-2.894,2.487,2.487,0,0,0-1.089-.2H23.756V42.9Z" transform="translate(52.774 -16.588)"/>
      <path id="Path_283" data-name="Path 283" class="cls-1" d="M29.709,38.24h1.566l3.711,10.179h-1.5l-1.055-3.064H28.449L27.36,48.419H25.93Zm2.281,6.026-1.566-4.494L28.79,44.266Z" transform="translate(61.358 -16.588)"/>
      <path id="Path_284" data-name="Path 284" class="cls-1" d="M29.844,38.24h4.562a3.1,3.1,0,0,1,2.179.783,2.8,2.8,0,0,1,.817,2.145,3.058,3.058,0,0,1-.749,2.077,2.874,2.874,0,0,1-2.281.885H31.206v4.324h-1.4V38.24Zm5.345,1.4a3.13,3.13,0,0,0-1.26-.2H31.206v3.541h2.723a2.516,2.516,0,0,0,1.5-.409,1.591,1.591,0,0,0,.579-1.4A1.552,1.552,0,0,0,35.189,39.636Z" transform="translate(70.687 -16.588)"/>
      <path id="Path_285" data-name="Path 285" class="cls-1" d="M33.49,38.24h1.4V48.419h-1.4Z" transform="translate(79.535 -16.588)"/>
      <path id="Path_286" data-name="Path 286" class="cls-1" d="M38.929,38.24h1.566l3.711,10.179h-1.5l-1.055-3.064H37.669L36.58,48.419H35.15Zm2.315,6.026-1.566-4.494-1.634,4.494Z" transform="translate(83.526 -16.588)"/>
      <path id="Path_287" data-name="Path 287" class="cls-1" d="M40.79,38.24h4.085a3.777,3.777,0,0,1,3.2,1.5A5.5,5.5,0,0,1,49.1,43.176a6.722,6.722,0,0,1-.613,2.928,3.749,3.749,0,0,1-3.643,2.315H40.79ZM44.6,47.262a3.623,3.623,0,0,0,1.123-.136A2.406,2.406,0,0,0,47.02,46.07,4.7,4.7,0,0,0,47.6,44.5a6.118,6.118,0,0,0,.1-1.055,4.838,4.838,0,0,0-.749-2.928,2.667,2.667,0,0,0-2.383-1.055H42.186V47.3H44.6Z" transform="translate(97.086 -16.588)"/>
      <path id="Path_288" data-name="Path 288" class="cls-1" d="M53.389,39.9a5.539,5.539,0,0,1,1.021,3.472,5.886,5.886,0,0,1-1.158,3.779,5.159,5.159,0,0,1-7.592.2,5.9,5.9,0,0,1-1.192-3.779,6.106,6.106,0,0,1,1.021-3.541,4.431,4.431,0,0,1,3.881-1.872A4.724,4.724,0,0,1,53.389,39.9Zm-1.226,6.5a5.572,5.572,0,0,0,.817-3,4.181,4.181,0,0,0-.953-2.894,3.243,3.243,0,0,0-2.553-1.089,3.416,3.416,0,0,0-2.587,1.089,4.509,4.509,0,0,0-.987,3.2,4.668,4.668,0,0,0,.851,2.86,3.218,3.218,0,0,0,2.792,1.157A3,3,0,0,0,52.164,46.4Z" transform="translate(105.934 -16.781)"/>
      <path id="Path_289" data-name="Path 289" class="cls-1" d="M48.69,38.24h1.975l2.928,8.613,2.894-8.613H58.46V48.419H57.133V39.84l-2.894,8.579H52.877L49.95,39.84v.306c0,.238,0,.647.034,1.157,0,.511.034.885.034,1.123v6.026H48.69Z" transform="translate(116.081 -16.588)"/>
      <path id="Path_290" data-name="Path 290" class="cls-1" d="M53.1,38.24h1.4V48.419H53.1Z" transform="translate(126.684 -16.588)"/>
      <path id="Path_291" data-name="Path 291" class="cls-1" d="M62.554,39.229a3.529,3.529,0,0,1,1.158,2.315H62.35a2.764,2.764,0,0,0-.885-1.566,2.862,2.862,0,0,0-1.872-.579,2.962,2.962,0,0,0-2.383,1.055,4.887,4.887,0,0,0-.919,3.234,4.776,4.776,0,0,0,.817,2.894,2.834,2.834,0,0,0,2.451,1.123,2.557,2.557,0,0,0,2.281-1.158,4.557,4.557,0,0,0,.613-1.634h1.362A4.557,4.557,0,0,1,62.622,47.6,4.088,4.088,0,0,1,59.388,48.9a4.357,4.357,0,0,1-2.962-1.089,5.623,5.623,0,0,1-1.566-4.392,5.773,5.773,0,0,1,1.192-3.711,4.232,4.232,0,0,1,3.506-1.566A4.5,4.5,0,0,1,62.554,39.229Z" transform="translate(130.916 -16.829)"/>
      <path id="Path_292" data-name="Path 292" class="cls-1" d="M58.94,38.24h1.4V48.419h-1.4Z" transform="translate(140.725 -16.588)"/>
      <path id="Path_293" data-name="Path 293" class="cls-1" d="M60.84,38.24h1.4v8.987h5.107v1.226h-6.5Z" transform="translate(145.294 -16.588)"/>
      <path id="Path_294" data-name="Path 294" class="cls-1" d="M64.09,38.24h1.4V48.419h-1.4Z" transform="translate(153.108 -16.588)"/>
      <path id="Path_295" data-name="Path 295" class="cls-1" d="M69.529,38.24h1.566l3.711,10.179h-1.5l-1.055-3.064H68.269L67.18,48.419H65.75Zm2.315,6.026-1.566-4.494-1.634,4.494Z" transform="translate(157.099 -16.588)"/>
      <path id="Path_296" data-name="Path 296" class="cls-1" d="M69.684,38.24h4.63a4.283,4.283,0,0,1,1.872.34A2.385,2.385,0,0,1,77.582,41a2.785,2.785,0,0,1-.374,1.5,2.535,2.535,0,0,1-1.055.919,2,2,0,0,1,.885.647,2.363,2.363,0,0,1,.34,1.294l.034,1.362a2.606,2.606,0,0,0,.1.851.744.744,0,0,0,.443.613v.238h-1.7c-.034-.1-.068-.2-.1-.34a3.736,3.736,0,0,1-.068-.817l-.068-1.7a1.39,1.39,0,0,0-.715-1.328,2.676,2.676,0,0,0-1.192-.2H71.046v4.358h-1.4V38.24Zm4.46,4.664a2.785,2.785,0,0,0,1.5-.374,1.926,1.926,0,0,0-.238-2.894,2.487,2.487,0,0,0-1.089-.2H71.046V42.9Z" transform="translate(166.476 -16.588)"/>
    </g>
    <g id="Group_21" data-name="Group 21" transform="translate(0.272 48.887)">
      <path id="Path_297" data-name="Path 297" class="cls-1" d="M.08,14.36H3.314a3.073,3.073,0,0,1,2.553,1.192,4.424,4.424,0,0,1,.817,2.758,5.908,5.908,0,0,1-.477,2.349A2.966,2.966,0,0,1,3.314,22.5H.08Zm3.03,7.183a3.158,3.158,0,0,0,.885-.1,1.969,1.969,0,0,0,1.021-.817,3.893,3.893,0,0,0,.477-1.26,3.737,3.737,0,0,0,.068-.851,4.122,4.122,0,0,0-.579-2.349,2.219,2.219,0,0,0-1.906-.851H1.2v6.23Z" transform="translate(-0.08 -14.36)"/>
      <path id="Path_298" data-name="Path 298" class="cls-1" d="M2.84,14.36H6.517a3.681,3.681,0,0,1,1.5.272,1.891,1.891,0,0,1,1.157,1.906,2.136,2.136,0,0,1-.306,1.192,2.3,2.3,0,0,1-.851.749,1.931,1.931,0,0,1,.715.511A1.837,1.837,0,0,1,9,20.011L9.036,21.1a2.98,2.98,0,0,0,.068.681.727.727,0,0,0,.34.511v.17H8.083a2.345,2.345,0,0,1-.1-.272,6.237,6.237,0,0,1-.068-.647l-.068-1.362a1.09,1.09,0,0,0-.579-1.055,2.251,2.251,0,0,0-.953-.136H3.963v3.472H2.84Zm3.575,3.711a2.06,2.06,0,0,0,1.192-.306,1.246,1.246,0,0,0,.443-1.123,1.213,1.213,0,0,0-.613-1.192,2.039,2.039,0,0,0-.885-.17H3.963v2.792H6.415Z" transform="translate(6.556 -14.36)"/>
      <path id="Path_299" data-name="Path 299" class="cls-1" d="M8.37,14.36h1.26L12.591,22.5H11.366l-.851-2.417H7.349L6.463,22.5H5.34Zm1.838,4.8-1.26-3.575L7.655,19.16Z" transform="translate(12.567 -14.36)"/>
      <path id="Path_300" data-name="Path 300" class="cls-1" d="M8.12,16.39H9.277v1.192H8.12Z" transform="translate(19.251 -9.479)"/>
    </g>
    <g id="Group_22" data-name="Group 22" transform="translate(189.214 47.967)">
      <path id="Path_301" data-name="Path 301" class="cls-1" d="M58.576,14.5a1.515,1.515,0,0,1,.477.919h-.545a1.078,1.078,0,0,0-.34-.613,1.228,1.228,0,0,0-.749-.238,1.188,1.188,0,0,0-.953.409,1.955,1.955,0,0,0-.374,1.294,1.8,1.8,0,0,0,.34,1.157,1.1,1.1,0,0,0,.987.443,1.044,1.044,0,0,0,.919-.477,1.606,1.606,0,0,0,.238-.647h.545a1.778,1.778,0,0,1-.477,1.089,1.667,1.667,0,0,1-1.294.511,1.539,1.539,0,0,1-1.158-.443,2.245,2.245,0,0,1-.613-1.736,2.224,2.224,0,0,1,.477-1.464,1.736,1.736,0,0,1,1.4-.613A1.573,1.573,0,0,1,58.576,14.5Z" transform="translate(-55.58 -14.09)"/>
      <path id="Path_302" data-name="Path 302" class="cls-1" d="M56.92,14.13h1.838a1.639,1.639,0,0,1,.749.136.984.984,0,0,1,.579.953,1.626,1.626,0,0,1-.136.613,1.082,1.082,0,0,1-.409.374,1.014,1.014,0,0,1,.374.238.919.919,0,0,1,.136.511l.034.545c0,.17.034.272.034.34a.337.337,0,0,0,.17.238v.1h-.681c-.034-.034-.034-.068-.034-.136s-.034-.17-.034-.306l-.034-.681a.58.58,0,0,0-.272-.545.941.941,0,0,0-.477-.068H57.533v1.736h-.545V14.13Zm1.77,1.838a.974.974,0,0,0,.579-.17.626.626,0,0,0,.2-.545.6.6,0,0,0-.306-.579.8.8,0,0,0-.443-.068H57.431V16h1.26Z" transform="translate(-52.358 -13.994)"/>
      <path id="Path_303" data-name="Path 303" class="cls-1" d="M58.2,14.13h2.962v.511H58.745v1.226h2.213v.477H58.745V17.7H61.2v.477h-3Z" transform="translate(-49.281 -13.994)"/>
      <path id="Path_304" data-name="Path 304" class="cls-1" d="M59.39,14.13h2.826v.511H59.935v1.226h2.009v.477H59.935v1.838H59.39V14.13Z" transform="translate(-46.419 -13.994)"/>
      <path id="Path_305" data-name="Path 305" class="cls-1" d="M60.51,14.13h.545v4.051H60.51Z" transform="translate(-43.727 -13.994)"/>
      <path id="Path_306" data-name="Path 306" class="cls-1" d="M64.2,14.13v.477H62.836v3.575h-.545V14.607H60.93V14.13Z" transform="translate(-42.717 -13.994)"/>
      <path id="Path_307" data-name="Path 307" class="cls-1" d="M65.571,14.783a2.229,2.229,0,0,1,.409,1.362,2.144,2.144,0,0,1-.477,1.5,2.025,2.025,0,0,1-3,.1,2.388,2.388,0,0,1-.477-1.5,2.334,2.334,0,0,1,.409-1.4,2.074,2.074,0,0,1,3.132-.068Zm-.477,2.587a2.321,2.321,0,0,0,.34-1.192,1.815,1.815,0,0,0-.374-1.157,1.206,1.206,0,0,0-1.021-.443,1.3,1.3,0,0,0-1.021.443,1.843,1.843,0,0,0-.409,1.294,1.764,1.764,0,0,0,.34,1.123,1.343,1.343,0,0,0,1.123.477A1.287,1.287,0,0,0,65.094,17.37Z" transform="translate(-40.072 -14.068)"/>
      <path id="Path_308" data-name="Path 308" class="cls-1" d="M64.236,17.885a1.522,1.522,0,0,1-.306-.953h.511a1.367,1.367,0,0,0,.136.545.8.8,0,0,0,.715.306.982.982,0,0,0,.647-.2.635.635,0,0,0,.238-.545.623.623,0,0,0-.238-.579,1.341,1.341,0,0,0-.681-.17h-.2v-.443h.238a.851.851,0,0,0,.443-.1.546.546,0,0,0,.306-.545.506.506,0,0,0-.2-.443.813.813,0,0,0-.477-.17.689.689,0,0,0-.681.34,1.845,1.845,0,0,0-.136.511h-.477a1.622,1.622,0,0,1,.17-.749,1.079,1.079,0,0,1,1.055-.545,1.409,1.409,0,0,1,.919.272,1,1,0,0,1,.34.783.8.8,0,0,1-.2.579.5.5,0,0,1-.306.2.829.829,0,0,1,.477.34,1.176,1.176,0,0,1,.17.613,1.257,1.257,0,0,1-.374.919,1.461,1.461,0,0,1-1.055.34A1.076,1.076,0,0,1,64.236,17.885Z" transform="translate(-35.504 -13.97)"/>
      <path id="Path_309" data-name="Path 309" class="cls-1" d="M66.184,14.13h.408L65.3,18.181H64.89Z" transform="translate(-33.195 -13.994)"/>
      <path id="Path_310" data-name="Path 310" class="cls-1" d="M65.786,17.885a1.522,1.522,0,0,1-.306-.953h.511a1.367,1.367,0,0,0,.136.545.8.8,0,0,0,.715.306.982.982,0,0,0,.647-.2.635.635,0,0,0,.238-.545.623.623,0,0,0-.238-.579,1.341,1.341,0,0,0-.681-.17h-.2v-.443h.238a.851.851,0,0,0,.443-.1.545.545,0,0,0,.306-.545.506.506,0,0,0-.2-.443.813.813,0,0,0-.477-.17.688.688,0,0,0-.681.34,1.845,1.845,0,0,0-.136.511h-.477a1.623,1.623,0,0,1,.17-.749,1.079,1.079,0,0,1,1.055-.545,1.409,1.409,0,0,1,.919.272,1,1,0,0,1,.34.783.8.8,0,0,1-.2.579.5.5,0,0,1-.306.2.829.829,0,0,1,.477.34,1.175,1.175,0,0,1,.17.613,1.257,1.257,0,0,1-.374.919,1.461,1.461,0,0,1-1.055.34A1.076,1.076,0,0,1,65.786,17.885Z" transform="translate(-31.777 -13.97)"/>
      <path id="Path_311" data-name="Path 311" class="cls-1" d="M69.258,14.18v.443a4.251,4.251,0,0,0-.511.647,5.589,5.589,0,0,0-.545.987,6.856,6.856,0,0,0-.374.953,4.956,4.956,0,0,0-.2.885h-.545a7.487,7.487,0,0,1,.817-2.247,5.91,5.91,0,0,1,.783-1.123H66.5v-.511h2.758Z" transform="translate(-29.324 -13.874)"/>
      <path id="Path_312" data-name="Path 312" class="cls-1" d="M69.821,14.514a1.252,1.252,0,0,1,.272.715h-.477a.958.958,0,0,0-.136-.374.635.635,0,0,0-.545-.238.73.73,0,0,0-.647.374,1.978,1.978,0,0,0-.272,1.089.941.941,0,0,1,.443-.374A1.411,1.411,0,0,1,69,15.6a1.245,1.245,0,0,1,.851.306,1.229,1.229,0,0,1,.375.953,1.368,1.368,0,0,1-.34.953,1.259,1.259,0,0,1-.987.409,1.288,1.288,0,0,1-.953-.409,1.993,1.993,0,0,1-.409-1.43,4.507,4.507,0,0,1,.17-1.26,1.29,1.29,0,0,1,1.26-.987A1.114,1.114,0,0,1,69.821,14.514Zm-.374,3.03a.95.95,0,0,0,.2-.613,1.147,1.147,0,0,0-.17-.579.729.729,0,0,0-.647-.272.924.924,0,0,0-.579.2.758.758,0,0,0-.238.647,1.047,1.047,0,0,0,.2.647.748.748,0,0,0,.613.272A.82.82,0,0,0,69.446,17.544Z" transform="translate(-26.824 -13.97)"/>
      <path id="Path_313" data-name="Path 313" class="cls-1" d="M69.031,17.088a.681.681,0,0,0,.409.579.737.737,0,0,0,.408.068.772.772,0,0,0,.647-.272,1.1,1.1,0,0,0,.2-.613.848.848,0,0,0-.238-.647.979.979,0,0,0-.613-.238.942.942,0,0,0-.443.1.8.8,0,0,0-.306.272l-.443-.034.306-2.145h2.043v.477H69.337l-.17,1.089a1.194,1.194,0,0,1,.272-.17,1.137,1.137,0,0,1,.511-.1,1.223,1.223,0,0,1,1.294,1.226,1.454,1.454,0,0,1-.34.987,1.431,1.431,0,0,1-1.123.443,1.49,1.49,0,0,1-.851-.272,1.135,1.135,0,0,1-.409-.851h.511Z" transform="translate(-24.468 -13.922)"/>
      <path id="Path_314" data-name="Path 314" class="cls-1" d="M72.288,14.18v.443a4.248,4.248,0,0,0-.511.647,5.588,5.588,0,0,0-.545.987,6.862,6.862,0,0,0-.374.953,4.962,4.962,0,0,0-.2.885h-.545a7.487,7.487,0,0,1,.817-2.247,5.913,5.913,0,0,1,.783-1.123H69.53v-.511h2.758Z" transform="translate(-22.039 -13.874)"/>
      <path id="Path_315" data-name="Path 315" class="cls-1" d="M70.55,14.78h1.4v.511h-1.4Z" transform="translate(-19.587 -12.431)"/>
      <path id="Path_316" data-name="Path 316" class="cls-1" d="M71.284,14.13H74.11v.511H71.829v1.226H73.8v.477H71.795v1.838H71.25V14.13Z" transform="translate(-17.904 -13.994)"/>
    </g>
    <g id="Group_23" data-name="Group 23" transform="translate(109.586)">
      <path id="Path_317" data-name="Path 317" class="cls-1" d="M32.19,27.741s1.906-5.447,12.392-7.932C53.672,17.7,62.727,15.69,63.612,3.23a15.273,15.273,0,0,1-5.958,16.307c-8.953,6.536-24,14.6-16.886,28.052,0,0-9.634-8.749,3.541-23.8C44.31,23.86,38.522,22.907,32.19,27.741Z" transform="translate(-32.19 7.766)"/>
      <path id="Path_318" data-name="Path 318" class="cls-2" d="M44.083,10.16s-12.868,11.4.647,36.495C44.73,46.621,23.282,25.922,44.083,10.16Z" transform="translate(-25.427 24.428)"/>
      <path id="Path_319" data-name="Path 319" class="cls-1" d="M39.448,14.024c-1.906,0-3.438-2.111-3.438-4.732S37.542,4.56,39.448,4.56s3.438,2.111,3.438,4.732S41.355,14.024,39.448,14.024Z" transform="translate(-23.005 10.964)"/>
      <path id="Path_320" data-name="Path 320" class="cls-1" d="M39.27,5.209c4.255.511,4.664.953,5.175,5.175.511-4.221.953-4.664,5.175-5.175C45.4,4.664,44.989,4.255,44.445,0,43.934,4.255,43.491,4.664,39.27,5.209Z" transform="translate(-15.167)"/>
      <path id="Path_321" data-name="Path 321" class="cls-1" d="M42.45,7.193c1.8.238,2.009.409,2.213,2.213.2-1.8.409-2.009,2.213-2.213-1.8-.2-2.009-.409-2.213-2.213C44.425,6.818,44.254,6.989,42.45,7.193Z" transform="translate(-7.521 11.974)"/>
      <path id="Path_322" data-name="Path 322" class="cls-2" d="M42.27,5.212c2.315.272,2.519.511,2.826,2.826.272-2.315.511-2.553,2.826-2.826C45.606,4.939,45.4,4.7,45.1,2.42,44.823,4.7,44.585,4.905,42.27,5.212Z" transform="translate(-7.954 5.819)"/>
      <path id="Path_323" data-name="Path 323" class="cls-2" d="M39.69,4.91c1.157.136,1.294.238,1.43,1.43.136-1.157.238-1.294,1.43-1.43-1.192-.136-1.294-.272-1.43-1.43C40.984,4.637,40.847,4.74,39.69,4.91Z" transform="translate(-14.157 8.367)"/>
    </g>
  </g>
</svg>
