<svg id="Logo_Melina" data-name="Logo Melina" xmlns="http://www.w3.org/2000/svg" viewBox="0 0 289.676 121.444">
  <defs>
    <style>
      .cls-1, .cls-2, .cls-3 {
        fill: rgba(0,0,0,0.4);
      }

      .cls-1 {
        opacity: 0.7;
      }

      .cls-3 {
        opacity: 0.9;
      }
    </style>
  </defs>
  <g id="Group_213" data-name="Group 213" transform="translate(0 0)">
    <path id="Path_504" data-name="Path 504" class="cls-1" d="M44.767,15.136a28.068,28.068,0,0,0-.438,26.553A28.106,28.106,0,0,0,64.015,1.22,28.006,28.006,0,0,0,44.767,15.136Z" transform="translate(109.294 3.236)"/>
    <path id="Path_505" data-name="Path 505" class="cls-1" d="M57.218,8.532A28.148,28.148,0,0,0,42.06,30.374a28.19,28.19,0,0,0,23.741-.84A28.149,28.149,0,0,0,80.959,7.692,28.186,28.186,0,0,0,57.218,8.532Z" transform="translate(111.562 14.515)"/>
    <path id="Path_506" data-name="Path 506" class="cls-1" d="M57.594,13.823A27.994,27.994,0,0,1,60.516,40.23,28.113,28.113,0,0,1,37.14,1.77,28.206,28.206,0,0,1,57.594,13.823Z" transform="translate(93.107 4.695)"/>
    <path id="Path_507" data-name="Path 507" class="cls-1" d="M54.584,8.192A28.122,28.122,0,0,1,71.715,28.5a28.074,28.074,0,0,1-23.7,1.388A28.122,28.122,0,0,1,30.88,9.58,27.951,27.951,0,0,1,54.584,8.192Z" transform="translate(81.908 16.425)"/>
    <path id="Path_508" data-name="Path 508" class="cls-2" d="M38.61,21.513A28.084,28.084,0,0,0,51.174,44.925,28.079,28.079,0,0,0,48.654,0,28.046,28.046,0,0,0,38.61,21.513Z" transform="translate(102.411 0)"/>
    <g id="Group_212" data-name="Group 212" transform="translate(0 69.616)">
      <path id="Path_509" data-name="Path 509" class="cls-3" d="M3.579,19.06l8.474,22.39,8.8-22.39h3.579V44.591H21.988V22.53h-.037L13.222,44.591h-2.3L2.52,22.53H2.447V44.591H0V19.06Z" transform="translate(0 -19.06)"/>
      <path id="Path_510" data-name="Path 510" class="cls-3" d="M10.873,33.753a6.558,6.558,0,0,0,1.1,2.338,6.118,6.118,0,0,0,1.9,1.717,5.442,5.442,0,0,0,2.739.694,5.621,5.621,0,0,0,3.872-1.278,7.068,7.068,0,0,0,1.936-3.433H24.68a8.964,8.964,0,0,1-2.63,4.858,7.867,7.867,0,0,1-5.406,1.717,8.535,8.535,0,0,1-3.762-.767,7.252,7.252,0,0,1-2.63-2.118,9.435,9.435,0,0,1-1.5-3.1,13.7,13.7,0,0,1-.475-3.726,13.2,13.2,0,0,1,.475-3.579,9.26,9.26,0,0,1,1.5-3.141A7.715,7.715,0,0,1,12.846,21.7a8.054,8.054,0,0,1,3.762-.84,7.783,7.783,0,0,1,3.8.877,7.5,7.5,0,0,1,2.557,2.338A9.747,9.747,0,0,1,24.387,27.4a14.74,14.74,0,0,1,.365,3.8H10.508A10.535,10.535,0,0,0,10.873,33.753Zm11.14-6.9a5.814,5.814,0,0,0-1.169-2.082,5.48,5.48,0,0,0-1.826-1.461,5.359,5.359,0,0,0-2.447-.548,5.515,5.515,0,0,0-2.484.548,5.976,5.976,0,0,0-1.826,1.461,7.1,7.1,0,0,0-1.205,2.118,9.561,9.561,0,0,0-.584,2.447H22.415A6.34,6.34,0,0,0,22.013,26.85Z" transform="translate(21.962 -14.286)"/>
      <path id="Path_511" data-name="Path 511" class="cls-3" d="M16.475,19.06V44.591H14.21V19.06Z" transform="translate(37.691 -19.06)"/>
      <path id="Path_512" data-name="Path 512" class="cls-3" d="M18.875,19.06v3.616H16.61V19.06Zm0,7.086V44.591H16.61V26.146Z" transform="translate(44.057 -19.06)"/>
      <path id="Path_513" data-name="Path 513" class="cls-3" d="M21.255,21.4v3.178h.073a5.5,5.5,0,0,1,2.3-2.7,6.607,6.607,0,0,1,3.616-1.023,9.339,9.339,0,0,1,3.251.511,4.818,4.818,0,0,1,2.082,1.424,5.544,5.544,0,0,1,1.1,2.228A12.221,12.221,0,0,1,34,27.972v11.87H31.737V28.338a10.122,10.122,0,0,0-.219-2.191,4.275,4.275,0,0,0-.767-1.753,3.587,3.587,0,0,0-1.461-1.169,5.215,5.215,0,0,0-2.265-.438,5.572,5.572,0,0,0-2.411.475,5.422,5.422,0,0,0-1.79,1.315,5.989,5.989,0,0,0-1.132,2.009,7.922,7.922,0,0,0-.438,2.52V39.879H18.99V21.4Z" transform="translate(50.37 -14.312)"/>
      <path id="Path_514" data-name="Path 514" class="cls-3" d="M25.988,24.257a5.116,5.116,0,0,1,1.571-1.936,6.111,6.111,0,0,1,2.3-1.1,10.5,10.5,0,0,1,2.922-.365,14.167,14.167,0,0,1,2.447.219,5.765,5.765,0,0,1,2.191.877,4.7,4.7,0,0,1,1.571,1.79,6.566,6.566,0,0,1,.621,3.032v9.789a1.174,1.174,0,0,0,1.315,1.351,1.635,1.635,0,0,0,.731-.146v1.9c-.256.037-.511.073-.694.11a4.9,4.9,0,0,1-.767.037,3.683,3.683,0,0,1-1.388-.219,1.786,1.786,0,0,1-.8-.657,2.283,2.283,0,0,1-.365-1.023,7.512,7.512,0,0,1-.073-1.315h-.073a14.351,14.351,0,0,1-1.242,1.607,6.053,6.053,0,0,1-1.388,1.169,7.661,7.661,0,0,1-1.753.73,8.8,8.8,0,0,1-2.338.256,9.906,9.906,0,0,1-2.411-.292,5.509,5.509,0,0,1-1.972-.95,4.655,4.655,0,0,1-1.315-1.68,5.571,5.571,0,0,1-.475-2.411A4.753,4.753,0,0,1,25.477,32a5.589,5.589,0,0,1,2.265-1.68,13.486,13.486,0,0,1,3.178-.8c1.169-.146,2.374-.292,3.579-.438A9.1,9.1,0,0,0,35.74,28.9a1.93,1.93,0,0,0,.877-.365,1.556,1.556,0,0,0,.548-.73,2.889,2.889,0,0,0,.183-1.205,3.935,3.935,0,0,0-.365-1.863,3.168,3.168,0,0,0-1.023-1.169,4.071,4.071,0,0,0-1.534-.584,10.138,10.138,0,0,0-1.863-.146,5.626,5.626,0,0,0-3.506,1.023,3.946,3.946,0,0,0-1.424,3.287H25.367A6.617,6.617,0,0,1,25.988,24.257Zm11.286,5.479a1.386,1.386,0,0,1-.84.584,8.683,8.683,0,0,1-1.059.256q-1.424.274-2.958.438a18.511,18.511,0,0,0-2.776.584,4.817,4.817,0,0,0-2.045,1.132,2.6,2.6,0,0,0-.8,2.082,3.389,3.389,0,0,0,.329,1.534,3.471,3.471,0,0,0,.913,1.132,3.583,3.583,0,0,0,1.315.73,4.508,4.508,0,0,0,1.534.256,8.04,8.04,0,0,0,2.484-.4,6.168,6.168,0,0,0,2.045-1.132A5.28,5.28,0,0,0,36.8,35.1a5.862,5.862,0,0,0,.511-2.447V29.735Z" transform="translate(65.25 -14.286)"/>
      <path id="Path_515" data-name="Path 515" class="cls-3" d="M44.761,19.06a17.212,17.212,0,0,1,3.1.292,8.4,8.4,0,0,1,2.63,1.023,5.075,5.075,0,0,1,1.79,1.936,6.153,6.153,0,0,1,.694,3,5.826,5.826,0,0,1-.329,1.936,5.965,5.965,0,0,1-.913,1.717,6.75,6.75,0,0,1-1.388,1.315,5.213,5.213,0,0,1-1.79.767v.073a5.944,5.944,0,0,1,5.406,6.209,10.036,10.036,0,0,1-.11,1.388,6.788,6.788,0,0,1-.438,1.571,7.193,7.193,0,0,1-.913,1.607,5.7,5.7,0,0,1-1.644,1.388,8.848,8.848,0,0,1-2.52.95,14.589,14.589,0,0,1-3.579.365H33.95V19.06Zm0,11.213a8.87,8.87,0,0,0,2.557-.329,5.489,5.489,0,0,0,1.79-.913,3.535,3.535,0,0,0,1.059-1.388,3.763,3.763,0,0,0,.365-1.68c0-3.214-1.936-4.785-5.771-4.785H36.4V30.31h8.364Zm0,12.272a14.9,14.9,0,0,0,2.593-.219,5.909,5.909,0,0,0,2.155-.84,4.256,4.256,0,0,0,1.461-1.644,5.4,5.4,0,0,0,.548-2.557A4.184,4.184,0,0,0,49.765,33.6a8.44,8.44,0,0,0-5-1.242H36.4v10.19h8.364Z" transform="translate(90.051 -19.06)"/>
      <path id="Path_516" data-name="Path 516" class="cls-3" d="M43.267,33.753a6.558,6.558,0,0,0,1.1,2.338,6.117,6.117,0,0,0,1.9,1.717A5.442,5.442,0,0,0,49,38.5a5.621,5.621,0,0,0,3.872-1.278,7.068,7.068,0,0,0,1.936-3.433h2.265a8.964,8.964,0,0,1-2.63,4.858,7.867,7.867,0,0,1-5.406,1.717,8.535,8.535,0,0,1-3.762-.767,6.716,6.716,0,0,1-2.593-2.118,9.434,9.434,0,0,1-1.5-3.1,13.7,13.7,0,0,1-.475-3.726,13.2,13.2,0,0,1,.475-3.579,9.259,9.259,0,0,1,1.5-3.141A7.715,7.715,0,0,1,45.276,21.7a8.054,8.054,0,0,1,3.762-.84,7.783,7.783,0,0,1,3.8.877,7.5,7.5,0,0,1,2.557,2.338A9.746,9.746,0,0,1,56.817,27.4a14.739,14.739,0,0,1,.365,3.8H42.975A8.878,8.878,0,0,0,43.267,33.753Zm11.177-6.9a5.814,5.814,0,0,0-1.169-2.082,5.48,5.48,0,0,0-1.826-1.461A5.359,5.359,0,0,0,49,22.759a5.515,5.515,0,0,0-2.484.548,5.976,5.976,0,0,0-1.826,1.461,7.1,7.1,0,0,0-1.205,2.118,9.561,9.561,0,0,0-.584,2.447H54.845A8.04,8.04,0,0,0,54.443,26.85Z" transform="translate(107.982 -14.286)"/>
      <path id="Path_517" data-name="Path 517" class="cls-3" d="M48.9,19.06V44.591H46.64V19.06Z" transform="translate(123.711 -19.06)"/>
      <path id="Path_518" data-name="Path 518" class="cls-3" d="M51.112,21.371v3.1h.11a6.96,6.96,0,0,1,2.338-2.666,6.369,6.369,0,0,1,3.689-.95,6.554,6.554,0,0,1,3.324.877,4.325,4.325,0,0,1,1.972,2.7,5.538,5.538,0,0,1,2.447-2.7,7.061,7.061,0,0,1,3.433-.877q6.136,0,6.136,6.465V39.853H72.3V27.434a5.648,5.648,0,0,0-.95-3.506,4.169,4.169,0,0,0-3.4-1.205,4.951,4.951,0,0,0-2.447.548,4.03,4.03,0,0,0-1.534,1.5,6.391,6.391,0,0,0-.8,2.118,13.958,13.958,0,0,0-.219,2.484V39.816H60.681V27.288a8.9,8.9,0,0,0-.183-1.753,3.816,3.816,0,0,0-.657-1.461,3.253,3.253,0,0,0-1.205-.986,3.975,3.975,0,0,0-1.826-.365,5.792,5.792,0,0,0-2.484.511,4.674,4.674,0,0,0-1.717,1.424,6.492,6.492,0,0,0-.986,2.155,10.539,10.539,0,0,0-.329,2.7v10.3H49.03V21.371Z" transform="translate(130.05 -14.286)"/>
      <path id="Path_519" data-name="Path 519" class="cls-3" d="M70.69,39.481V36.158h-.073a6.344,6.344,0,0,1-2.593,2.849,7.324,7.324,0,0,1-3.762.986,8.183,8.183,0,0,1-3-.475,4.727,4.727,0,0,1-2.009-1.388,5.672,5.672,0,0,1-1.132-2.191,10.32,10.32,0,0,1-.365-2.922V21h2.265V33.017a5.959,5.959,0,0,0,1.169,3.8c.73.877,1.972,1.278,3.762,1.278a4.954,4.954,0,0,0,2.52-.621,5.034,5.034,0,0,0,1.717-1.68,7.25,7.25,0,0,0,.986-2.374,13.388,13.388,0,0,0,.329-2.739V21h2.265V39.445H70.69Z" transform="translate(153.206 -13.914)"/>
      <path id="Path_520" data-name="Path 520" class="cls-3" d="M78.349,44.574V41.068h-.073a5.735,5.735,0,0,1-1.059,1.644,6.885,6.885,0,0,1-1.607,1.278,8.728,8.728,0,0,1-1.9.8,7.858,7.858,0,0,1-2.009.292,8.047,8.047,0,0,1-3.652-.767A7.3,7.3,0,0,1,65.455,42.2a8.829,8.829,0,0,1-1.534-3.1,13.826,13.826,0,0,1,0-7.451,8.829,8.829,0,0,1,1.534-3.1,7.3,7.3,0,0,1,2.593-2.118,8.157,8.157,0,0,1,3.652-.8,7.413,7.413,0,0,1,3.835,1.023,5.728,5.728,0,0,1,1.534,1.278,5.976,5.976,0,0,1,1.023,1.753h.073V19.08H80.43V44.611H78.349ZM66,38.182a7.825,7.825,0,0,0,1.059,2.52,5.808,5.808,0,0,0,1.863,1.79,5.093,5.093,0,0,0,2.739.694,6,6,0,0,0,3.032-.694,6.334,6.334,0,0,0,2.009-1.79,7.149,7.149,0,0,0,1.1-2.52,12.511,12.511,0,0,0,0-5.7,7.149,7.149,0,0,0-1.1-2.52,5.6,5.6,0,0,0-2.009-1.79,6,6,0,0,0-3.032-.694,5.008,5.008,0,0,0-2.739.694,5.823,5.823,0,0,0-1.863,1.79A7.825,7.825,0,0,0,66,32.485a12.509,12.509,0,0,0,0,5.7Z" transform="translate(168.192 -19.007)"/>
      <path id="Path_521" data-name="Path 521" class="cls-3" d="M72.147,33.753a6.559,6.559,0,0,0,1.1,2.338,6.118,6.118,0,0,0,1.9,1.717,5.442,5.442,0,0,0,2.739.694,5.621,5.621,0,0,0,3.872-1.278,7.068,7.068,0,0,0,1.936-3.433h2.265a8.964,8.964,0,0,1-2.63,4.858,7.867,7.867,0,0,1-5.406,1.717,8.535,8.535,0,0,1-3.762-.767,6.717,6.717,0,0,1-2.593-2.118,9.436,9.436,0,0,1-1.5-3.1,13.706,13.706,0,0,1-.475-3.726,13.206,13.206,0,0,1,.475-3.579,9.261,9.261,0,0,1,1.5-3.141A7.716,7.716,0,0,1,74.156,21.7a8.054,8.054,0,0,1,3.762-.84,7.784,7.784,0,0,1,3.8.877,7.5,7.5,0,0,1,2.557,2.338A9.746,9.746,0,0,1,85.7,27.4a14.741,14.741,0,0,1,.365,3.8H71.818A10.452,10.452,0,0,0,72.147,33.753Zm11.177-6.9a5.814,5.814,0,0,0-1.169-2.082,5.481,5.481,0,0,0-1.826-1.461,5.359,5.359,0,0,0-2.447-.548,5.515,5.515,0,0,0-2.484.548,5.976,5.976,0,0,0-1.826,1.461,7.1,7.1,0,0,0-1.205,2.118,9.565,9.565,0,0,0-.584,2.447H83.725A8.039,8.039,0,0,0,83.323,26.85Z" transform="translate(184.585 -14.286)"/>
      <path id="Path_522" data-name="Path 522" class="cls-3" d="M86.961,24.961A3.62,3.62,0,0,0,85.9,23.682a4.266,4.266,0,0,0-1.534-.731,7.358,7.358,0,0,0-1.826-.219,7.277,7.277,0,0,0-1.534.146,4.806,4.806,0,0,0-1.424.548,2.944,2.944,0,0,0-1.023.986,2.771,2.771,0,0,0-.4,1.5,2.111,2.111,0,0,0,.365,1.278,4.373,4.373,0,0,0,.95.877,4.844,4.844,0,0,0,1.242.584,11.271,11.271,0,0,0,1.242.365l3,.694a8.591,8.591,0,0,1,1.9.511,6.363,6.363,0,0,1,1.68.986,5.438,5.438,0,0,1,1.205,1.5,4.767,4.767,0,0,1,.475,2.118,4.466,4.466,0,0,1-.694,2.557A5.257,5.257,0,0,1,87.764,39.1a7.2,7.2,0,0,1-2.374.95,12.892,12.892,0,0,1-2.63.292A8.41,8.41,0,0,1,77.5,38.8a6.484,6.484,0,0,1-2.3-4.931h2.265a4.549,4.549,0,0,0,1.68,3.47,6.077,6.077,0,0,0,3.762,1.169,9.82,9.82,0,0,0,1.717-.183,5.269,5.269,0,0,0,1.644-.621,4.01,4.01,0,0,0,1.242-1.1,2.654,2.654,0,0,0,.475-1.644,2.692,2.692,0,0,0-.329-1.388,2.728,2.728,0,0,0-.913-.913,4.388,4.388,0,0,0-1.315-.621c-.475-.183-.986-.292-1.5-.438l-2.885-.657A14.934,14.934,0,0,1,79,30.293a7.092,7.092,0,0,1-1.644-.913,3.9,3.9,0,0,1-1.1-1.351,4.628,4.628,0,0,1-.4-1.972,4.733,4.733,0,0,1,.621-2.411,4.623,4.623,0,0,1,1.644-1.607,7.469,7.469,0,0,1,2.228-.877A11.467,11.467,0,0,1,82.8,20.87a8.563,8.563,0,0,1,2.593.365,6.857,6.857,0,0,1,2.118,1.1,5.616,5.616,0,0,1,1.461,1.863,6.965,6.965,0,0,1,.621,2.63H87.326A3.617,3.617,0,0,0,86.961,24.961Z" transform="translate(199.465 -14.259)"/>
      <path id="Path_523" data-name="Path 523" class="cls-2" d="M7.342,30.1v.913H1.206V35.1H6.648v.913H1.206v5.406H.11V30.06H7.342Z" transform="translate(0.292 10.117)"/>
      <path id="Path_524" data-name="Path 524" class="cls-2" d="M7.046,30.07V41.429H5.95V30.07Z" transform="translate(15.782 10.144)"/>
      <path id="Path_525" data-name="Path 525" class="cls-2" d="M11.634,39.314a2.25,2.25,0,0,0,.8.95,3.782,3.782,0,0,0,1.169.511,6.194,6.194,0,0,0,1.461.146,5.08,5.08,0,0,0,.986-.11,3.3,3.3,0,0,0,.986-.4,2.906,2.906,0,0,0,.767-.73A1.717,1.717,0,0,0,18.1,38.62a1.6,1.6,0,0,0-.219-.84,2.091,2.091,0,0,0-.548-.584,3.779,3.779,0,0,0-.767-.4c-.292-.11-.548-.183-.8-.256l-2.52-.621a4.17,4.17,0,0,1-.95-.329,2.528,2.528,0,0,1-.8-.511,2.274,2.274,0,0,1-.548-.767,2.607,2.607,0,0,1-.219-1.132,3.574,3.574,0,0,1,.146-.986,2.777,2.777,0,0,1,.584-1.059,3.372,3.372,0,0,1,1.205-.84,5.172,5.172,0,0,1,1.9-.292,5.886,5.886,0,0,1,1.607.219,4.231,4.231,0,0,1,1.351.657,3.334,3.334,0,0,1,.913,1.1,3.389,3.389,0,0,1,.329,1.534h-1.1a2.726,2.726,0,0,0-.292-1.132,2.46,2.46,0,0,0-.694-.8,3.086,3.086,0,0,0-.986-.475,4.116,4.116,0,0,0-1.169-.183,4.957,4.957,0,0,0-1.059.11,3.409,3.409,0,0,0-.913.365,1.9,1.9,0,0,0-.621.694,2.385,2.385,0,0,0-.256,1.059,1.39,1.39,0,0,0,.146.694,1.646,1.646,0,0,0,.365.511,1.376,1.376,0,0,0,.548.329l.657.219,2.776.694a5.95,5.95,0,0,1,1.132.4,3.173,3.173,0,0,1,.95.584,2.4,2.4,0,0,1,.621.84,3.473,3.473,0,0,1,.183,1.717,2.8,2.8,0,0,1-.183.694,3.87,3.87,0,0,1-.438.731,2.283,2.283,0,0,1-.767.657,4.61,4.61,0,0,1-1.205.475,8.09,8.09,0,0,1-3.579-.037,4.177,4.177,0,0,1-1.461-.694,2.835,2.835,0,0,1-.913-1.242,4.491,4.491,0,0,1-.292-1.79h1.1A3.878,3.878,0,0,0,11.634,39.314Z" transform="translate(27.082 9.958)"/>
      <path id="Path_526" data-name="Path 526" class="cls-2" d="M17.726,30.07V41.429h-1.1V30.07Z" transform="translate(44.11 10.144)"/>
      <path id="Path_527" data-name="Path 527" class="cls-2" d="M21.229,33.689a5.879,5.879,0,0,1,.986-1.9,4.656,4.656,0,0,1,1.68-1.315A5.243,5.243,0,0,1,26.233,30a5.243,5.243,0,0,1,2.338.475,4.989,4.989,0,0,1,1.68,1.315,5.528,5.528,0,0,1,.986,1.9,7.714,7.714,0,0,1,0,4.456,5.355,5.355,0,0,1-.986,1.863,4.213,4.213,0,0,1-1.68,1.278,5.243,5.243,0,0,1-2.338.475,5.243,5.243,0,0,1-2.338-.475,5.393,5.393,0,0,1-1.68-1.278,5.7,5.7,0,0,1-.986-1.863,7.714,7.714,0,0,1,0-4.456Zm.986,4.054a4.361,4.361,0,0,0,.767,1.607A3.945,3.945,0,0,0,24.3,40.483a4.494,4.494,0,0,0,3.872,0,3.618,3.618,0,0,0,1.315-1.132,5.937,5.937,0,0,0,.767-1.607,7.6,7.6,0,0,0,.256-1.826,6.132,6.132,0,0,0-.256-1.826,4.361,4.361,0,0,0-.767-1.607,3.945,3.945,0,0,0-1.315-1.132,4.494,4.494,0,0,0-3.872,0,3.618,3.618,0,0,0-1.315,1.132,5.458,5.458,0,0,0-.767,1.607,6.65,6.65,0,0,0,0,3.652Z" transform="translate(55.436 9.958)"/>
      <path id="Path_528" data-name="Path 528" class="cls-2" d="M36.425,30.07v.913H32.48V41.429h-1.1V30.983H27.44V30.07Z" transform="translate(72.783 10.144)"/>
      <path id="Path_529" data-name="Path 529" class="cls-2" d="M41.523,30.1v.913H34.766V35.1h6.319v.913H34.766v4.493H41.6v.913H33.67V30.06h7.853Z" transform="translate(89.308 10.117)"/>
      <path id="Path_530" data-name="Path 530" class="cls-2" d="M44.926,30.07a4.971,4.971,0,0,1,1.315.183,3.093,3.093,0,0,1,1.1.548,2.531,2.531,0,0,1,.73.913,2.91,2.91,0,0,1,.292,1.315,3.12,3.12,0,0,1-.548,1.863,2.436,2.436,0,0,1-1.644,1.023v.037a2.072,2.072,0,0,1,.913.292,1.691,1.691,0,0,1,.584.548,2.435,2.435,0,0,1,.329.767,7.4,7.4,0,0,1,.146.95c0,.183.037.438.037.694a7.129,7.129,0,0,0,.073.84,5.238,5.238,0,0,0,.146.8,1.259,1.259,0,0,0,.292.584H47.483a1.029,1.029,0,0,1-.146-.4,2.139,2.139,0,0,1-.073-.475c0-.146-.036-.329-.036-.475s-.037-.292-.037-.4l-.11-1.205a3,3,0,0,0-.292-1.059,1.9,1.9,0,0,0-.657-.767,1.977,1.977,0,0,0-1.205-.256H40.836v5.04h-1.1V30.07h5.186Zm-.073,5.369a2.723,2.723,0,0,0,.95-.146,2.627,2.627,0,0,0,.767-.438,2.559,2.559,0,0,0,.548-.694,1.862,1.862,0,0,0,.183-.913A2.231,2.231,0,0,0,46.68,31.6a2.5,2.5,0,0,0-1.826-.584H40.8v4.456h4.054Z" transform="translate(105.409 10.144)"/>
      <path id="Path_531" data-name="Path 531" class="cls-2" d="M51.561,30.07l4.456,11.359H54.848L53.46,37.886H48.274l-1.351,3.543H45.79L50.356,30.07Zm1.534,6.9L50.9,31.166l-2.265,5.807Z" transform="translate(121.456 10.144)"/>
      <path id="Path_532" data-name="Path 532" class="cls-2" d="M57.39,30.123a4.1,4.1,0,0,1,1.388.219,2.8,2.8,0,0,1,1.753,1.644,4.041,4.041,0,0,1,.256,1.351,3.189,3.189,0,0,1-.256,1.351,2.8,2.8,0,0,1-1.753,1.644,4.1,4.1,0,0,1-1.388.219H53.446v4.858h-1.1V30.05h5.04Zm-.219,5.552A2.678,2.678,0,0,0,59,35.09a2.11,2.11,0,0,0,.694-1.753A2.11,2.11,0,0,0,59,31.584,2.678,2.678,0,0,0,57.171,31H53.446v4.639h3.726Z" transform="translate(138.856 10.091)"/>
      <path id="Path_533" data-name="Path 533" class="cls-2" d="M66.423,30.1v.913H59.666V35.1h6.319v.913H59.666v4.493H66.5v.913H58.57V30.06h7.853Z" transform="translate(155.355 10.117)"/>
      <path id="Path_534" data-name="Path 534" class="cls-2" d="M65.626,30.07v7.013a5.682,5.682,0,0,0,.219,1.68A2.656,2.656,0,0,0,66.5,39.9a2.214,2.214,0,0,0,1.059.621,4.126,4.126,0,0,0,1.388.183,5.846,5.846,0,0,0,1.424-.183,2.8,2.8,0,0,0,1.059-.621,2.656,2.656,0,0,0,.657-1.132,5.682,5.682,0,0,0,.219-1.68V30.07h1.1v7.268a4.845,4.845,0,0,1-.256,1.644,4.668,4.668,0,0,1-.767,1.388,3.543,3.543,0,0,1-1.351.913,5.512,5.512,0,0,1-2.009.329,5.377,5.377,0,0,1-2.009-.329,3.676,3.676,0,0,1-1.351-.913,3.242,3.242,0,0,1-.767-1.388,6.177,6.177,0,0,1-.256-1.644V30.07h.986Z" transform="translate(171.455 10.144)"/>
      <path id="Path_535" data-name="Path 535" class="cls-2" d="M79.765,30.07v.913H75.82V41.429h-1.1V30.983H70.78V30.07Z" transform="translate(187.741 10.144)"/>
      <path id="Path_536" data-name="Path 536" class="cls-2" d="M82.151,30.07l4.456,11.359H85.438L84.05,37.886H78.864l-1.351,3.543H76.38L80.946,30.07Zm1.534,6.9-2.191-5.807-2.265,5.807Z" transform="translate(202.595 10.144)"/>
    </g>
  </g>
</svg>
